<svg id="Layer_1" data-name="Layer 1" xmlns="http://www.w3.org/2000/svg" viewBox="0 0 351 188.21"><defs><style>.cls-1{isolation:isolate;font-size:93.69px;font-family:BebasNeue, Bebas Neue;}.cls-1,.cls-3{fill:#e73d11;}.cls-2{fill:#231f20;}.cls-4{fill:#bbbdbf;}</style></defs><g id="Layer_2" data-name="Layer 2"><g id="Layer_1-2" data-name="Layer 1-2"><text class="cls-1" transform="translate(214 84.04)">30%</text><path class="cls-2" d="M31.9,114.37v1.56a5.34,5.34,0,0,1-1.35,4,5.28,5.28,0,0,1-3.95,1.43A5,5,0,0,1,22.83,120a5.22,5.22,0,0,1-1.27-3.86v-8.84h1.72l-.07,8.62a4.22,4.22,0,0,0,.87,2.94,3.36,3.36,0,0,0,2.65,1,3.55,3.55,0,0,0,2.67-.94,3.73,3.73,0,0,0,.89-2.77l-.09-8.84h1.74Z"/><path class="cls-2" d="M41.11,114.45a2,2,0,0,0-.42-1.39,1.62,1.62,0,0,0-1.28-.5,4.5,4.5,0,0,0-3,1.55v2.73l.09,4.37H34.78l.11-4.22-.09-5.62,1.63-.15v1.45h.13a6.56,6.56,0,0,1,2.76-1.54,3.66,3.66,0,0,1,2.49.76,2.68,2.68,0,0,1,.83,2.17v2.83l.09,4.32H41Z"/><path class="cls-2" d="M53.48,116.84l.07,2.24a1.31,1.31,0,0,0,.15.64.57.57,0,0,0,.48.18,2.35,2.35,0,0,0,.74-.13l.17.16-.17,1a2.81,2.81,0,0,1-1.22.44,1.65,1.65,0,0,1-1.05-.46,1.75,1.75,0,0,1-.47-1.06H52a13,13,0,0,1-1.17.9,6.72,6.72,0,0,1-1.2.6,4.16,4.16,0,0,1-3.3-1.32,5.47,5.47,0,0,1-1.15-3.74,5.3,5.3,0,0,1,1.28-3.81A4.63,4.63,0,0,1,50,111.12a7.73,7.73,0,0,1,1.91.22v-5.2l1.72-.15Zm-5.84-3.59a4.14,4.14,0,0,0-.8,2.72,4.84,4.84,0,0,0,.73,2.87,2.33,2.33,0,0,0,2,1,2.47,2.47,0,0,0,1.19-.3,4.81,4.81,0,0,0,1.2-1L52,117l-.07-4.12a5.12,5.12,0,0,0-2.1-.55A2.76,2.76,0,0,0,47.64,113.25Z"/><path class="cls-2" d="M58.07,116.17h0a4.21,4.21,0,0,0,.82,2.8,2.88,2.88,0,0,0,2.35,1,4.89,4.89,0,0,0,1.52-.25,5.19,5.19,0,0,0,1.39-.7l.17.13-.26,1.47a7,7,0,0,1-3,.74A4.25,4.25,0,0,1,57.71,120a5.34,5.34,0,0,1-1.21-3.72,5.68,5.68,0,0,1,1.21-3.8A4.14,4.14,0,0,1,61,111.07a3.56,3.56,0,0,1,2.7,1,3.83,3.83,0,0,1,1,2.74,8.29,8.29,0,0,1-.08,1.11l-.22.22ZM59.14,113a3.54,3.54,0,0,0-1,2l4.8-.09v-.3a2.46,2.46,0,0,0-.54-1.71,1.92,1.92,0,0,0-1.53-.6,2.54,2.54,0,0,0-1.73.69Z"/><path class="cls-2" d="M72.42,111.28V113l-.2.06a3.09,3.09,0,0,0-.8-.11,1.85,1.85,0,0,0-1.31.58,6,6,0,0,0-1.19,1.83v1.52l.11,4.37H67.31l.11-4.22-.08-5.62,1.62-.15v2h.13a4.29,4.29,0,0,1,1.35-1.55,2.77,2.77,0,0,1,1.45-.47A3.15,3.15,0,0,1,72.42,111.28Z"/><path class="cls-2" d="M83.39,111.78a2.37,2.37,0,0,1,.82,1.91c0,.25,0,1.14-.13,2.67s-.13,2.44-.13,2.7a1.09,1.09,0,0,0,.15.66.67.67,0,0,0,.52.18,2.35,2.35,0,0,0,.74-.13l.17.16-.17,1a3.23,3.23,0,0,1-1.24.44,1.73,1.73,0,0,1-1.07-.48,1.68,1.68,0,0,1-.43-1.13h-.15a6.61,6.61,0,0,1-2.32,1.63,3.28,3.28,0,0,1-2.27-.73,2.52,2.52,0,0,1-.81-2,2.22,2.22,0,0,1,.5-1.52,3,3,0,0,1,1.52-.8l3.51-.82V114.1a1.82,1.82,0,0,0-.44-1.3,1.69,1.69,0,0,0-1.27-.45,3.45,3.45,0,0,0-1.48.34,7.17,7.17,0,0,0-1.58,1.09l-.18-.09-.21-1.24a6.19,6.19,0,0,1,3.71-1.34A3.29,3.29,0,0,1,83.39,111.78Zm-4,5.58a1.29,1.29,0,0,0-.63.36,1,1,0,0,0-.19.69,1.47,1.47,0,0,0,.4,1.11,1.45,1.45,0,0,0,1.08.41,3.37,3.37,0,0,0,2.43-1.55l.06-1.78Z"/><path class="cls-2" d="M96.2,119.45l.19.13-.17,1.13a6.85,6.85,0,0,1-2.17.63,2.86,2.86,0,0,1-1.78-.92,3,3,0,0,1-.55-2l.07-1.54v-4.5H90.4l-.09-.13.11-1h1.32v-1.6l1.5-.66.18.16,0,2.1h3l.08.13-.1,1H93.41l-.11,5.89a1.68,1.68,0,0,0,.31,1.21,1.37,1.37,0,0,0,1.06.35A3.53,3.53,0,0,0,96.2,119.45Z"/><path class="cls-2" d="M104.8,114.45a2,2,0,0,0-.42-1.39,1.62,1.62,0,0,0-1.28-.5,4.26,4.26,0,0,0-2.93,1.55v2.73l.1,4.37H98.56l.13-4.24-.11-10.86,1.72-.15-.09,6.71h.13a6.56,6.56,0,0,1,2.76-1.54,3.63,3.63,0,0,1,2.5.76,2.75,2.75,0,0,1,.82,2.17v2.83l.08,4.32h-1.73Z"/><path class="cls-2" d="M111.33,107.07a1,1,0,0,1,.26.72,1.06,1.06,0,0,1-.27.76,1,1,0,0,1-.75.28,1,1,0,0,1-.7-.26,1,1,0,0,1-.25-.74,1,1,0,0,1,.27-.74,1,1,0,0,1,.75-.28A1,1,0,0,1,111.33,107.07Zm-1.5,9.92-.06-5.62,1.67-.15v10h-1.69Z"/><path class="cls-2" d="M120.1,111.28V113l-.19.06a3.09,3.09,0,0,0-.8-.11,1.87,1.87,0,0,0-1.32.58,6,6,0,0,0-1.18,1.83v1.52l.11,4.37H115l.11-4.22-.09-5.62,1.63-.15v2h.13a4.17,4.17,0,0,1,1.34-1.55,2.81,2.81,0,0,1,1.46-.47A3,3,0,0,1,120.1,111.28Z"/><path class="cls-2" d="M129.42,116.84l.06,2.24a1.32,1.32,0,0,0,.16.64.53.53,0,0,0,.47.18,2.1,2.1,0,0,0,.74-.13l.18.16-.18,1a2.77,2.77,0,0,1-1.21.44,1.68,1.68,0,0,1-1.06-.46,1.74,1.74,0,0,1-.46-1.06H128a11.36,11.36,0,0,1-1.17.9,7,7,0,0,1-1.19.6,4.11,4.11,0,0,1-3.3-1.32,5.47,5.47,0,0,1-1.15-3.74,5.3,5.3,0,0,1,1.28-3.81,4.59,4.59,0,0,1,3.54-1.36,7.73,7.73,0,0,1,1.91.22v-5.2l1.71-.15Zm-5.84-3.59a4,4,0,0,0-.81,2.72,4.92,4.92,0,0,0,.73,2.87,2.33,2.33,0,0,0,2,1,2.55,2.55,0,0,0,1.18-.3,4.49,4.49,0,0,0,1.21-1V117l-.06-4.12a5.16,5.16,0,0,0-2.11-.55,2.73,2.73,0,0,0-2.14,1Z"/><path class="cls-2" d="M143.65,112.4a5.53,5.53,0,0,1,1.12,3.7,5.87,5.87,0,0,1-1.17,3.9,4.14,4.14,0,0,1-3.35,1.38,4,4,0,0,1-3.16-1.31,5.6,5.6,0,0,1-1.11-3.71,5.78,5.78,0,0,1,1.18-3.89,4.17,4.17,0,0,1,3.35-1.38A3.91,3.91,0,0,1,143.65,112.4Zm-5.33.84a4.41,4.41,0,0,0-.72,2.73,5.6,5.6,0,0,0,.71,3.13,2.32,2.32,0,0,0,2.05,1,2.51,2.51,0,0,0,2.09-.91,4.42,4.42,0,0,0,.71-2.74,5.65,5.65,0,0,0-.7-3.12,2.31,2.31,0,0,0-2.05-1.07A2.47,2.47,0,0,0,138.32,113.24Z"/><path class="cls-2" d="M152.89,106.11l-.13,1.35-.13.11a3.48,3.48,0,0,0-1.58-.39,1.67,1.67,0,0,0-1.31.53,2.48,2.48,0,0,0-.47,1.58v2h2.61l.06.13-.1,1h-2.59v4.41l.11,4.37h-1.72l.13-4.24v-4.54h-1.5l-.09-.13.11-1h1.48v-1.73a3.22,3.22,0,0,1,2.76-3.62,3.06,3.06,0,0,1,.8,0A8.2,8.2,0,0,1,152.89,106.11Z"/><path class="cls-2" d="M162.17,111.25a6.39,6.39,0,0,1,1.28.42l-.31,1.5-.19.07a4.1,4.1,0,0,0-2.24-.74,2.33,2.33,0,0,0-2,1,5.56,5.56,0,0,0,0,5.5,2.45,2.45,0,0,0,2.08,1,4.27,4.27,0,0,0,1.23-.19,5.42,5.42,0,0,0,1.2-.55l.2.11-.2,1.46a6.92,6.92,0,0,1-2.65.56,3.77,3.77,0,0,1-3.1-1.36,5.58,5.58,0,0,1-1.13-3.72,5.69,5.69,0,0,1,1.18-3.81,4,4,0,0,1,3.22-1.4A6.26,6.26,0,0,1,162.17,111.25Z"/><path class="cls-2" d="M170.84,111.78a2.39,2.39,0,0,1,.81,1.91c0,.25,0,1.14-.13,2.67s-.13,2.44-.13,2.7a1.09,1.09,0,0,0,.15.66.69.69,0,0,0,.53.18,2.24,2.24,0,0,0,.73-.13l.18.16-.18,1a3.13,3.13,0,0,1-1.23.44,1.76,1.76,0,0,1-1.08-.48,1.62,1.62,0,0,1-.42-1.13h-.15a6.78,6.78,0,0,1-2.33,1.63,3.28,3.28,0,0,1-2.27-.73,2.56,2.56,0,0,1-.81-2,2.16,2.16,0,0,1,.51-1.52,2.93,2.93,0,0,1,1.51-.8l3.52-.82V114.1a1.77,1.77,0,0,0-.45-1.3,1.69,1.69,0,0,0-1.27-.45,3.41,3.41,0,0,0-1.47.34,6.91,6.91,0,0,0-1.59,1.09l-.17-.09-.22-1.24a6.19,6.19,0,0,1,3.71-1.34A3.3,3.3,0,0,1,170.84,111.78Zm-4,5.58a1.29,1.29,0,0,0-.63.36,1,1,0,0,0-.2.69,1.47,1.47,0,0,0,.4,1.11,1.45,1.45,0,0,0,1.08.41,3.37,3.37,0,0,0,2.43-1.55l.07-1.78Z"/><path class="cls-2" d="M180.47,111.59l-.24,1.41-.26.06a3.88,3.88,0,0,0-2.08-.71,1.74,1.74,0,0,0-1.2.41,1.33,1.33,0,0,0-.46,1,1.13,1.13,0,0,0,.47.94,8,8,0,0,0,1.45.82,14.39,14.39,0,0,1,1.35.7,2.94,2.94,0,0,1,.88.84,2.09,2.09,0,0,1,.37,1.28,2.92,2.92,0,0,1-.41,1.5,3.13,3.13,0,0,1-1.22,1.12,4,4,0,0,1-1.91.42,6.19,6.19,0,0,1-2.89-.72l.22-1.47.2-.13a4.52,4.52,0,0,0,1.31.8,3.61,3.61,0,0,0,1.34.28,1.87,1.87,0,0,0,1.3-.44,1.39,1.39,0,0,0,.5-1.06,1.13,1.13,0,0,0-.47-.94,7.83,7.83,0,0,0-1.44-.81,13.65,13.65,0,0,1-1.37-.71,2.92,2.92,0,0,1-.89-.86,2.29,2.29,0,0,1-.37-1.34,2.66,2.66,0,0,1,.92-2.07,3.72,3.72,0,0,1,2.51-.8A6.15,6.15,0,0,1,180.47,111.59Z"/><path class="cls-2" d="M184.18,116.17h0A4.16,4.16,0,0,0,185,119a2.87,2.87,0,0,0,2.34,1,4.61,4.61,0,0,0,1.52-.25,5.19,5.19,0,0,0,1.39-.7l.18.13-.26,1.47a7,7,0,0,1-3,.74,4.25,4.25,0,0,1-3.35-1.36,5.35,5.35,0,0,1-1.22-3.72,5.63,5.63,0,0,1,1.22-3.8,4.08,4.08,0,0,1,3.28-1.41,3.54,3.54,0,0,1,2.69,1,3.75,3.75,0,0,1,1,2.74,6.92,6.92,0,0,1-.09,1.11l-.21.22Zm1.08-3.16a3.54,3.54,0,0,0-1,2l4.8-.09v-.3a2.5,2.5,0,0,0-.53-1.71,1.93,1.93,0,0,0-1.53-.6,2.5,2.5,0,0,0-1.74.69Z"/><path class="cls-2" d="M198.51,111.59l-.24,1.41-.26.06a3.8,3.8,0,0,0-2.08-.71,1.73,1.73,0,0,0-1.19.41,1.25,1.25,0,0,0-.46,1,1.12,1.12,0,0,0,.47.94,7.87,7.87,0,0,0,1.44.82,13.41,13.41,0,0,1,1.36.7,2.94,2.94,0,0,1,.88.84,2.25,2.25,0,0,1,.37,1.28,2.83,2.83,0,0,1-.42,1.5,3,3,0,0,1-1.21,1.12,4.07,4.07,0,0,1-1.91.42,6.07,6.07,0,0,1-2.89-.72l.22-1.47.19-.13a5,5,0,0,0,1.31.8,3.61,3.61,0,0,0,1.34.28,1.87,1.87,0,0,0,1.3-.44,1.36,1.36,0,0,0,.5-1.06,1.12,1.12,0,0,0-.46-.94,8.25,8.25,0,0,0-1.45-.81,13.65,13.65,0,0,1-1.37-.71,2.92,2.92,0,0,1-.89-.86,2.44,2.44,0,0,1-.37-1.34,2.61,2.61,0,0,1,.93-2.07,3.71,3.71,0,0,1,2.5-.8A6.15,6.15,0,0,1,198.51,111.59Z"/><path class="cls-2" d="M211.88,112.4a5.53,5.53,0,0,1,1.12,3.7,5.87,5.87,0,0,1-1.17,3.9,4.17,4.17,0,0,1-3.35,1.38,4,4,0,0,1-3.16-1.31,5.61,5.61,0,0,1-1.12-3.71,5.79,5.79,0,0,1,1.19-3.89,4.17,4.17,0,0,1,3.35-1.38A3.94,3.94,0,0,1,211.88,112.4Zm-5.33.84a4.41,4.41,0,0,0-.72,2.73,5.6,5.6,0,0,0,.71,3.13,2.32,2.32,0,0,0,2.05,1,2.48,2.48,0,0,0,2.08-.91,4.36,4.36,0,0,0,.72-2.74,5.65,5.65,0,0,0-.71-3.12,2.3,2.3,0,0,0-2-1.07A2.46,2.46,0,0,0,206.55,113.24Z"/><path class="cls-2" d="M221.12,106.11l-.13,1.35-.13.11a3.52,3.52,0,0,0-1.59-.39,1.64,1.64,0,0,0-1.3.53,2.55,2.55,0,0,0-.48,1.58v2h2.61l.06.13-.11,1h-2.58v4.41l.1,4.37H215.8l.13-4.24v-4.54h-1.5l-.09-.13.11-1h1.48v-1.73a3.21,3.21,0,0,1,2.74-3.62,3.14,3.14,0,0,1,.81,0A7.56,7.56,0,0,1,221.12,106.11Z"/><path class="cls-2" d="M230.52,111.59l-.24,1.41-.26.06a3.88,3.88,0,0,0-2.08-.71,1.75,1.75,0,0,0-1.2.41,1.32,1.32,0,0,0-.45,1,1.12,1.12,0,0,0,.46.94,9,9,0,0,0,1.45.82,14.39,14.39,0,0,1,1.35.7,2.94,2.94,0,0,1,.88.84,2.09,2.09,0,0,1,.37,1.28,2.92,2.92,0,0,1-.41,1.5,3,3,0,0,1-1.21,1.12,4.14,4.14,0,0,1-1.92.42,6.18,6.18,0,0,1-2.88-.72l.21-1.47.2-.13a4.52,4.52,0,0,0,1.31.8,3.61,3.61,0,0,0,1.34.28,1.87,1.87,0,0,0,1.3-.44,1.39,1.39,0,0,0,.5-1.06,1.13,1.13,0,0,0-.47-.94,7.83,7.83,0,0,0-1.44-.81,13.65,13.65,0,0,1-1.37-.71,2.92,2.92,0,0,1-.89-.86,2.29,2.29,0,0,1-.37-1.34,2.66,2.66,0,0,1,.92-2.07,3.72,3.72,0,0,1,2.51-.8A6.15,6.15,0,0,1,230.52,111.59Z"/><path class="cls-2" d="M234.23,116.17h0a4.2,4.2,0,0,0,.83,2.8,2.87,2.87,0,0,0,2.34,1,4.67,4.67,0,0,0,1.53-.25,5.13,5.13,0,0,0,1.38-.7l.18.13-.26,1.47a7,7,0,0,1-3,.74,4.25,4.25,0,0,1-3.35-1.36,5.34,5.34,0,0,1-1.21-3.72,5.68,5.68,0,0,1,1.21-3.8,4.14,4.14,0,0,1,3.28-1.41,3.54,3.54,0,0,1,2.69,1,3.75,3.75,0,0,1,1,2.74,6.92,6.92,0,0,1-.09,1.11l-.21.22Zm1.08-3.16a3.54,3.54,0,0,0-1,2l4.8-.09,0-.3a2.46,2.46,0,0,0-.54-1.71,1.92,1.92,0,0,0-1.53-.6,2.51,2.51,0,0,0-1.78.69Z"/><path class="cls-2" d="M244.51,112.13l2.06,3,1.89-3,.5-.89h1.6l-3.1,4.87,3.32,5-1.82.17-.48-1-2.13-3.15-2.08,3.24-.44.85h-1.61l3.2-5.06-3.17-4.82,1.84-.13Z"/><path class="cls-2" d="M261.81,119.93l-.17,1a3.23,3.23,0,0,1-1.24.44,1.8,1.8,0,0,1-1-.45,2,2,0,0,1-.53-1.07h-.13a6.42,6.42,0,0,1-2.7,1.52,3.53,3.53,0,0,1-2.44-.76,2.7,2.7,0,0,1-.81-2.17v-2.76l-.06-4.28,1.73-.15-.13,6.77a2,2,0,0,0,.43,1.39,1.49,1.49,0,0,0,1.24.5,3.93,3.93,0,0,0,2.7-1.3V111.4l1.65-.15-.11,7.86a1.1,1.1,0,0,0,.14.64.6.6,0,0,0,.49.18,2.43,2.43,0,0,0,.76-.13Z"/><path class="cls-2" d="M269.49,111.78a2.39,2.39,0,0,1,.81,1.91c0,.25,0,1.14-.13,2.67s-.13,2.44-.13,2.7a1.09,1.09,0,0,0,.15.66.69.69,0,0,0,.53.18,2.24,2.24,0,0,0,.73-.13l.18.16-.18,1a3.13,3.13,0,0,1-1.23.44,1.76,1.76,0,0,1-1.08-.48,1.62,1.62,0,0,1-.42-1.13h-.16a6.61,6.61,0,0,1-2.32,1.63,3.28,3.28,0,0,1-2.27-.73,2.56,2.56,0,0,1-.81-2,2.16,2.16,0,0,1,.51-1.52,2.93,2.93,0,0,1,1.51-.8l3.52-.82V114.1a1.77,1.77,0,0,0-.45-1.3,1.69,1.69,0,0,0-1.27-.45,3.45,3.45,0,0,0-1.48.34,7.17,7.17,0,0,0-1.58,1.09l-.17-.09-.22-1.24a6.19,6.19,0,0,1,3.71-1.34A3.3,3.3,0,0,1,269.49,111.78Zm-4,5.58a1.26,1.26,0,0,0-.62.36,1,1,0,0,0-.2.69,1.47,1.47,0,0,0,.4,1.11,1.45,1.45,0,0,0,1.08.41,3.37,3.37,0,0,0,2.43-1.55l.06-1.78Z"/><path class="cls-2" d="M275.71,116.84l.11,4.37H274.1l.13-4.24-.11-10.86,1.72-.15Z"/><path class="cls-2" d="M28,140.51a2,2,0,0,0-.41-1.39,1.62,1.62,0,0,0-1.28-.5,4.27,4.27,0,0,0-2.93,1.54l-.05,2.74.11,4.37H21.73l.13-4.24-.11-10.86,1.72-.15-.09,6.71h.13a6.56,6.56,0,0,1,2.76-1.54,3.56,3.56,0,0,1,2.49.76,2.71,2.71,0,0,1,.83,2.17v2.82l.08,4.33H27.94Z"/><path class="cls-2" d="M38.47,137.84a2.36,2.36,0,0,1,.81,1.91c0,.25,0,1.14-.13,2.67s-.13,2.43-.13,2.7a1.09,1.09,0,0,0,.15.66.67.67,0,0,0,.52.18,2.35,2.35,0,0,0,.74-.13l.18.15-.18,1a3.23,3.23,0,0,1-1.24.44,1.73,1.73,0,0,1-1.07-.48,1.62,1.62,0,0,1-.42-1.13h-.16a6.74,6.74,0,0,1-2.32,1.63,3.28,3.28,0,0,1-2.27-.73,2.52,2.52,0,0,1-.81-2,2.16,2.16,0,0,1,.51-1.52,2.93,2.93,0,0,1,1.51-.8l3.51-.83v-1.41a1.76,1.76,0,0,0-.45-1.3,1.7,1.7,0,0,0-1.27-.46,3.61,3.61,0,0,0-1.48.35,6.64,6.64,0,0,0-1.58,1.09l-.17-.09-.22-1.24a6.1,6.1,0,0,1,3.71-1.34A3.4,3.4,0,0,1,38.47,137.84Zm-4,5.58a1.37,1.37,0,0,0-.63.36,1.1,1.1,0,0,0-.19.68,1.49,1.49,0,0,0,.4,1.12,1.44,1.44,0,0,0,1.08.4,3.36,3.36,0,0,0,2.43-1.54l.06-1.78Z"/><path class="cls-2" d="M47.9,137.34V139l-.19.07a3.16,3.16,0,0,0-.81-.11,1.86,1.86,0,0,0-1.31.57,6.16,6.16,0,0,0-1.18,1.84v1.52l.1,4.37H42.8l.11-4.22-.09-5.62,1.63-.15v2h.13a4.2,4.2,0,0,1,1.34-1.56,2.71,2.71,0,0,1,1.46-.46A4.34,4.34,0,0,1,47.9,137.34Z"/><path class="cls-2" d="M55.08,137.84a2.36,2.36,0,0,1,.81,1.91c0,.25,0,1.14-.13,2.67s-.13,2.43-.13,2.7a1,1,0,0,0,.16.66.63.63,0,0,0,.52.18,2.24,2.24,0,0,0,.73-.13l.18.15L57,147a3.13,3.13,0,0,1-1.23.44,1.76,1.76,0,0,1-1.08-.48,1.62,1.62,0,0,1-.42-1.13h-.15a6.78,6.78,0,0,1-2.33,1.63,3.28,3.28,0,0,1-2.27-.73,2.52,2.52,0,0,1-.81-2,2.16,2.16,0,0,1,.51-1.52,2.93,2.93,0,0,1,1.51-.8l3.52-.83v-1.41a1.76,1.76,0,0,0-.45-1.3,1.7,1.7,0,0,0-1.27-.46,3.61,3.61,0,0,0-1.48.35,6.64,6.64,0,0,0-1.58,1.09l-.17-.09-.22-1.24a6.1,6.1,0,0,1,3.71-1.34A3.36,3.36,0,0,1,55.08,137.84Zm-4,5.58a1.34,1.34,0,0,0-.62.36,1,1,0,0,0-.2.68,1.49,1.49,0,0,0,.4,1.12,1.44,1.44,0,0,0,1.08.4,3.31,3.31,0,0,0,2.43-1.54l.06-1.78Z"/><path class="cls-2" d="M64.71,137.65l-.24,1.41-.26.06a3.72,3.72,0,0,0-2.08-.71,1.65,1.65,0,0,0-1.2.41,1.33,1.33,0,0,0-.46,1,1.13,1.13,0,0,0,.47.94,8,8,0,0,0,1.45.82,14.39,14.39,0,0,1,1.35.7,2.94,2.94,0,0,1,.88.84A2.09,2.09,0,0,1,65,144.4a2.94,2.94,0,0,1-.41,1.5A3.13,3.13,0,0,1,63.36,147a4,4,0,0,1-1.91.42,6.19,6.19,0,0,1-2.89-.72l.22-1.47.2-.13a4.52,4.52,0,0,0,1.31.8,3.61,3.61,0,0,0,1.34.28,1.92,1.92,0,0,0,1.3-.44,1.39,1.39,0,0,0,.5-1.06,1.13,1.13,0,0,0-.47-.94,7.87,7.87,0,0,0-1.44-.82,13.57,13.57,0,0,1-1.37-.7,2.81,2.81,0,0,1-.89-.86,2.3,2.3,0,0,1-.37-1.35,2.62,2.62,0,0,1,.92-2.06,3.72,3.72,0,0,1,2.51-.8A6.15,6.15,0,0,1,64.71,137.65Z"/><path class="cls-2" d="M72.74,137.65l-.23,1.41-.27.06a3.72,3.72,0,0,0-2.08-.71,1.74,1.74,0,0,0-1.2.41,1.32,1.32,0,0,0-.45,1,1.12,1.12,0,0,0,.47.94,7.87,7.87,0,0,0,1.44.82,13.41,13.41,0,0,1,1.36.7,2.94,2.94,0,0,1,.88.84A2.25,2.25,0,0,1,73,144.4a2.83,2.83,0,0,1-.42,1.5A3.05,3.05,0,0,1,71.4,147a4.07,4.07,0,0,1-1.91.42,6.07,6.07,0,0,1-2.89-.72l.22-1.47.19-.13a4.52,4.52,0,0,0,1.31.8,3.61,3.61,0,0,0,1.34.28,1.92,1.92,0,0,0,1.3-.44,1.36,1.36,0,0,0,.5-1.06,1.12,1.12,0,0,0-.47-.94,7.87,7.87,0,0,0-1.44-.82,13.57,13.57,0,0,1-1.37-.7,2.92,2.92,0,0,1-.89-.86,2.37,2.37,0,0,1-.37-1.35,2.6,2.6,0,0,1,.93-2.06,3.72,3.72,0,0,1,2.51-.8A6.26,6.26,0,0,1,72.74,137.65Z"/><path class="cls-2" d="M88.12,140.51a2,2,0,0,0-.42-1.39,1.58,1.58,0,0,0-1.28-.5,4.25,4.25,0,0,0-2.88,1.5l-.05,2.82.09,4.33H81.82l.13-6.76a2,2,0,0,0-.41-1.39,1.62,1.62,0,0,0-1.28-.5,4.53,4.53,0,0,0-3,1.54v2.74l.09,4.37H75.64l.1-4.22-.08-5.62,1.62-.15v1.45h.14a6.53,6.53,0,0,1,2.75-1.54,4.19,4.19,0,0,1,2,.42,2.34,2.34,0,0,1,1.11,1.23h.13a7,7,0,0,1,2.93-1.65,3.63,3.63,0,0,1,2.5.76,2.67,2.67,0,0,1,.82,2.17v2.82l.09,4.33H88Z"/><path class="cls-2" d="M93.83,142.23h0a4.21,4.21,0,0,0,.82,2.8A2.89,2.89,0,0,0,97,146a4.61,4.61,0,0,0,1.52-.25,4.81,4.81,0,0,0,1.39-.71l.17.13-.26,1.48a7,7,0,0,1-3,.74,4.21,4.21,0,0,1-3.34-1.36,5.35,5.35,0,0,1-1.22-3.72,5.63,5.63,0,0,1,1.22-3.8,4.08,4.08,0,0,1,3.28-1.41,3.62,3.62,0,0,1,2.69,1,3.79,3.79,0,0,1,1,2.75,6.91,6.91,0,0,1-.08,1.11l-.22.22Zm1.07-3.16a3.54,3.54,0,0,0-1,2l4.8-.08v-.31a2.49,2.49,0,0,0-.53-1.7,2,2,0,0,0-1.53-.6,2.55,2.55,0,0,0-1.74.69Z"/><path class="cls-2" d="M109.33,140.51a2,2,0,0,0-.41-1.39,1.62,1.62,0,0,0-1.28-.5,4.53,4.53,0,0,0-3,1.54v2.74l.09,4.37H103l.11-4.22-.09-5.62,1.63-.15v1.45h.13a6.53,6.53,0,0,1,2.75-1.54A3.66,3.66,0,0,1,110,138a2.72,2.72,0,0,1,.84,2.17l0,2.82.09,4.33h-1.74Z"/><path class="cls-2" d="M119,145.51l.2.13-.18,1.13a6.6,6.6,0,0,1-2.17.63,2.94,2.94,0,0,1-1.78-.92,3,3,0,0,1-.54-1.95l.06-1.54v-4.5h-1.37l-.08-.13.1-1h1.33v-1.61l1.5-.65.17.15v2.11h3l.09.13-.11,1h-2.93l-.11,5.89a1.68,1.68,0,0,0,.3,1.21,1.43,1.43,0,0,0,1.07.35A3.42,3.42,0,0,0,119,145.51Z"/><path class="cls-2" d="M130.28,137.84a2.36,2.36,0,0,1,.81,1.91c0,.25,0,1.14-.13,2.67s-.13,2.43-.13,2.7a1.09,1.09,0,0,0,.15.66.67.67,0,0,0,.52.18,2.35,2.35,0,0,0,.74-.13l.18.15-.18,1a3.23,3.23,0,0,1-1.24.44,1.73,1.73,0,0,1-1.07-.48,1.62,1.62,0,0,1-.42-1.13h-.16a6.74,6.74,0,0,1-2.32,1.63,3.28,3.28,0,0,1-2.27-.73,2.56,2.56,0,0,1-.81-2,2.16,2.16,0,0,1,.51-1.52,2.93,2.93,0,0,1,1.51-.8l3.51-.83v-1.41a1.76,1.76,0,0,0-.45-1.3,1.7,1.7,0,0,0-1.27-.46,3.61,3.61,0,0,0-1.48.35,6.64,6.64,0,0,0-1.58,1.09l-.18-.09-.21-1.24a6.1,6.1,0,0,1,3.71-1.34A3.4,3.4,0,0,1,130.28,137.84Zm-4,5.58a1.29,1.29,0,0,0-.63.36,1,1,0,0,0-.19.68,1.49,1.49,0,0,0,.4,1.12,1.46,1.46,0,0,0,1.07.4,3.35,3.35,0,0,0,2.44-1.54l.06-1.78Z"/><path class="cls-2" d="M139.71,137.34V139l-.2.07a3.09,3.09,0,0,0-.8-.11,1.86,1.86,0,0,0-1.31.57,6.39,6.39,0,0,0-1.19,1.84v1.52l.11,4.37h-1.71l.1-4.22-.08-5.62,1.63-.15v2h.13a4.32,4.32,0,0,1,1.35-1.56,2.68,2.68,0,0,1,1.45-.46A4.34,4.34,0,0,1,139.71,137.34Z"/><path class="cls-2" d="M142.36,142.23h0a4.21,4.21,0,0,0,.82,2.8,2.92,2.92,0,0,0,2.35,1,4.61,4.61,0,0,0,1.52-.25,4.81,4.81,0,0,0,1.39-.71l.17.13-.26,1.48a7,7,0,0,1-3,.74,4.21,4.21,0,0,1-3.34-1.36,5.35,5.35,0,0,1-1.22-3.72,5.63,5.63,0,0,1,1.22-3.8,4.08,4.08,0,0,1,3.28-1.41,3.62,3.62,0,0,1,2.69,1,3.79,3.79,0,0,1,1,2.75,6.92,6.92,0,0,1-.09,1.11l-.22.22Zm1.07-3.16a3.54,3.54,0,0,0-1,2l4.8-.08v-.31a2.49,2.49,0,0,0-.53-1.7,2,2,0,0,0-1.53-.6,2.55,2.55,0,0,0-1.74.69Z"/><path class="cls-2" d="M156,142.23h0a4.2,4.2,0,0,0,.83,2.8,2.9,2.9,0,0,0,2.34,1,4.61,4.61,0,0,0,1.52-.25,4.81,4.81,0,0,0,1.39-.71l.18.13-.26,1.5a7,7,0,0,1-3,.74,4.25,4.25,0,0,1-3.35-1.36,5.34,5.34,0,0,1-1.21-3.72,5.68,5.68,0,0,1,1.21-3.8,4.14,4.14,0,0,1,3.28-1.41,3.58,3.58,0,0,1,2.69,1,3.79,3.79,0,0,1,1,2.75,6.92,6.92,0,0,1-.09,1.11l-.22.22Zm1.08-3.16a3.54,3.54,0,0,0-1,2l4.8-.08v-.31a2.49,2.49,0,0,0-.53-1.7,1.92,1.92,0,0,0-1.53-.6,2.46,2.46,0,0,0-1.82.69Z"/><path class="cls-2" d="M165.77,138.58l2.15,7h.13l2.52-6.88.34-1.35h1.55l-3.65,10H167l-3.08-9.91,1.6-.11Z"/><path class="cls-2" d="M174.85,142.23h0a4.21,4.21,0,0,0,.82,2.8,2.89,2.89,0,0,0,2.35,1,4.6,4.6,0,0,0,1.51-.25,5,5,0,0,0,1.4-.71l.17.13-.26,1.48a7,7,0,0,1-3,.74,4.25,4.25,0,0,1-3.35-1.36,5.34,5.34,0,0,1-1.21-3.72,5.68,5.68,0,0,1,1.21-3.8,4.14,4.14,0,0,1,3.28-1.41,3.64,3.64,0,0,1,2.7,1,3.87,3.87,0,0,1,1,2.75,6.92,6.92,0,0,1-.09,1.11l-.21.22Zm1.07-3.16a3.54,3.54,0,0,0-1,2l4.8-.08v-.31a2.45,2.45,0,0,0-.54-1.7,1.92,1.92,0,0,0-1.53-.6,2.54,2.54,0,0,0-1.73.69Z"/><path class="cls-2" d="M189.2,137.34V139l-.2.07a3.09,3.09,0,0,0-.8-.11,1.88,1.88,0,0,0-1.32.57,6.57,6.57,0,0,0-1.18,1.84v1.52l.11,4.37h-1.72l.11-4.22-.09-5.62,1.63-.15v2h.13a4.32,4.32,0,0,1,1.35-1.56,2.68,2.68,0,0,1,1.45-.46A4.51,4.51,0,0,1,189.2,137.34Z"/><path class="cls-2" d="M199.79,137.34V139l-.19.07a3.16,3.16,0,0,0-.81-.11,1.86,1.86,0,0,0-1.31.57,6.16,6.16,0,0,0-1.18,1.84v1.52l.1,4.37h-1.71l.11-4.22-.09-5.62,1.63-.15v2h.13a4.2,4.2,0,0,1,1.34-1.56,2.71,2.71,0,0,1,1.46-.46A4.34,4.34,0,0,1,199.79,137.34Z"/><path class="cls-2" d="M202.44,142.23h0a4.2,4.2,0,0,0,.83,2.8,2.9,2.9,0,0,0,2.34,1,4.61,4.61,0,0,0,1.52-.25,4.81,4.81,0,0,0,1.39-.71l.18.13-.26,1.48a7,7,0,0,1-3,.74,4.25,4.25,0,0,1-3.35-1.36,5.34,5.34,0,0,1-1.21-3.72,5.68,5.68,0,0,1,1.21-3.8,4.08,4.08,0,0,1,3.28-1.41,3.58,3.58,0,0,1,2.69,1,3.79,3.79,0,0,1,1,2.75A6.92,6.92,0,0,1,209,142l-.22.22Zm1.08-3.16a3.54,3.54,0,0,0-1,2l4.8-.08v-.31a2.49,2.49,0,0,0-.53-1.7,1.92,1.92,0,0,0-1.53-.6,2.5,2.5,0,0,0-1.74.69Z"/><path class="cls-2" d="M219.05,138.45a5.46,5.46,0,0,1,1,3.54,5.85,5.85,0,0,1-1.26,4,4.55,4.55,0,0,1-3.58,1.42,9.19,9.19,0,0,1-1.89-.2v4h-1.7l.11-8.23-.11-5.62,1.65-.15v1.41h.15a8.44,8.44,0,0,1,1.37-1,6,6,0,0,1,1.37-.52A3.42,3.42,0,0,1,219.05,138.45Zm-1.41,6.73a4.54,4.54,0,0,0,.78-2.84,5.09,5.09,0,0,0-.61-2.76,2,2,0,0,0-1.77-1,2.87,2.87,0,0,0-1.34.37,6.18,6.18,0,0,0-1.4,1.15v5.47a4.52,4.52,0,0,0,2.13.57A2.62,2.62,0,0,0,217.64,145.18Z"/><path class="cls-2" d="M229.57,138.46a5.53,5.53,0,0,1,1.12,3.7,5.87,5.87,0,0,1-1.17,3.9,4.14,4.14,0,0,1-3.35,1.38,3.94,3.94,0,0,1-3.15-1.31,5.56,5.56,0,0,1-1.12-3.71,5.81,5.81,0,0,1,1.18-3.9,4.23,4.23,0,0,1,3.36-1.37A3.85,3.85,0,0,1,229.57,138.46Zm-5.33.84a4.47,4.47,0,0,0-.71,2.73,5.68,5.68,0,0,0,.7,3.13,2.33,2.33,0,0,0,2,1,2.51,2.51,0,0,0,2.09-.91,4.42,4.42,0,0,0,.71-2.74,5.65,5.65,0,0,0-.7-3.12,2.3,2.3,0,0,0-2-1.07A2.47,2.47,0,0,0,224.24,139.3Z"/><path class="cls-2" d="M238.29,137.34V139l-.19.07a3.16,3.16,0,0,0-.81-.11,1.86,1.86,0,0,0-1.31.57,6.16,6.16,0,0,0-1.18,1.84v1.52l.1,4.37h-1.71l.11-4.22-.09-5.62,1.63-.15v2H235a4.2,4.2,0,0,1,1.34-1.56,2.71,2.71,0,0,1,1.46-.46A4.34,4.34,0,0,1,238.29,137.34Z"/><path class="cls-2" d="M244.87,145.51l.2.13-.18,1.13a6.6,6.6,0,0,1-2.17.63,2.94,2.94,0,0,1-1.78-.92,3,3,0,0,1-.54-1.95l.06-1.54v-4.5H239.1l-.09-.13.11-1h1.32v-1.61l1.5-.65.17.15v2.11h3l.09.13-.11,1h-2.93l-.11,5.89a1.73,1.73,0,0,0,.31,1.21,1.37,1.37,0,0,0,1.06.35A3.39,3.39,0,0,0,244.87,145.51Z"/><path class="cls-2" d="M247.59,142.23h0a4.21,4.21,0,0,0,.82,2.8,2.89,2.89,0,0,0,2.35,1,4.89,4.89,0,0,0,1.52-.25,4.81,4.81,0,0,0,1.39-.71l.17.13-.26,1.48a7,7,0,0,1-3,.74,4.21,4.21,0,0,1-3.34-1.36,5.3,5.3,0,0,1-1.22-3.72,5.57,5.57,0,0,1,1.22-3.8,4.08,4.08,0,0,1,3.28-1.41,3.62,3.62,0,0,1,2.69,1,3.79,3.79,0,0,1,1,2.75A7.13,7.13,0,0,1,254,142l-.22.22Zm1.07-3.16a3.54,3.54,0,0,0-1,2l4.79-.08v-.31A2.45,2.45,0,0,0,252,139a2,2,0,0,0-1.53-.6,2.52,2.52,0,0,0-1.81.67Z"/><path class="cls-2" d="M264.26,142.9l.07,2.24a1.21,1.21,0,0,0,.15.64.57.57,0,0,0,.48.18,2.35,2.35,0,0,0,.74-.13l.17.15-.17,1a2.81,2.81,0,0,1-1.22.44,1.65,1.65,0,0,1-1.05-.46,1.81,1.81,0,0,1-.47-1.06h-.15a13,13,0,0,1-1.17.9,6.68,6.68,0,0,1-1.2.59,4.15,4.15,0,0,1-3.3-1.31,5.51,5.51,0,0,1-1.15-3.75,5.4,5.4,0,0,1,1.28-3.81,4.66,4.66,0,0,1,3.54-1.35,8.8,8.8,0,0,1,1.91.21v-5.19l1.72-.15Zm-5.84-3.59a4.14,4.14,0,0,0-.8,2.72,4.84,4.84,0,0,0,.73,2.87,2.33,2.33,0,0,0,2,1,2.45,2.45,0,0,0,1.19-.31,4.45,4.45,0,0,0,1.2-1V143l-.07-4.12a4.83,4.83,0,0,0-2.11-.55A2.75,2.75,0,0,0,258.42,139.31Z"/><path class="cls-2" d="M276.34,145.51l.19.13-.17,1.13a6.85,6.85,0,0,1-2.17.63,2.86,2.86,0,0,1-1.78-.92,3,3,0,0,1-.55-1.95l.07-1.54v-4.5h-1.37l-.09-.13.11-1h1.32v-1.61l1.5-.65.18.15v2.11h3l.08.13-.1,1h-2.94l-.11,5.89a1.73,1.73,0,0,0,.31,1.21,1.41,1.41,0,0,0,1.06.35A3.43,3.43,0,0,0,276.34,145.51Z"/><path class="cls-2" d="M285.12,138.46a5.53,5.53,0,0,1,1.12,3.7,5.87,5.87,0,0,1-1.17,3.9,4.17,4.17,0,0,1-3.35,1.38,4,4,0,0,1-3.16-1.31,5.61,5.61,0,0,1-1.12-3.71,5.82,5.82,0,0,1,1.19-3.9,4.2,4.2,0,0,1,3.35-1.37A3.87,3.87,0,0,1,285.12,138.46Zm-5.33.84a4.41,4.41,0,0,0-.72,2.73,5.69,5.69,0,0,0,.71,3.13,2.32,2.32,0,0,0,2.05,1,2.48,2.48,0,0,0,2.08-.91,4.36,4.36,0,0,0,.72-2.74,5.65,5.65,0,0,0-.7-3.12,2.32,2.32,0,0,0-2.06-1.07A2.46,2.46,0,0,0,279.79,139.3Z"/><path class="cls-2" d="M34.11,166.57a1.93,1.93,0,0,0-.41-1.39,1.62,1.62,0,0,0-1.28-.5,4.3,4.3,0,0,0-2.89,1.5V169l.09,4.32H27.86l.13-6.75a2,2,0,0,0-.42-1.39,1.58,1.58,0,0,0-1.28-.5,4.46,4.46,0,0,0-2.95,1.54V169l.09,4.36H21.71l.11-4.21-.09-5.62,1.63-.16v1.46h.13a6.56,6.56,0,0,1,2.76-1.54,4.19,4.19,0,0,1,2,.42,2.32,2.32,0,0,1,1.1,1.23h.14a6.89,6.89,0,0,1,2.93-1.65,3.56,3.56,0,0,1,2.49.76,2.71,2.71,0,0,1,.83,2.17V169l.08,4.32H34Z"/><path class="cls-2" d="M44.55,163.9a2.36,2.36,0,0,1,.81,1.91c0,.25,0,1.14-.13,2.67s-.13,2.43-.13,2.69a1.12,1.12,0,0,0,.15.67.67.67,0,0,0,.52.18,2.35,2.35,0,0,0,.74-.13l.18.15-.18,1a3.06,3.06,0,0,1-1.24.43A1.67,1.67,0,0,1,44.2,173a1.62,1.62,0,0,1-.42-1.13h-.16a6.74,6.74,0,0,1-2.32,1.63,3.28,3.28,0,0,1-2.27-.73,2.56,2.56,0,0,1-.81-2,2.16,2.16,0,0,1,.51-1.52,2.86,2.86,0,0,1,1.51-.8l3.52-.83v-1.41a1.76,1.76,0,0,0-.45-1.3,1.7,1.7,0,0,0-1.27-.46,3.61,3.61,0,0,0-1.48.35A7.13,7.13,0,0,0,39,165.88l-.17-.08-.22-1.24a6.11,6.11,0,0,1,3.71-1.35A3.37,3.37,0,0,1,44.55,163.9Zm-4,5.58a1.37,1.37,0,0,0-.63.36,1.1,1.1,0,0,0-.19.68,1.49,1.49,0,0,0,.4,1.12,1.44,1.44,0,0,0,1.08.4,3.36,3.36,0,0,0,2.43-1.54l.06-1.78Z"/><path class="cls-2" d="M55.13,166.57a1.93,1.93,0,0,0-.41-1.39,1.62,1.62,0,0,0-1.28-.5,4.42,4.42,0,0,0-2.95,1.54V169l.08,4.36H48.86l.11-4.21-.09-5.62,1.63-.16v1.46h.13a6.56,6.56,0,0,1,2.76-1.54,3.63,3.63,0,0,1,2.48.76,2.66,2.66,0,0,1,.84,2.17l0,2.82.09,4.32H55Z"/><path class="cls-2" d="M65.57,163.9a2.36,2.36,0,0,1,.81,1.91c0,.25,0,1.14-.13,2.67s-.13,2.43-.13,2.69a1.12,1.12,0,0,0,.15.67.67.67,0,0,0,.52.18,2.35,2.35,0,0,0,.74-.13l.18.15-.18,1a3.06,3.06,0,0,1-1.24.43,1.67,1.67,0,0,1-1.07-.47,1.62,1.62,0,0,1-.42-1.13h-.16a6.74,6.74,0,0,1-2.32,1.63,3.28,3.28,0,0,1-2.27-.73,2.56,2.56,0,0,1-.81-2,2.16,2.16,0,0,1,.51-1.52,2.86,2.86,0,0,1,1.51-.8l3.52-.83v-1.41a1.76,1.76,0,0,0-.45-1.3,1.7,1.7,0,0,0-1.27-.46,3.57,3.57,0,0,0-1.47.35A6.87,6.87,0,0,0,60,165.88l-.18-.08-.21-1.24a6.11,6.11,0,0,1,3.71-1.35A3.37,3.37,0,0,1,65.57,163.9Zm-4,5.58a1.37,1.37,0,0,0-.64.36,1,1,0,0,0-.19.68,1.49,1.49,0,0,0,.4,1.12,1.44,1.44,0,0,0,1.08.4,3.36,3.36,0,0,0,2.43-1.54l.06-1.78Z"/><path class="cls-2" d="M76.89,164.68v.09a3.39,3.39,0,0,1,.47,1.84,3.21,3.21,0,0,1-1,2.52,4.16,4.16,0,0,1-2.85.94,5.11,5.11,0,0,1-1.35-.18,2.73,2.73,0,0,0-.5.46.61.61,0,0,0-.13.39c0,.3.19.52.57.64a12.78,12.78,0,0,0,1.84.38,18,18,0,0,1,2.07.39,3.56,3.56,0,0,1,1.38.71,1.63,1.63,0,0,1,.59,1.35,2.58,2.58,0,0,1-.62,1.68,4.27,4.27,0,0,1-1.69,1.19,6.33,6.33,0,0,1-2.36.43,4.15,4.15,0,0,1-2.7-.79,2.53,2.53,0,0,1-1-2.05,4.89,4.89,0,0,1,1.91-1.89v-.11a3.1,3.1,0,0,1-1.2-.64,1.46,1.46,0,0,1-.43-1.1,4.3,4.3,0,0,1,1.33-1.32v-.09a2.88,2.88,0,0,1-1-1.14,3.57,3.57,0,0,1-.36-1.64,3.24,3.24,0,0,1,1-2.55,4.14,4.14,0,0,1,2.81-.92,4.44,4.44,0,0,1,2,.39c1-.19,2-.43,3.15-.74l.17.13v1.17C78.44,164.35,77.77,164.51,76.89,164.68Zm-1.25,8.86a11,11,0,0,0-2.2-.5l-.7-.11a6,6,0,0,0-1.25,1,1.38,1.38,0,0,0-.42,1,1.25,1.25,0,0,0,.62,1,3.19,3.19,0,0,0,1.73.41,4,4,0,0,0,2.1-.51,1.48,1.48,0,0,0,.85-1.25A1,1,0,0,0,75.64,173.54Zm-.45-5.25a2.31,2.31,0,0,0,.59-1.7,2.13,2.13,0,0,0-.56-1.6,2.21,2.21,0,0,0-1.63-.57,2.33,2.33,0,0,0-1.69.59,2.19,2.19,0,0,0-.61,1.67,2.27,2.27,0,0,0,.57,1.63,2.2,2.2,0,0,0,1.64.58A2.29,2.29,0,0,0,75.19,168.29Z"/><path class="cls-2" d="M81.45,168.29h0a4.2,4.2,0,0,0,.83,2.8,2.9,2.9,0,0,0,2.34,1,4.89,4.89,0,0,0,1.52-.25,4.81,4.81,0,0,0,1.39-.71l.18.13-.26,1.48a7,7,0,0,1-3,.74,4.32,4.32,0,0,1-3.35-1.36,5.34,5.34,0,0,1-1.21-3.72,5.57,5.57,0,0,1,1.21-3.8,4.12,4.12,0,0,1,3.28-1.42,3.54,3.54,0,0,1,2.69,1,3.79,3.79,0,0,1,1,2.75A6.92,6.92,0,0,1,88,168l-.22.21Zm1.08-3.16a3.54,3.54,0,0,0-1,2l4.8-.08v-.31a2.49,2.49,0,0,0-.53-1.7,1.92,1.92,0,0,0-1.53-.6,2.5,2.5,0,0,0-1.74.69Z"/><path class="cls-2" d="M103.12,166.57a1.93,1.93,0,0,0-.41-1.39,1.62,1.62,0,0,0-1.28-.5,4.3,4.3,0,0,0-2.89,1.5V169l.08,4.32H96.87l.12-6.75a1.93,1.93,0,0,0-.41-1.39,1.62,1.62,0,0,0-1.28-.5,4.42,4.42,0,0,0-3,1.54V169l.09,4.36H90.72l.11-4.21-.09-5.62,1.63-.16v1.46h.13a6.56,6.56,0,0,1,2.76-1.54,4.19,4.19,0,0,1,2,.42,2.32,2.32,0,0,1,1.1,1.23h.13a7,7,0,0,1,2.94-1.65,3.56,3.56,0,0,1,2.49.76,2.71,2.71,0,0,1,.83,2.17V169l.09,4.32H103Z"/><path class="cls-2" d="M108.83,168.29h0a4.2,4.2,0,0,0,.83,2.8,2.9,2.9,0,0,0,2.34,1,5,5,0,0,0,1.53-.25,4.88,4.88,0,0,0,1.38-.71l.18.13-.26,1.48a7,7,0,0,1-3,.74,4.32,4.32,0,0,1-3.35-1.36,5.34,5.34,0,0,1-1.21-3.72,5.57,5.57,0,0,1,1.21-3.8,4.12,4.12,0,0,1,3.28-1.42,3.54,3.54,0,0,1,2.69,1,3.79,3.79,0,0,1,1,2.75,6.92,6.92,0,0,1-.09,1.11l-.21.21Zm1.08-3.16a3.54,3.54,0,0,0-1,2l4.8-.08.05-.31a2.45,2.45,0,0,0-.54-1.7,1.92,1.92,0,0,0-1.53-.6,2.51,2.51,0,0,0-1.78.69Z"/><path class="cls-2" d="M124.34,166.57a2,2,0,0,0-.41-1.39,1.64,1.64,0,0,0-1.29-.5,4.46,4.46,0,0,0-3,1.54V169l.09,4.36h-1.72l.11-4.21-.09-5.62,1.63-.16v1.46h.13a6.56,6.56,0,0,1,2.76-1.54,3.66,3.66,0,0,1,2.49.76,2.68,2.68,0,0,1,.83,2.17V169l.09,4.32h-1.74Z"/><path class="cls-2" d="M134,171.56l.19.13-.17,1.13a6.31,6.31,0,0,1-2.17.63,2.87,2.87,0,0,1-1.78-.91,3.09,3.09,0,0,1-.55-1.95l.07-1.54v-4.5h-1.37l-.09-.13.11-1h1.33v-1.61l1.49-.65.18.15v2.11h3l.08.13-.11,1h-2.93l-.1,5.89a1.68,1.68,0,0,0,.3,1.21,1.41,1.41,0,0,0,1.06.35A3.59,3.59,0,0,0,134,171.56Z"/><circle class="cls-3" cx="44.78" cy="50.98" r="24.85"/><circle class="cls-4" cx="107.68" cy="50.98" r="24.85" transform="translate(36.83 146.77) rotate(-78.85)"/><circle class="cls-4" cx="170.58" cy="50.98" r="24.85"/></g></g></svg>