<svg id="Layer_1" data-name="Layer 1" xmlns="http://www.w3.org/2000/svg" viewBox="0 0 377 188.21"><defs><style>.cls-1,.cls-3{fill:#e73d11;}.cls-2{fill:#bbbdbf;}.cls-3,.cls-4,.cls-5,.cls-6,.cls-7,.cls-8,.cls-9{isolation:isolate;}.cls-3{font-size:93.69px;font-family:BebasNeue, Bebas Neue;}.cls-5,.cls-6,.cls-7,.cls-8,.cls-9{font-size:21.72px;fill:#231f20;font-family:AlegreyaSans-Regular, Alegreya Sans;}.cls-5{letter-spacing:-0.01em;}.cls-10,.cls-6{letter-spacing:-0.01em;}.cls-8{letter-spacing:-0.02em;}.cls-9{letter-spacing:-0.02em;}</style></defs><g id="Layer_2" data-name="Layer 2"><g id="Layer_1-2" data-name="Layer 1-2"><path class="cls-1" d="M129.11,165.38c-.31-11.52-5.32-20.49-14.9-26.94-6.46-4.34-13.81-5.09-21.26-5.34-1.71,0-2.57,1.22-2.85,2.81-.39,2.34-.74,4.68-1.1,7C87,156,85.06,169,83,182c-.34,2.13-.1,3.8,1.61,5.15H127a4.32,4.32,0,0,0,2.2-4.25C129.08,177.07,129.26,171.22,129.11,165.38Z"/><path class="cls-2" d="M46.5,171.57q-2.74-17.83-5.5-35.66a3.09,3.09,0,0,0-3.3-2.86,1.33,1.33,0,0,0-.28,0c-1.27.08-2.54.33-3.81.36A32.17,32.17,0,0,0,2,165.38c0,5.85,0,11.69,0,17.53a4.29,4.29,0,0,0,2.2,4.25H46.6c1.68-1.36,2-3,1.59-5.15C47.42,178.56,47,175.05,46.5,171.57Z"/><path class="cls-2" d="M49.44,150a9.11,9.11,0,0,0,.13,1.27c1.66,10.67,3.36,21.34,5,32a5,5,0,0,0,2.24,3.91H65v-39a38.12,38.12,0,0,1-11.17-1.77C51.05,145.51,49.24,147.1,49.44,150Z"/><path class="cls-1" d="M74.34,187.16a5,5,0,0,0,2.24-3.92c.7-5.11,1.57-10.19,2.36-15.29.92-6,1.89-12,2.69-18,.37-2.83-1.6-4.44-4.32-3.59a38.22,38.22,0,0,1-11.58,1.76v39Z"/><path class="cls-1" d="M95.71,40.1a19.9,19.9,0,0,0,12.1,11.34c4,1.42,6,4.62,6,8.89,0,7.43.08,14.86,0,22.29a47,47,0,0,1-9,27.26,48.92,48.92,0,0,1-11,11.06c-1.77,1.31-2.26,3.46-.85,4.67a6.51,6.51,0,0,0,3.71,1.54,40.53,40.53,0,0,1,20,5.52c2,1.2,3.37.94,4.79-.89a43.89,43.89,0,0,0,9-35.32A46.1,46.1,0,0,0,123,78.55a28.26,28.26,0,0,1-4.85-12.65c-.51-5.25-.51-10.55-.74-15.83-.23-5.1,0-10.27-.78-15.28C113.7,15.33,95.9.19,76.22.09c-3.49,0-7-.08-10.49-.09V45.93a78.08,78.08,0,0,0,16-9.16C86.67,33.09,93.25,34.58,95.71,40.1Z"/><path class="cls-2" d="M55.91.16A54.44,54.44,0,0,0,43.35,2C27.56,6.51,15.44,21.12,14.06,37.37a183.52,183.52,0,0,0-.35,19.34A41.75,41.75,0,0,1,6.82,80.65a44.11,44.11,0,0,0,2.45,50.61c1.92,2.48,2.91,2.61,5.75,1.13a62.44,62.44,0,0,1,6.62-3A38.44,38.44,0,0,1,34.7,127.2c1.79,0,3.45-.64,4-2.52s-.37-3.15-1.92-4.1c-.31-.2-.58-.44-.87-.67C26.14,112.15,19.84,102.21,18,89.8c-.82-5.8-.72-11.8-1-17.64h.31V61c0-6.89,4.61-11,11.47-10.08a70.13,70.13,0,0,0,29.4-2.52A66.05,66.05,0,0,0,65,45.93V0C61.94,0,58.92,0,55.91.16Z"/><path class="cls-1" d="M71.9,123.23c17.37-2.33,31.95-16.06,34.9-33.39.94-5.54.81-11.25,1.17-16.89h-.33V61.24c0-3-.35-3.45-3.2-4.51A23.64,23.64,0,0,1,91.24,45c-2.58-5-3.31-5.16-7.83-1.92a77.61,77.61,0,0,1-17.68,9.48v71A45.48,45.48,0,0,0,71.9,123.23Z"/><path class="cls-2" d="M48.65,56.8a85.33,85.33,0,0,1-20.39.33c-3.92-.38-4.8.52-4.8,4.4,0,6.51-.05,13,0,19.54A48.72,48.72,0,0,0,24,88.89a41.55,41.55,0,0,0,41,34.69v-71A76.92,76.92,0,0,1,48.65,56.8Z"/><path class="cls-2" d="M51.2,127.81c-3-.88-5,.89-4.49,3.94a8.9,8.9,0,0,0,.35,2.51,7.52,7.52,0,0,0,2.13,3.14,27.43,27.43,0,0,0,14.38,4.54H65v-12.1A43.64,43.64,0,0,1,51.2,127.81Z"/><path class="cls-1" d="M84.42,132.06c.14-3.5-1.34-4.94-4.76-4.23a106.91,106.91,0,0,1-12.57,1.94l-1.36.07v12.07A34,34,0,0,0,79.28,139C82.39,137.59,84.27,135.75,84.42,132.06Z"/><text class="cls-3" transform="translate(136.69 85.52)">1 In 2</text><g class="cls-4"><text class="cls-5" transform="translate(150.44 122.6)">w</text><text class="cls-6" transform="translate(164.77 122.6)">o</text><text class="cls-7" transform="translate(175.22 122.6)">men h</text><text class="cls-5" transform="translate(228.68 122.6)">a</text><text class="cls-6" transform="translate(238.43 122.6)">v</text><text class="cls-7" transform="translate(247.31 122.6)">e </text><text class="cls-5" transform="translate(260.9 122.6)">f</text><text class="cls-7" transform="translate(267.27 122.6)">a</text><text class="cls-7" transform="translate(277.28 122.6)">ced </text><text class="cls-6" transform="translate(310.48 122.6)">v</text><text class="cls-7" transform="translate(319.36 122.6)">e</text><text class="cls-7" transform="translate(329.37 122.6)">r</text><text class="cls-7" transform="translate(336.41 122.6)">bal </text><text class="cls-6" transform="translate(150.44 148.66)">o</text><text class="cls-7" transform="translate(160.89 148.66)">r p</text><text class="cls-8" transform="translate(182.53 148.66)">h</text><text class="cls-7" transform="translate(193.41 148.66)">ysi</text><text class="cls-6" transform="translate(215.98 148.66)">c</text><text class="cls-7" transform="translate(224.12 148.66)">al sexual </text><text class="cls-7" transform="translate(150.44 174.72)">h</text><text class="cls-9" transform="translate(161.73 174.72)">a<tspan class="cls-10" x="9.62" y="0">r</tspan></text><text class="cls-7" transform="translate(178.34 174.72)">assment at </text><text class="cls-5" transform="translate(274.08 174.72)">w</text><text class="cls-6" transform="translate(288.42 174.72)">o</text><text class="cls-7" transform="translate(298.86 174.72)">r</text><text class="cls-7" transform="translate(305.9 174.72)">k.</text></g></g></g></svg>