<svg xmlns="http://www.w3.org/2000/svg" xmlns:xlink="http://www.w3.org/1999/xlink" viewBox="0 0 789.29 350.28"><defs><style>.cls-1{fill:#e6e7e8;}.cls-2,.cls-3,.cls-4{stroke:#fff;stroke-miterlimit:10;}.cls-2{fill:url(#linear-gradient);}.cls-3{fill:url(#linear-gradient-2);}.cls-4{fill:url(#linear-gradient-3);}.cls-5{fill:#a6a8ab;}.cls-6{font-size:26.73px;}.cls-21,.cls-6{fill:#fff;}.cls-24,.cls-25,.cls-32,.cls-33,.cls-6{font-family:BebasNeue, Bebas Neue;}.cls-7{font-size:18.13px;fill:#231f20;font-family:AlegreyaSans-Regular, Alegreya Sans;}.cls-8{letter-spacing:-0.02em;}.cls-9{letter-spacing:-0.01em;}.cls-10{letter-spacing:-0.01em;}.cls-11{letter-spacing:-0.01em;}.cls-12{letter-spacing:0em;}.cls-13{letter-spacing:-0.01em;}.cls-14{letter-spacing:0em;}.cls-15{letter-spacing:0em;}.cls-16{letter-spacing:-0.01em;}.cls-17{letter-spacing:-0.03em;}.cls-18{letter-spacing:-0.02em;}.cls-19{letter-spacing:-0.02em;}.cls-20{fill:url(#linear-gradient-4);}.cls-22{fill:url(#linear-gradient-5);}.cls-23{fill:url(#linear-gradient-6);}.cls-24,.cls-25,.cls-32,.cls-33{font-size:34.15px;}.cls-24{fill:#4963ac;}.cls-25{fill:#2eb5c3;}.cls-26{letter-spacing:-0.01em;}.cls-27{letter-spacing:-0.01em;}.cls-28{letter-spacing:0em;}.cls-29{letter-spacing:-0.01em;}.cls-30{letter-spacing:-0.03em;}.cls-31{letter-spacing:0em;}.cls-32{fill:#e73d11;}.cls-33{fill:#ffb000;}</style><linearGradient id="linear-gradient" x1="500.02" y1="105.91" x2="714.49" y2="105.91" gradientUnits="userSpaceOnUse"><stop offset="0.37" stop-color="#ffb000"/><stop offset="0.45" stop-color="#fda402"/><stop offset="0.6" stop-color="#f68406"/><stop offset="0.79" stop-color="#eb510e"/><stop offset="0.86" stop-color="#e73d11"/></linearGradient><linearGradient id="linear-gradient-2" x1="500.02" y1="156.7" x2="584.68" y2="156.7" xlink:href="#linear-gradient"/><linearGradient id="linear-gradient-3" x1="500.02" y1="211.3" x2="703.2" y2="211.3" xlink:href="#linear-gradient"/><linearGradient id="linear-gradient-4" x1="98.04" y1="106.77" x2="310.73" y2="106.77" gradientUnits="userSpaceOnUse"><stop offset="0" stop-color="#2eb5c3"/><stop offset="1" stop-color="#283273"/></linearGradient><linearGradient id="linear-gradient-5" x1="98.04" y1="159.62" x2="189.76" y2="159.62" xlink:href="#linear-gradient-4"/><linearGradient id="linear-gradient-6" x1="98.04" y1="212.46" x2="288.05" y2="212.46" xlink:href="#linear-gradient-4"/></defs><g id="Layer_2" data-name="Layer 2"><g id="Layer_1-2" data-name="Layer 1"><path class="cls-1" d="M399.92,38.2H789.29a0,0,0,0,1,0,0V341.6a8.68,8.68,0,0,1-8.68,8.68h-372a8.68,8.68,0,0,1-8.68-8.68V38.2A0,0,0,0,1,399.92,38.2Z"/><rect class="cls-2" x="500.02" y="86.25" width="214.47" height="39.32"/><rect class="cls-3" x="500.02" y="137.04" width="84.66" height="39.32"/><rect class="cls-4" x="500.02" y="191.65" width="203.18" height="39.32"/><path class="cls-1" d="M0,38.2H389.37a0,0,0,0,1,0,0V341.6a8.68,8.68,0,0,1-8.68,8.68H8.68A8.68,8.68,0,0,1,0,341.6V38.2A0,0,0,0,1,0,38.2Z"/><rect class="cls-5" width="389.37" height="46.95" rx="9.23"/><text class="cls-6" transform="translate(65.83 31.02)">verbal sexual harassment</text><text class="cls-7" transform="translate(17.15 272.46)"><tspan class="cls-8">S</tspan><tspan class="cls-9" x="8.2" y="0">o</tspan><tspan x="16.92" y="0">me 56% </tspan><tspan class="cls-8" x="76.82" y="0">o</tspan><tspan x="85.36" y="0">f </tspan><tspan class="cls-10" x="93.85" y="0">w</tspan><tspan class="cls-11" x="105.81" y="0">o</tspan><tspan x="114.54" y="0">men </tspan><tspan class="cls-11" x="149.75" y="0">f</tspan><tspan class="cls-12" x="155.07" y="0">a</tspan><tspan x="163.43" y="0">ced </tspan><tspan class="cls-13" x="191.16" y="0">v</tspan><tspan x="198.57" y="0">e</tspan><tspan class="cls-14" x="206.93" y="0">r</tspan><tspan x="212.81" y="0">bal sexual </tspan><tspan x="0" y="21.76">h</tspan><tspan class="cls-11" x="9.43" y="21.76">ar</tspan><tspan x="23.3" y="21.76">assment at </tspan><tspan class="cls-10" x="103.26" y="21.76">w</tspan><tspan class="cls-11" x="115.23" y="21.76">o</tspan><tspan class="cls-15" x="123.95" y="21.76">r</tspan><tspan x="129.82" y="21.76">k, a</tspan><tspan class="cls-16" x="153.62" y="21.76">g</tspan><tspan x="162.21" y="21.76">ainst 24% </tspan><tspan class="cls-8" x="234.73" y="21.76">o</tspan><tspan x="243.27" y="21.76">f men </tspan><tspan class="cls-11" x="286.98" y="21.76">a</tspan><tspan x="295.17" y="21.76">nd 50% </tspan><tspan class="cls-8" x="0" y="43.52">o</tspan><tspan x="8.54" y="43.52">f gende</tspan><tspan class="cls-17" x="61.33" y="43.52">r</tspan><tspan x="66.57" y="43.52">-n</tspan><tspan class="cls-11" x="81.5" y="43.52">o</tspan><tspan x="90.22" y="43.52">nc</tspan><tspan class="cls-11" x="106.56" y="43.52">on</tspan><tspan class="cls-18" x="124.46" y="43.52">f</tspan><tspan class="cls-11" x="129.63" y="43.52">o</tspan><tspan x="138.35" y="43.52">rming ind</tspan><tspan class="cls-12" x="207.42" y="43.52">i</tspan><tspan x="211.79" y="43.52">vidual</tspan><tspan class="cls-19" x="255.35" y="43.52">s</tspan><tspan x="261.77" y="43.52">. </tspan></text><rect class="cls-20" x="98.04" y="87.24" width="212.69" height="39.05"/><path class="cls-21" d="M310.23,87.74v38.05H98.54V87.74H310.23m1-1H97.54v40.05H311.23V86.74Z"/><rect class="cls-22" x="98.04" y="140.09" width="91.73" height="39.05"/><path class="cls-21" d="M189.26,140.59v38H98.54v-38h90.72m1-1H97.54v40h92.72v-40Z"/><rect class="cls-23" x="98.04" y="192.94" width="190.01" height="39.05"/><path class="cls-21" d="M287.55,193.44v38.05h-189V193.44h189m1-1h-191v40.05h191V192.44Z"/><text class="cls-24" transform="translate(319.98 119.61)">56%</text><text class="cls-24" transform="translate(200.57 171.39)">24%</text><text class="cls-24" transform="translate(289.5 223.77)">50%</text><text class="cls-25" transform="translate(8.1 119.61)">women</text><text class="cls-25" transform="translate(40.78 171.39)">men</text><text class="cls-25" transform="translate(45.12 228.04)">gnc</text><rect class="cls-5" x="399.92" width="389.37" height="46.95" rx="9.23"/><text class="cls-6" transform="translate(458.2 31.02)">PH<tspan class="cls-26" x="21.49" y="0">Y</tspan><tspan x="31.88" y="0">SICAL sexual harassment</tspan></text><text class="cls-7" transform="translate(417.08 272.46)">38% <tspan class="cls-8" x="34" y="0">o</tspan><tspan x="42.54" y="0">f </tspan><tspan class="cls-10" x="51.03" y="0">w</tspan><tspan class="cls-9" x="63" y="0">o</tspan><tspan x="71.72" y="0">men </tspan><tspan class="cls-27" x="106.94" y="0">f</tspan><tspan class="cls-28" x="112.25" y="0">a</tspan><tspan x="120.61" y="0">ced sexual h</tspan><tspan class="cls-27" x="205.83" y="0">ar</tspan><tspan x="219.7" y="0">assment at </tspan><tspan class="cls-10" x="299.66" y="0">w</tspan><tspan class="cls-27" x="311.63" y="0">o</tspan><tspan class="cls-14" x="320.35" y="0">r</tspan><tspan x="326.23" y="0">k, </tspan><tspan x="0" y="21.76">a</tspan><tspan class="cls-29" x="8.38" y="21.76">g</tspan><tspan x="16.97" y="21.76">ainst 15% </tspan><tspan class="cls-8" x="86.34" y="21.76">o</tspan><tspan x="94.88" y="21.76">f men </tspan><tspan class="cls-9" x="138.59" y="21.76">a</tspan><tspan x="146.78" y="21.76">nd 36% </tspan><tspan class="cls-8" x="202.46" y="21.76">o</tspan><tspan x="211" y="21.76">f </tspan><tspan x="0" y="43.52">gende</tspan><tspan class="cls-30" x="44.3" y="43.52">r</tspan><tspan x="49.54" y="43.52">-n</tspan><tspan class="cls-9" x="64.47" y="43.52">o</tspan><tspan x="73.19" y="43.52">nc</tspan><tspan class="cls-9" x="89.53" y="43.52">on</tspan><tspan class="cls-18" x="107.43" y="43.52">f</tspan><tspan class="cls-9" x="112.6" y="43.52">o</tspan><tspan x="121.32" y="43.52">rming ind</tspan><tspan class="cls-31" x="190.4" y="43.52">i</tspan><tspan x="194.77" y="43.52">vidual</tspan><tspan class="cls-19" x="238.33" y="43.52">s</tspan><tspan x="244.75" y="43.52">.</tspan></text><text class="cls-32" transform="translate(719.9 119.61)">38%</text><text class="cls-32" transform="translate(588.61 171.39)">15%</text><text class="cls-32" transform="translate(714.49 223.77)">36%</text><text class="cls-33" transform="translate(408.03 119.61)">women</text><text class="cls-33" transform="translate(440.71 171.39)">men</text><text class="cls-33" transform="translate(445.04 228.04)">gnc</text></g></g></svg>