<svg xmlns="http://www.w3.org/2000/svg" xmlns:xlink="http://www.w3.org/1999/xlink" viewBox="0 0 523.28 191.18"><defs><style>.cls-1{fill:#f1f2f2;}.cls-2{fill:#939598;}.cls-14,.cls-3,.cls-4,.cls-5,.cls-8,.cls-9{isolation:isolate;}.cls-4,.cls-5{font-size:20.74px;}.cls-4,.cls-5,.cls-7{fill:#fff;}.cls-14,.cls-4,.cls-5,.cls-8,.cls-9{font-family:BebasNeue, Bebas Neue;}.cls-5{letter-spacing:-0.04em;}.cls-6{fill:url(#linear-gradient);}.cls-14,.cls-8{font-size:16.24px;fill:#2eb5c3;}.cls-9{font-size:19.96px;fill:#2667ff;}.cls-10{fill:url(#linear-gradient-2);}.cls-11{fill:url(#linear-gradient-3);}.cls-12{fill:url(#linear-gradient-4);}.cls-13{fill:url(#linear-gradient-5);}.cls-14{letter-spacing:-0.02em;}</style><linearGradient id="linear-gradient" x1="135.85" y1="-3000.55" x2="167.17" y2="-3000.55" gradientTransform="matrix(1, 0, 0, -1, 0, -2828.68)" gradientUnits="userSpaceOnUse"><stop offset="0" stop-color="#2eb5c3"/><stop offset="1" stop-color="#0c3280"/></linearGradient><linearGradient id="linear-gradient-2" x1="135.85" y1="-2972.37" x2="287.58" y2="-2972.37" xlink:href="#linear-gradient"/><linearGradient id="linear-gradient-3" x1="135.85" y1="-2944.18" x2="305.77" y2="-2944.18" xlink:href="#linear-gradient"/><linearGradient id="linear-gradient-4" x1="135.85" y1="-2915.99" x2="327.43" y2="-2915.99" xlink:href="#linear-gradient"/><linearGradient id="linear-gradient-5" x1="135.85" y1="-2887.8" x2="466.03" y2="-2887.8" xlink:href="#linear-gradient"/></defs><g id="Layer_2" data-name="Layer 2"><g id="Layer_1-2" data-name="Layer 1"><path class="cls-1" d="M0,27.83H523.28v154a9.35,9.35,0,0,1-9.35,9.35H9.35A9.35,9.35,0,0,1,0,181.83v-154H0Z"/><rect class="cls-2" width="523.28" height="36.21" rx="9.23"/><g class="cls-3"><text class="cls-4" transform="translate(200.96 25.1)">the perpetr</text><text class="cls-5" transform="translate(282.99 25.1)">a</text><text class="cls-4" transform="translate(290.64 25.1)">tors</text></g><rect class="cls-6" x="135.85" y="158.7" width="31.32" height="26.34"/><path class="cls-7" d="M166.67,159.2v25.35H136.35V159.2h30.32m1-1H135.35v27.35h32.32Z"/><text class="cls-8" transform="translate(99.28 177.97)">Other</text><text class="cls-9" transform="translate(177.34 177.97)">3.5%</text><rect class="cls-10" x="135.85" y="130.52" width="151.73" height="26.34"/><path class="cls-7" d="M287.08,131v25.32H136.35V131H287.08m1-1H135.35v27.32H288.08Z"/><text class="cls-8" transform="translate(62.54 149.78)">News Source</text><text class="cls-9" transform="translate(293.09 149.78)">17%</text><rect class="cls-11" x="135.85" y="102.33" width="169.92" height="26.34"/><path class="cls-7" d="M305.28,102.83v25.34H136.35V102.83H305.28m1-1H135.35v27.34H306.28Z"/><g class="cls-3"><text class="cls-8" transform="translate(23.9 121.59)">Higher Man</text><text class="cls-8" transform="translate(84.55 121.59)">a</text><text class="cls-8" transform="translate(91.14 121.59)">gement</text></g><text class="cls-9" transform="translate(311.32 121.59)">20%</text><rect class="cls-12" x="135.85" y="74.14" width="191.58" height="26.34"/><path class="cls-7" d="M326.93,74.64V100H136.35V74.64H326.93m1-1H135.35V101H327.93Z"/><g class="cls-3"><text class="cls-8" transform="translate(34.36 93.4)">Direct Supe</text><text class="cls-8" transform="translate(95.79 93.4)">r</text><text class="cls-8" transform="translate(102.28 93.4)">visor</text></g><text class="cls-9" transform="translate(335.89 93.4)">22%</text><rect class="cls-13" x="135.85" y="45.95" width="330.18" height="26.34"/><path class="cls-7" d="M465.53,46.45V71.79H136.35V46.45H465.53m1-1H135.35V72.79H466.53Z"/><g class="cls-3"><text class="cls-8" transform="translate(39.3 65.21)">Fellow Empl</text><text class="cls-14" transform="translate(106.36 65.21)">o</text><text class="cls-8" transform="translate(112.55 65.21)">yee</text></g><text class="cls-9" transform="translate(470.99 65.21)">38%</text></g></g></svg>