<svg xmlns="http://www.w3.org/2000/svg" viewBox="0 0 736.94 188.21"><defs><style>.cls-1,.cls-3{fill:#e73d11;}.cls-2{fill:#bbbdbf;}.cls-3{font-size:93.69px;font-family:BebasNeue, Bebas Neue;}.cls-4{font-size:21.72px;font-family:AlegreyaSans-Regular, Alegreya Sans;}.cls-14,.cls-4{fill:#231f20;}.cls-5{letter-spacing:-0.01em;}.cls-6{letter-spacing:-0.01em;}.cls-7{letter-spacing:-0.01em;}.cls-8{letter-spacing:-0.01em;}.cls-9{letter-spacing:0em;}.cls-10{letter-spacing:0em;}.cls-11{letter-spacing:0em;}.cls-12{letter-spacing:-0.02em;}.cls-13{letter-spacing:-0.01em;}</style></defs><g id="Layer_2" data-name="Layer 2"><g id="Layer_1-2" data-name="Layer 1"><path class="cls-1" d="M129.11,165.38c-.31-11.52-5.32-20.49-14.9-26.94-6.46-4.34-13.81-5.09-21.26-5.34-1.71,0-2.57,1.22-2.85,2.81-.39,2.34-.74,4.68-1.1,7C87,156,85.06,169,83,182c-.34,2.13-.1,3.8,1.61,5.15H127a4.31,4.31,0,0,0,2.2-4.25C129.08,177.07,129.26,171.22,129.11,165.38Z"/><path class="cls-2" d="M46.5,171.57Q43.76,153.74,41,135.91a3.09,3.09,0,0,0-3.58-2.83c-1.27.08-2.54.33-3.81.36A32.17,32.17,0,0,0,2,165.38c0,5.85.05,11.69,0,17.53a4.29,4.29,0,0,0,2.2,4.25h42.4c1.68-1.36,2-3,1.59-5.15C47.42,178.56,47,175.05,46.5,171.57Z"/><path class="cls-2" d="M49.44,150c0,.42.07.85.13,1.27,1.66,10.67,3.36,21.34,5,32a5,5,0,0,0,2.24,3.91H65v-39a38.12,38.12,0,0,1-11.17-1.77C51.05,145.51,49.24,147.1,49.44,150Z"/><path class="cls-1" d="M74.34,187.16a5,5,0,0,0,2.24-3.92c.7-5.11,1.57-10.19,2.36-15.29.92-6,1.89-12,2.69-18,.37-2.83-1.6-4.44-4.32-3.59a38.18,38.18,0,0,1-11.58,1.76v39Z"/><path class="cls-1" d="M95.71,40.1a19.87,19.87,0,0,0,12.1,11.34c4,1.42,6,4.62,6,8.89,0,7.43.08,14.86,0,22.29a46.94,46.94,0,0,1-9,27.26,48.93,48.93,0,0,1-11,11.06c-1.77,1.31-2.26,3.46-.85,4.67a6.49,6.49,0,0,0,3.71,1.54,40.53,40.53,0,0,1,20,5.52c2,1.2,3.37.94,4.79-.89a43.87,43.87,0,0,0,9-35.32A46.14,46.14,0,0,0,123,78.55a28.3,28.3,0,0,1-4.85-12.65c-.51-5.25-.51-10.55-.74-15.83-.23-5.1,0-10.27-.78-15.28C113.7,15.33,95.9.19,76.22.09c-3.49,0-7-.08-10.49-.09V45.93a78.25,78.25,0,0,0,16-9.16C86.67,33.09,93.25,34.58,95.71,40.1Z"/><path class="cls-2" d="M55.91.16A54.68,54.68,0,0,0,43.35,2C27.56,6.51,15.44,21.12,14.06,37.37a183.42,183.42,0,0,0-.35,19.34A41.76,41.76,0,0,1,6.82,80.65a44.12,44.12,0,0,0,2.45,50.61c1.92,2.48,2.91,2.61,5.75,1.13a62.52,62.52,0,0,1,6.62-3,38.64,38.64,0,0,1,13.06-2.19c1.79,0,3.45-.64,4-2.52s-.37-3.15-1.92-4.1c-.31-.2-.58-.44-.87-.67C26.14,112.15,19.84,102.21,18,89.8,17.18,84,17.28,78,17,72.16l.31,0V61c0-6.89,4.61-11,11.47-10.08a70.14,70.14,0,0,0,29.4-2.52A65,65,0,0,0,65,45.93V0C61.94,0,58.92,0,55.91.16Z"/><path class="cls-1" d="M71.9,123.23c17.37-2.33,31.95-16.06,34.9-33.39.94-5.54.81-11.25,1.17-16.89l-.33,0V61.24c0-3-.35-3.45-3.2-4.51A23.68,23.68,0,0,1,91.24,45c-2.58-5-3.31-5.16-7.83-1.92a77.44,77.44,0,0,1-17.68,9.48v71A44.54,44.54,0,0,0,71.9,123.23Z"/><path class="cls-2" d="M48.65,56.8a85.33,85.33,0,0,1-20.39.33c-3.92-.38-4.8.52-4.8,4.4,0,6.51-.05,13,0,19.54A48.56,48.56,0,0,0,24,88.89,41.56,41.56,0,0,0,65,123.58v-71A76.83,76.83,0,0,1,48.65,56.8Z"/><path class="cls-2" d="M51.2,127.81c-3-.88-5,.89-4.49,3.94a8.85,8.85,0,0,0,.35,2.51,7.46,7.46,0,0,0,2.13,3.14,27.47,27.47,0,0,0,14.38,4.54c.48,0,.93,0,1.38,0V129.84A43.61,43.61,0,0,1,51.2,127.81Z"/><path class="cls-1" d="M84.42,132.06c.14-3.5-1.34-4.94-4.76-4.23a106.91,106.91,0,0,1-12.57,1.94l-1.36.07v12.07A33.91,33.91,0,0,0,79.28,139C82.39,137.59,84.27,135.75,84.42,132.06Z"/><text class="cls-3" transform="translate(136.69 85.52)">1 In 2</text><text class="cls-3" transform="translate(604 84.04)">30%</text><text class="cls-4" transform="translate(150.44 122.6)"><tspan class="cls-5">w</tspan><tspan class="cls-6" x="14.33" y="0">o</tspan><tspan x="24.78" y="0">men h</tspan><tspan class="cls-7" x="78.24" y="0">a</tspan><tspan class="cls-5" x="87.99" y="0">v</tspan><tspan x="96.87" y="0">e </tspan><tspan class="cls-8" x="110.46" y="0">f</tspan><tspan class="cls-9" x="116.83" y="0">a</tspan><tspan class="cls-10" x="126.84" y="0">ced </tspan><tspan class="cls-5" x="160.04" y="0">v</tspan><tspan x="168.92" y="0">e</tspan><tspan class="cls-11" x="178.93" y="0">r</tspan><tspan x="185.97" y="0">bal </tspan><tspan class="cls-8" x="0" y="26.06">o</tspan><tspan x="10.45" y="26.06">r p</tspan><tspan class="cls-12" x="32.09" y="26.06">h</tspan><tspan x="42.97" y="26.06">ysi</tspan><tspan class="cls-6" x="65.54" y="26.06">c</tspan><tspan x="73.68" y="26.06">al sexual </tspan><tspan x="0" y="52.12">h</tspan><tspan class="cls-8" x="11.29" y="52.12">ar</tspan><tspan x="27.9" y="52.12">assment at </tspan><tspan class="cls-13" x="123.64" y="52.12">w</tspan><tspan class="cls-8" x="137.98" y="52.12">o</tspan><tspan class="cls-11" x="148.42" y="52.12">r</tspan><tspan x="155.46" y="52.12">k. </tspan></text><path class="cls-14" d="M421.9,114.37l0,1.56a5.36,5.36,0,0,1-1.35,4,5.27,5.27,0,0,1-3.95,1.43,5,5,0,0,1-3.77-1.37,5.23,5.23,0,0,1-1.27-3.86l0-1.89,0-6.95h1.72l-.07,8.62a4.24,4.24,0,0,0,.87,2.94,3.38,3.38,0,0,0,2.65,1,3.55,3.55,0,0,0,2.67-.94,3.74,3.74,0,0,0,.89-2.77l-.09-8.84h1.74Z"/><path class="cls-14" d="M431.11,114.45a2,2,0,0,0-.42-1.39,1.61,1.61,0,0,0-1.28-.5,4.48,4.48,0,0,0-3,1.55v2.73l.09,4.37h-1.72l.11-4.22-.09-5.62,1.63-.15v1.45h.13a6.62,6.62,0,0,1,2.76-1.54,3.65,3.65,0,0,1,2.49.76,2.68,2.68,0,0,1,.83,2.17l0,2.83.09,4.32H431Z"/><path class="cls-14" d="M443.48,116.84l.07,2.24a1.3,1.3,0,0,0,.15.64.56.56,0,0,0,.48.18,2.27,2.27,0,0,0,.74-.13l.17.16-.17,1a2.86,2.86,0,0,1-1.22.44,1.65,1.65,0,0,1-1.05-.46,1.77,1.77,0,0,1-.47-1.06H442a12.88,12.88,0,0,1-1.17.9,7.46,7.46,0,0,1-1.2.6,4.15,4.15,0,0,1-3.3-1.32,5.47,5.47,0,0,1-1.15-3.74,5.34,5.34,0,0,1,1.28-3.81,4.62,4.62,0,0,1,3.54-1.36,7.76,7.76,0,0,1,1.91.22l0-5.2,1.72-.15Zm-5.84-3.59a4.12,4.12,0,0,0-.8,2.72,4.85,4.85,0,0,0,.73,2.87,2.32,2.32,0,0,0,2,1,2.53,2.53,0,0,0,1.19-.3,4.79,4.79,0,0,0,1.2-1L442,117l-.07-4.12a5.05,5.05,0,0,0-2.1-.55A2.75,2.75,0,0,0,437.64,113.25Z"/><path class="cls-14" d="M448.07,116.17v0a4.21,4.21,0,0,0,.82,2.8,2.88,2.88,0,0,0,2.35,1,4.79,4.79,0,0,0,1.52-.25,5.34,5.34,0,0,0,1.39-.7l.17.13-.26,1.47a6.94,6.94,0,0,1-3,.74,4.27,4.27,0,0,1-3.35-1.36,5.36,5.36,0,0,1-1.21-3.72,5.63,5.63,0,0,1,1.21-3.8,4.13,4.13,0,0,1,3.28-1.41,3.59,3.59,0,0,1,2.7,1,3.8,3.8,0,0,1,1,2.74,7.83,7.83,0,0,1-.08,1.11l-.22.22Zm1.07-3.16a3.63,3.63,0,0,0-1,2l4.8-.09,0-.3a2.47,2.47,0,0,0-.54-1.71,1.92,1.92,0,0,0-1.53-.6A2.51,2.51,0,0,0,449.14,113Z"/><path class="cls-14" d="M462.42,111.28V113l-.2.06a2.86,2.86,0,0,0-.8-.11,1.83,1.83,0,0,0-1.31.58,6.07,6.07,0,0,0-1.19,1.83l0,1.52.11,4.37h-1.72l.11-4.22-.08-5.62,1.62-.15,0,2h.13a4.3,4.3,0,0,1,1.35-1.55,2.73,2.73,0,0,1,1.45-.47A3.82,3.82,0,0,1,462.42,111.28Z"/><path class="cls-14" d="M473.39,111.78a2.37,2.37,0,0,1,.82,1.91c0,.25,0,1.14-.13,2.67s-.13,2.44-.13,2.7a1.07,1.07,0,0,0,.15.66.65.65,0,0,0,.52.18,2.36,2.36,0,0,0,.74-.13l.17.16-.17,1a3.15,3.15,0,0,1-1.24.44,1.69,1.69,0,0,1-1.07-.48,1.65,1.65,0,0,1-.43-1.13h-.15a6.55,6.55,0,0,1-2.32,1.63,3.26,3.26,0,0,1-2.27-.73,2.53,2.53,0,0,1-.81-2,2.2,2.2,0,0,1,.5-1.52,3,3,0,0,1,1.52-.8l3.51-.82,0-1.42a1.78,1.78,0,0,0-.44-1.3,1.71,1.71,0,0,0-1.27-.45,3.5,3.5,0,0,0-1.48.34,7,7,0,0,0-1.58,1.09l-.18-.09-.21-1.24a6.17,6.17,0,0,1,3.71-1.34A3.31,3.31,0,0,1,473.39,111.78Zm-4,5.58a1.34,1.34,0,0,0-.63.36,1,1,0,0,0-.19.69,1.48,1.48,0,0,0,.4,1.11,1.45,1.45,0,0,0,1.08.41,3.36,3.36,0,0,0,2.43-1.55l.06-1.78Z"/><path class="cls-14" d="M486.2,119.45l.19.13-.17,1.13a6.7,6.7,0,0,1-2.17.63,2.89,2.89,0,0,1-1.78-.92,3,3,0,0,1-.55-2l.07-1.54,0-4.5H480.4l-.09-.13.11-1h1.32v-1.6l1.5-.66.18.16-.05,2.1h3l.08.13-.1,1h-2.94l-.11,5.89a1.69,1.69,0,0,0,.31,1.21,1.37,1.37,0,0,0,1.06.35A3.48,3.48,0,0,0,486.2,119.45Z"/><path class="cls-14" d="M494.8,114.45a2,2,0,0,0-.42-1.39,1.61,1.61,0,0,0-1.28-.5,4.24,4.24,0,0,0-2.93,1.55l0,2.73.1,4.37h-1.71l.13-4.24-.11-10.86,1.72-.15-.09,6.71h.13a6.62,6.62,0,0,1,2.76-1.54,3.63,3.63,0,0,1,2.5.76,2.74,2.74,0,0,1,.82,2.17l0,2.83.08,4.32h-1.73Z"/><path class="cls-14" d="M501.33,107.07a1,1,0,0,1,.26.72,1.05,1.05,0,0,1-.27.76,1,1,0,0,1-.75.28.93.93,0,0,1-.7-.26,1,1,0,0,1-.25-.74,1,1,0,0,1,.27-.74,1,1,0,0,1,.75-.28A1,1,0,0,1,501.33,107.07Zm-1.5,9.92-.06-5.62,1.67-.15,0,5.62,0,4.37h-1.69Z"/><path class="cls-14" d="M510.1,111.28V113l-.19.06a3,3,0,0,0-.8-.11,1.85,1.85,0,0,0-1.32.58,6.08,6.08,0,0,0-1.18,1.83l0,1.52.11,4.37H505l.11-4.22-.09-5.62,1.63-.15,0,2h.13a4.19,4.19,0,0,1,1.34-1.55,2.76,2.76,0,0,1,1.46-.47A3.78,3.78,0,0,1,510.1,111.28Z"/><path class="cls-14" d="M519.42,116.84l.06,2.24a1.28,1.28,0,0,0,.16.64.53.53,0,0,0,.47.18,2.22,2.22,0,0,0,.74-.13l.18.16-.18,1a2.82,2.82,0,0,1-1.21.44,1.7,1.7,0,0,1-1.06-.46,1.76,1.76,0,0,1-.46-1.06H518a11.62,11.62,0,0,1-1.17.9,7.34,7.34,0,0,1-1.19.6,4.12,4.12,0,0,1-3.3-1.32,5.47,5.47,0,0,1-1.15-3.74,5.29,5.29,0,0,1,1.28-3.81,4.6,4.6,0,0,1,3.54-1.36,7.82,7.82,0,0,1,1.91.22l0-5.2,1.71-.15Zm-5.84-3.59a4.07,4.07,0,0,0-.81,2.72,4.93,4.93,0,0,0,.73,2.87,2.33,2.33,0,0,0,2,1,2.52,2.52,0,0,0,1.18-.3,4.65,4.65,0,0,0,1.21-1l0-1.57-.06-4.12a5.05,5.05,0,0,0-2.11-.55A2.71,2.71,0,0,0,513.58,113.25Z"/><path class="cls-14" d="M533.65,112.4a5.53,5.53,0,0,1,1.12,3.7,5.86,5.86,0,0,1-1.17,3.9,4.15,4.15,0,0,1-3.35,1.38,4,4,0,0,1-3.16-1.31,5.59,5.59,0,0,1-1.11-3.71,5.8,5.8,0,0,1,1.18-3.89,4.18,4.18,0,0,1,3.35-1.38A3.9,3.9,0,0,1,533.65,112.4Zm-5.33.84a4.4,4.4,0,0,0-.72,2.73,5.62,5.62,0,0,0,.71,3.13,2.3,2.3,0,0,0,2.05,1,2.5,2.5,0,0,0,2.09-.91,4.44,4.44,0,0,0,.71-2.74,5.68,5.68,0,0,0-.7-3.12,2.32,2.32,0,0,0-2.05-1.07A2.48,2.48,0,0,0,528.32,113.24Z"/><path class="cls-14" d="M542.89,106.11l-.13,1.35-.13.11a3.51,3.51,0,0,0-1.58-.39,1.65,1.65,0,0,0-1.31.53,2.46,2.46,0,0,0-.47,1.58l0,2h2.61l.06.13-.1,1h-2.59l0,4.41.11,4.37h-1.72l.13-4.24,0-4.54h-1.5l-.09-.13.11-1h1.48l0-1.73a3.22,3.22,0,0,1,3.56-3.63A8.1,8.1,0,0,1,542.89,106.11Z"/><path class="cls-14" d="M552.17,111.25a6.41,6.41,0,0,1,1.28.42l-.31,1.5-.19.07a4.12,4.12,0,0,0-2.24-.74,2.34,2.34,0,0,0-2,1,5.58,5.58,0,0,0,0,5.5,2.45,2.45,0,0,0,2.08,1,4.24,4.24,0,0,0,1.23-.19,5.42,5.42,0,0,0,1.2-.55l.2.11-.2,1.46a6.82,6.82,0,0,1-2.65.56,3.79,3.79,0,0,1-3.1-1.36,5.59,5.59,0,0,1-1.13-3.72,5.7,5.7,0,0,1,1.18-3.81,4,4,0,0,1,3.22-1.4A6.27,6.27,0,0,1,552.17,111.25Z"/><path class="cls-14" d="M560.84,111.78a2.39,2.39,0,0,1,.81,1.91c0,.25,0,1.14-.13,2.67s-.13,2.44-.13,2.7a1.07,1.07,0,0,0,.15.66.68.68,0,0,0,.53.18,2.35,2.35,0,0,0,.73-.13l.18.16-.18,1a3.16,3.16,0,0,1-1.23.44,1.75,1.75,0,0,1-1.08-.48,1.6,1.6,0,0,1-.42-1.13h-.15a6.66,6.66,0,0,1-2.33,1.63,3.28,3.28,0,0,1-2.27-.73,2.53,2.53,0,0,1-.81-2,2.2,2.2,0,0,1,.51-1.52,2.91,2.91,0,0,1,1.51-.8l3.52-.82,0-1.42a1.79,1.79,0,0,0-.45-1.3,1.7,1.7,0,0,0-1.27-.45,3.43,3.43,0,0,0-1.47.34,6.86,6.86,0,0,0-1.59,1.09l-.17-.09-.22-1.24a6.17,6.17,0,0,1,3.71-1.34A3.34,3.34,0,0,1,560.84,111.78Zm-4,5.58a1.34,1.34,0,0,0-.63.36,1,1,0,0,0-.2.69,1.48,1.48,0,0,0,.4,1.11,1.46,1.46,0,0,0,1.08.41,3.36,3.36,0,0,0,2.43-1.55l.07-1.78Z"/><path class="cls-14" d="M570.47,111.59l-.24,1.41-.26.06a3.87,3.87,0,0,0-2.08-.71,1.73,1.73,0,0,0-1.2.41,1.31,1.31,0,0,0-.46,1,1.13,1.13,0,0,0,.47.94,8.13,8.13,0,0,0,1.45.82,13.41,13.41,0,0,1,1.35.7,2.93,2.93,0,0,1,.88.84,2.13,2.13,0,0,1,.37,1.28,2.92,2.92,0,0,1-.41,1.5,3.09,3.09,0,0,1-1.22,1.12,4,4,0,0,1-1.91.42,6.16,6.16,0,0,1-2.89-.72l.22-1.47.2-.13a4.8,4.8,0,0,0,1.31.8,3.58,3.58,0,0,0,1.34.28,1.86,1.86,0,0,0,1.3-.44,1.39,1.39,0,0,0,.5-1.06,1.13,1.13,0,0,0-.47-.94,7.8,7.8,0,0,0-1.44-.81,13.82,13.82,0,0,1-1.37-.71,2.91,2.91,0,0,1-.89-.86,2.3,2.3,0,0,1-.37-1.34,2.65,2.65,0,0,1,.92-2.07,3.72,3.72,0,0,1,2.51-.8A6.18,6.18,0,0,1,570.47,111.59Z"/><path class="cls-14" d="M574.18,116.17v0A4.21,4.21,0,0,0,575,119a2.87,2.87,0,0,0,2.34,1,4.7,4.7,0,0,0,1.52-.25,5.18,5.18,0,0,0,1.39-.7l.18.13-.26,1.47a7,7,0,0,1-3,.74,4.26,4.26,0,0,1-3.35-1.36,5.36,5.36,0,0,1-1.22-3.72,5.63,5.63,0,0,1,1.22-3.8,4.1,4.1,0,0,1,3.28-1.41,3.55,3.55,0,0,1,2.69,1,3.77,3.77,0,0,1,1,2.74,6.57,6.57,0,0,1-.09,1.11l-.21.22Zm1.08-3.16a3.57,3.57,0,0,0-1,2l4.8-.09,0-.3a2.47,2.47,0,0,0-.53-1.71,1.94,1.94,0,0,0-1.53-.6A2.5,2.5,0,0,0,575.26,113Z"/><path class="cls-14" d="M588.51,111.59l-.24,1.41-.26.06a3.82,3.82,0,0,0-2.08-.71,1.72,1.72,0,0,0-1.19.41,1.28,1.28,0,0,0-.46,1,1.11,1.11,0,0,0,.47.94,8.35,8.35,0,0,0,1.44.82,13.72,13.72,0,0,1,1.36.7,3,3,0,0,1,.88.84,2.2,2.2,0,0,1,.37,1.28,2.83,2.83,0,0,1-.42,1.5,3.06,3.06,0,0,1-1.21,1.12,4.08,4.08,0,0,1-1.91.42,6.1,6.1,0,0,1-2.89-.72l.22-1.47.19-.13a5,5,0,0,0,1.31.8,3.62,3.62,0,0,0,1.34.28,1.86,1.86,0,0,0,1.3-.44,1.36,1.36,0,0,0,.5-1.06,1.12,1.12,0,0,0-.46-.94,8.32,8.32,0,0,0-1.45-.81,15,15,0,0,1-1.37-.71,3,3,0,0,1-.89-.86,2.37,2.37,0,0,1-.37-1.34,2.62,2.62,0,0,1,.93-2.07,3.7,3.7,0,0,1,2.5-.8A6.11,6.11,0,0,1,588.51,111.59Z"/><path class="cls-14" d="M601.88,112.4a5.53,5.53,0,0,1,1.12,3.7,5.86,5.86,0,0,1-1.17,3.9,4.17,4.17,0,0,1-3.35,1.38,4,4,0,0,1-3.16-1.31,5.59,5.59,0,0,1-1.12-3.71,5.8,5.8,0,0,1,1.19-3.89,4.17,4.17,0,0,1,3.35-1.38A3.92,3.92,0,0,1,601.88,112.4Zm-5.33.84a4.4,4.4,0,0,0-.72,2.73,5.62,5.62,0,0,0,.71,3.13,2.3,2.3,0,0,0,2.05,1,2.47,2.47,0,0,0,2.08-.91,4.37,4.37,0,0,0,.72-2.74,5.67,5.67,0,0,0-.71-3.12,2.31,2.31,0,0,0-2-1.07A2.46,2.46,0,0,0,596.55,113.24Z"/><path class="cls-14" d="M611.12,106.11l-.13,1.35-.13.11a3.52,3.52,0,0,0-1.59-.39,1.64,1.64,0,0,0-1.3.53,2.52,2.52,0,0,0-.48,1.58l0,2h2.61l.06.13-.11,1h-2.58l0,4.41.1,4.37H605.8l.13-4.24,0-4.54h-1.5l-.09-.13.11-1h1.48l0-1.73a3.21,3.21,0,0,1,3.55-3.63A8.12,8.12,0,0,1,611.12,106.11Z"/><path class="cls-14" d="M620.52,111.59l-.24,1.41-.26.06a3.85,3.85,0,0,0-2.08-.71,1.76,1.76,0,0,0-1.2.41,1.3,1.3,0,0,0-.45,1,1.12,1.12,0,0,0,.46.94,8.52,8.52,0,0,0,1.45.82,13.41,13.41,0,0,1,1.35.7,2.93,2.93,0,0,1,.88.84,2.13,2.13,0,0,1,.37,1.28,2.92,2.92,0,0,1-.41,1.5,3.06,3.06,0,0,1-1.21,1.12,4.12,4.12,0,0,1-1.92.42,6.09,6.09,0,0,1-2.88-.72l.21-1.47.2-.13a4.8,4.8,0,0,0,1.31.8,3.58,3.58,0,0,0,1.34.28,1.86,1.86,0,0,0,1.3-.44,1.39,1.39,0,0,0,.5-1.06,1.13,1.13,0,0,0-.47-.94,7.8,7.8,0,0,0-1.44-.81,15,15,0,0,1-1.37-.71,2.91,2.91,0,0,1-.89-.86,2.3,2.3,0,0,1-.37-1.34,2.65,2.65,0,0,1,.92-2.07,3.72,3.72,0,0,1,2.51-.8A6.15,6.15,0,0,1,620.52,111.59Z"/><path class="cls-14" d="M624.23,116.17v0a4.21,4.21,0,0,0,.83,2.8,2.87,2.87,0,0,0,2.34,1,4.81,4.81,0,0,0,1.53-.25,5.27,5.27,0,0,0,1.38-.7l.18.13-.26,1.47a7,7,0,0,1-3,.74,4.26,4.26,0,0,1-3.35-1.36,5.36,5.36,0,0,1-1.21-3.72,5.63,5.63,0,0,1,1.21-3.8,4.12,4.12,0,0,1,3.28-1.41,3.55,3.55,0,0,1,2.69,1,3.77,3.77,0,0,1,1,2.74,6.57,6.57,0,0,1-.09,1.11l-.21.22Zm1.08-3.16a3.57,3.57,0,0,0-1,2l4.8-.09.05-.3a2.47,2.47,0,0,0-.54-1.71,1.92,1.92,0,0,0-1.53-.6A2.5,2.5,0,0,0,625.31,113Z"/><path class="cls-14" d="M634.51,112.13l2.06,3,1.89-3,.5-.89h1.6l-3.1,4.87,3.32,5-1.82.17-.48-1-2.13-3.15-2.08,3.24-.44.85h-1.61l3.2-5.06-3.17-4.82,1.84-.13Z"/><path class="cls-14" d="M651.81,119.93l-.17,1a3.15,3.15,0,0,1-1.24.44,1.78,1.78,0,0,1-1-.45,2,2,0,0,1-.53-1.07h-.13a6.37,6.37,0,0,1-2.7,1.52,3.55,3.55,0,0,1-2.44-.76,2.7,2.7,0,0,1-.81-2.17l0-2.76-.06-4.28,1.73-.15-.13,6.77a2,2,0,0,0,.43,1.39,1.5,1.5,0,0,0,1.24.5,3.93,3.93,0,0,0,2.7-1.3v-7.21l1.65-.15-.11,7.86a1.12,1.12,0,0,0,.14.64.59.59,0,0,0,.49.18,2.47,2.47,0,0,0,.76-.13Z"/><path class="cls-14" d="M659.49,111.78a2.39,2.39,0,0,1,.81,1.91c0,.25,0,1.14-.13,2.67s-.13,2.44-.13,2.7a1.07,1.07,0,0,0,.15.66.68.68,0,0,0,.53.18,2.35,2.35,0,0,0,.73-.13l.18.16-.18,1a3.16,3.16,0,0,1-1.23.44,1.75,1.75,0,0,1-1.08-.48,1.6,1.6,0,0,1-.42-1.13h-.16a6.55,6.55,0,0,1-2.32,1.63,3.26,3.26,0,0,1-2.27-.73,2.53,2.53,0,0,1-.81-2,2.2,2.2,0,0,1,.51-1.52,2.91,2.91,0,0,1,1.51-.8l3.52-.82,0-1.42a1.79,1.79,0,0,0-.45-1.3,1.71,1.71,0,0,0-1.27-.45,3.5,3.5,0,0,0-1.48.34,7,7,0,0,0-1.58,1.09l-.17-.09-.22-1.24a6.17,6.17,0,0,1,3.71-1.34A3.34,3.34,0,0,1,659.49,111.78Zm-4,5.58a1.26,1.26,0,0,0-.62.36,1,1,0,0,0-.2.69,1.48,1.48,0,0,0,.4,1.11,1.46,1.46,0,0,0,1.08.41,3.36,3.36,0,0,0,2.43-1.55l.06-1.78Z"/><path class="cls-14" d="M665.71,116.84l.11,4.37H664.1l.13-4.24-.11-10.86,1.72-.15Z"/><path class="cls-14" d="M418,140.51a2,2,0,0,0-.41-1.39,1.62,1.62,0,0,0-1.28-.5,4.25,4.25,0,0,0-2.93,1.54l-.05,2.74.11,4.37h-1.71l.13-4.24-.11-10.86,1.72-.15-.09,6.71h.13a6.62,6.62,0,0,1,2.76-1.54,3.58,3.58,0,0,1,2.49.76,2.71,2.71,0,0,1,.83,2.17l0,2.82.08,4.33h-1.73Z"/><path class="cls-14" d="M428.47,137.84a2.38,2.38,0,0,1,.81,1.91c0,.25,0,1.14-.13,2.67s-.13,2.43-.13,2.7a1.11,1.11,0,0,0,.15.66.65.65,0,0,0,.52.18,2.36,2.36,0,0,0,.74-.13l.18.15-.18,1a3.15,3.15,0,0,1-1.24.44,1.74,1.74,0,0,1-1.07-.48,1.6,1.6,0,0,1-.42-1.13h-.16a6.68,6.68,0,0,1-2.32,1.63,3.33,3.33,0,0,1-2.27-.73,2.53,2.53,0,0,1-.81-2,2.2,2.2,0,0,1,.51-1.52,2.91,2.91,0,0,1,1.51-.8l3.51-.83,0-1.41a1.77,1.77,0,0,0-.45-1.3,1.72,1.72,0,0,0-1.27-.46,3.52,3.52,0,0,0-1.48.35,6.72,6.72,0,0,0-1.58,1.09l-.17-.09-.22-1.24a6.11,6.11,0,0,1,3.71-1.34A3.36,3.36,0,0,1,428.47,137.84Zm-4,5.58a1.4,1.4,0,0,0-.63.36,1.08,1.08,0,0,0-.19.68,1.51,1.51,0,0,0,.4,1.12,1.46,1.46,0,0,0,1.08.4,3.34,3.34,0,0,0,2.43-1.54l.06-1.78Z"/><path class="cls-14" d="M437.9,137.34V139l-.19.07a3,3,0,0,0-.81-.11,1.87,1.87,0,0,0-1.31.57,6.28,6.28,0,0,0-1.18,1.84l0,1.52.1,4.37h-1.71l.11-4.22-.09-5.62,1.63-.15,0,2h.13a4.23,4.23,0,0,1,1.34-1.56,2.72,2.72,0,0,1,1.46-.46A3.78,3.78,0,0,1,437.9,137.34Z"/><path class="cls-14" d="M445.08,137.84a2.38,2.38,0,0,1,.81,1.91c0,.25,0,1.14-.13,2.67s-.13,2.43-.13,2.7a1,1,0,0,0,.16.66.64.64,0,0,0,.52.18,2.35,2.35,0,0,0,.73-.13l.18.15-.18,1a3.16,3.16,0,0,1-1.23.44,1.75,1.75,0,0,1-1.08-.48,1.6,1.6,0,0,1-.42-1.13h-.15a6.71,6.71,0,0,1-2.33,1.63,3.33,3.33,0,0,1-2.27-.73,2.53,2.53,0,0,1-.81-2,2.2,2.2,0,0,1,.51-1.52,2.91,2.91,0,0,1,1.51-.8l3.52-.83,0-1.41a1.77,1.77,0,0,0-.45-1.3,1.7,1.7,0,0,0-1.27-.46,3.52,3.52,0,0,0-1.48.35,6.72,6.72,0,0,0-1.58,1.09l-.17-.09-.22-1.24a6.11,6.11,0,0,1,3.71-1.34A3.34,3.34,0,0,1,445.08,137.84Zm-4,5.58a1.36,1.36,0,0,0-.62.36,1,1,0,0,0-.2.68,1.51,1.51,0,0,0,.4,1.12,1.46,1.46,0,0,0,1.08.4,3.32,3.32,0,0,0,2.43-1.54l.06-1.78Z"/><path class="cls-14" d="M454.71,137.65l-.24,1.41-.26.06a3.77,3.77,0,0,0-2.08-.71,1.68,1.68,0,0,0-1.2.41,1.31,1.31,0,0,0-.46,1,1.13,1.13,0,0,0,.47.94,8.13,8.13,0,0,0,1.45.82,13.41,13.41,0,0,1,1.35.7,2.93,2.93,0,0,1,.88.84,2.13,2.13,0,0,1,.37,1.28,3,3,0,0,1-.41,1.5,3.09,3.09,0,0,1-1.22,1.12,4,4,0,0,1-1.91.42,6.16,6.16,0,0,1-2.89-.72l.22-1.47.2-.13a4.8,4.8,0,0,0,1.31.8,3.58,3.58,0,0,0,1.34.28,1.93,1.93,0,0,0,1.3-.44,1.39,1.39,0,0,0,.5-1.06,1.13,1.13,0,0,0-.47-.94,8.35,8.35,0,0,0-1.44-.82,14,14,0,0,1-1.37-.7,2.8,2.8,0,0,1-.89-.86,2.31,2.31,0,0,1-.37-1.35,2.62,2.62,0,0,1,.92-2.06,3.72,3.72,0,0,1,2.51-.8A6.15,6.15,0,0,1,454.71,137.65Z"/><path class="cls-14" d="M462.74,137.65l-.23,1.41-.27.06a3.77,3.77,0,0,0-2.08-.71,1.72,1.72,0,0,0-1.2.41,1.3,1.3,0,0,0-.45,1,1.11,1.11,0,0,0,.47.94,8.35,8.35,0,0,0,1.44.82,13.72,13.72,0,0,1,1.36.7,3,3,0,0,1,.88.84,2.2,2.2,0,0,1,.37,1.28,2.88,2.88,0,0,1-.42,1.5A3.06,3.06,0,0,1,461.4,147a4.11,4.11,0,0,1-1.91.42,6.1,6.1,0,0,1-2.89-.72l.22-1.47.19-.13a4.8,4.8,0,0,0,1.31.8,3.58,3.58,0,0,0,1.34.28,1.89,1.89,0,0,0,1.3-.44,1.36,1.36,0,0,0,.5-1.06,1.11,1.11,0,0,0-.47-.94,8.35,8.35,0,0,0-1.44-.82,15.31,15.31,0,0,1-1.37-.7,2.91,2.91,0,0,1-.89-.86,2.39,2.39,0,0,1-.37-1.35,2.6,2.6,0,0,1,.93-2.06,3.71,3.71,0,0,1,2.51-.8A6.1,6.1,0,0,1,462.74,137.65Z"/><path class="cls-14" d="M478.12,140.51a2,2,0,0,0-.42-1.39,1.59,1.59,0,0,0-1.28-.5,4.22,4.22,0,0,0-2.88,1.5l-.05,2.82.09,4.33h-1.76l.13-6.76a2,2,0,0,0-.41-1.39,1.62,1.62,0,0,0-1.28-.5,4.52,4.52,0,0,0-3,1.54v2.74l.09,4.37h-1.71l.1-4.22-.08-5.62,1.62-.15v1.45h.14a6.53,6.53,0,0,1,2.75-1.54,4.21,4.21,0,0,1,2,.42,2.38,2.38,0,0,1,1.11,1.23h.13a6.93,6.93,0,0,1,2.93-1.65,3.63,3.63,0,0,1,2.5.76,2.7,2.7,0,0,1,.82,2.17l0,2.82.09,4.33H478Z"/><path class="cls-14" d="M483.83,142.23v0a4.21,4.21,0,0,0,.82,2.8,2.92,2.92,0,0,0,2.35,1,4.75,4.75,0,0,0,1.52-.25,5.07,5.07,0,0,0,1.39-.71l.17.13-.26,1.48a6.91,6.91,0,0,1-3,.74,4.23,4.23,0,0,1-3.34-1.36,5.36,5.36,0,0,1-1.22-3.72,5.63,5.63,0,0,1,1.22-3.8,4.1,4.1,0,0,1,3.28-1.41,3.61,3.61,0,0,1,2.69,1,3.79,3.79,0,0,1,.95,2.75,6.59,6.59,0,0,1-.08,1.11l-.22.22Zm1.07-3.16a3.63,3.63,0,0,0-1,2l4.8-.08,0-.31a2.51,2.51,0,0,0-.53-1.7,2,2,0,0,0-1.53-.6A2.52,2.52,0,0,0,484.9,139.07Z"/><path class="cls-14" d="M499.33,140.51a2,2,0,0,0-.41-1.39,1.62,1.62,0,0,0-1.28-.5,4.52,4.52,0,0,0-3,1.54v2.74l.09,4.37h-1.71l.11-4.22-.09-5.62,1.63-.15v1.45h.13a6.53,6.53,0,0,1,2.75-1.54,3.62,3.62,0,0,1,2.49.76,2.71,2.71,0,0,1,.84,2.17l-.05,2.82.09,4.33h-1.74Z"/><path class="cls-14" d="M509,145.51l.2.13-.18,1.13a6.63,6.63,0,0,1-2.17.63,2.91,2.91,0,0,1-1.78-.92,3.06,3.06,0,0,1-.54-1.95l.06-1.54,0-4.5h-1.37l-.08-.13.1-1h1.33v-1.61l1.5-.65.17.15,0,2.11h2.95l.09.13-.11,1h-2.93l-.11,5.89a1.7,1.7,0,0,0,.3,1.21,1.43,1.43,0,0,0,1.07.35A3.41,3.41,0,0,0,509,145.51Z"/><path class="cls-14" d="M520.28,137.84a2.38,2.38,0,0,1,.81,1.91c0,.25,0,1.14-.13,2.67s-.13,2.43-.13,2.7a1.11,1.11,0,0,0,.15.66.65.65,0,0,0,.52.18,2.36,2.36,0,0,0,.74-.13l.18.15-.18,1a3.15,3.15,0,0,1-1.24.44,1.72,1.72,0,0,1-1.07-.48,1.6,1.6,0,0,1-.42-1.13h-.16a6.68,6.68,0,0,1-2.32,1.63,3.31,3.31,0,0,1-2.27-.73,2.53,2.53,0,0,1-.81-2,2.2,2.2,0,0,1,.51-1.52,2.91,2.91,0,0,1,1.51-.8l3.51-.83,0-1.41a1.77,1.77,0,0,0-.45-1.3,1.72,1.72,0,0,0-1.27-.46,3.48,3.48,0,0,0-1.48.35,6.72,6.72,0,0,0-1.58,1.09l-.18-.09-.21-1.24a6.11,6.11,0,0,1,3.71-1.34A3.36,3.36,0,0,1,520.28,137.84Zm-4,5.58a1.34,1.34,0,0,0-.63.36,1,1,0,0,0-.19.68,1.51,1.51,0,0,0,.4,1.12,1.45,1.45,0,0,0,1.07.4,3.34,3.34,0,0,0,2.44-1.54l.06-1.78Z"/><path class="cls-14" d="M529.71,137.34V139l-.2.07a2.86,2.86,0,0,0-.8-.11,1.87,1.87,0,0,0-1.31.57,6.28,6.28,0,0,0-1.19,1.84l0,1.52.11,4.37h-1.71l.1-4.22-.08-5.62,1.63-.15,0,2h.13a4.34,4.34,0,0,1,1.35-1.56,2.71,2.71,0,0,1,1.45-.46A3.82,3.82,0,0,1,529.71,137.34Z"/><path class="cls-14" d="M532.36,142.23v0a4.21,4.21,0,0,0,.82,2.8,2.93,2.93,0,0,0,2.35,1,4.75,4.75,0,0,0,1.52-.25,4.93,4.93,0,0,0,1.39-.71l.17.13-.26,1.48a6.91,6.91,0,0,1-3,.74,4.23,4.23,0,0,1-3.34-1.36,5.36,5.36,0,0,1-1.22-3.72,5.63,5.63,0,0,1,1.22-3.8,4.1,4.1,0,0,1,3.28-1.41,3.6,3.6,0,0,1,2.69,1,3.79,3.79,0,0,1,1,2.75,6.57,6.57,0,0,1-.09,1.11l-.22.22Zm1.07-3.16a3.63,3.63,0,0,0-1,2l4.8-.08,0-.31a2.51,2.51,0,0,0-.53-1.7,2,2,0,0,0-1.53-.6A2.52,2.52,0,0,0,533.43,139.07Z"/><path class="cls-14" d="M546,142.23v0a4.21,4.21,0,0,0,.83,2.8,2.9,2.9,0,0,0,2.34,1,4.7,4.7,0,0,0,1.52-.25,4.93,4.93,0,0,0,1.39-.71l.18.13L552,146.7a7,7,0,0,1-3,.74,4.26,4.26,0,0,1-3.35-1.36,5.36,5.36,0,0,1-1.21-3.72,5.63,5.63,0,0,1,1.21-3.8,4.12,4.12,0,0,1,3.28-1.41,3.58,3.58,0,0,1,2.69,1,3.79,3.79,0,0,1,1,2.75,6.57,6.57,0,0,1-.09,1.11l-.22.22Zm1.08-3.16a3.57,3.57,0,0,0-1,2l4.8-.08,0-.31a2.46,2.46,0,0,0-.53-1.7,1.92,1.92,0,0,0-1.53-.6A2.48,2.48,0,0,0,547,139.07Z"/><path class="cls-14" d="M555.77,138.58l2.15,7h.13l2.52-6.88.34-1.35h1.55l-3.65,10H557l-3.08-9.91,1.6-.11Z"/><path class="cls-14" d="M564.85,142.23v0a4.21,4.21,0,0,0,.82,2.8,2.91,2.91,0,0,0,2.35,1,4.69,4.69,0,0,0,1.51-.25,5,5,0,0,0,1.4-.71l.17.13-.26,1.48a7,7,0,0,1-3,.74,4.26,4.26,0,0,1-3.35-1.36,5.36,5.36,0,0,1-1.21-3.72,5.63,5.63,0,0,1,1.21-3.8,4.12,4.12,0,0,1,3.28-1.41,3.62,3.62,0,0,1,2.7,1,3.83,3.83,0,0,1,1,2.75,6.57,6.57,0,0,1-.09,1.11l-.21.22Zm1.07-3.16a3.57,3.57,0,0,0-1,2l4.8-.08,0-.31a2.46,2.46,0,0,0-.54-1.7,1.92,1.92,0,0,0-1.53-.6A2.5,2.5,0,0,0,565.92,139.07Z"/><path class="cls-14" d="M579.2,137.34V139l-.2.07a2.86,2.86,0,0,0-.8-.11,1.88,1.88,0,0,0-1.32.57,6.49,6.49,0,0,0-1.18,1.84l0,1.52.11,4.37h-1.72l.11-4.22-.09-5.62,1.63-.15,0,2h.13a4.34,4.34,0,0,1,1.35-1.56,2.71,2.71,0,0,1,1.45-.46A3.82,3.82,0,0,1,579.2,137.34Z"/><path class="cls-14" d="M589.79,137.34V139l-.19.07a3,3,0,0,0-.81-.11,1.87,1.87,0,0,0-1.31.57,6.28,6.28,0,0,0-1.18,1.84l0,1.52.1,4.37h-1.71l.11-4.22-.09-5.62,1.63-.15,0,2h.13a4.23,4.23,0,0,1,1.34-1.56,2.74,2.74,0,0,1,1.46-.46A3.78,3.78,0,0,1,589.79,137.34Z"/><path class="cls-14" d="M592.44,142.23v0a4.21,4.21,0,0,0,.83,2.8,2.9,2.9,0,0,0,2.34,1,4.7,4.7,0,0,0,1.52-.25,4.93,4.93,0,0,0,1.39-.71l.18.13-.26,1.48a7,7,0,0,1-3,.74,4.26,4.26,0,0,1-3.35-1.36,5.36,5.36,0,0,1-1.21-3.72,5.63,5.63,0,0,1,1.21-3.8,4.1,4.1,0,0,1,3.28-1.41,3.58,3.58,0,0,1,2.69,1,3.79,3.79,0,0,1,1,2.75,6.57,6.57,0,0,1-.09,1.11l-.22.22Zm1.08-3.16a3.57,3.57,0,0,0-1,2l4.8-.08,0-.31a2.46,2.46,0,0,0-.53-1.7,1.92,1.92,0,0,0-1.53-.6A2.5,2.5,0,0,0,593.52,139.07Z"/><path class="cls-14" d="M609.05,138.45a5.47,5.47,0,0,1,1,3.54,5.88,5.88,0,0,1-1.26,4,4.55,4.55,0,0,1-3.58,1.42,9.65,9.65,0,0,1-1.89-.2l0,4h-1.7l.11-8.23-.11-5.62,1.65-.15,0,1.41h.15a8.72,8.72,0,0,1,1.37-1,6.3,6.3,0,0,1,1.37-.52A3.44,3.44,0,0,1,609.05,138.45Zm-1.41,6.73a4.53,4.53,0,0,0,.78-2.84,5.11,5.11,0,0,0-.61-2.76,2,2,0,0,0-1.77-1,2.79,2.79,0,0,0-1.34.37,6.17,6.17,0,0,0-1.4,1.15l0,2.76,0,2.71a4.48,4.48,0,0,0,2.13.57A2.63,2.63,0,0,0,607.64,145.18Z"/><path class="cls-14" d="M619.57,138.46a5.53,5.53,0,0,1,1.12,3.7,5.86,5.86,0,0,1-1.17,3.9,4.15,4.15,0,0,1-3.35,1.38,3.93,3.93,0,0,1-3.15-1.31,5.55,5.55,0,0,1-1.12-3.71,5.81,5.81,0,0,1,1.18-3.9,4.21,4.21,0,0,1,3.36-1.37A3.87,3.87,0,0,1,619.57,138.46Zm-5.33.84a4.47,4.47,0,0,0-.71,2.73,5.65,5.65,0,0,0,.7,3.13,2.34,2.34,0,0,0,2,1,2.49,2.49,0,0,0,2.09-.91,4.38,4.38,0,0,0,.71-2.74,5.68,5.68,0,0,0-.7-3.12,2.31,2.31,0,0,0-2-1.07A2.47,2.47,0,0,0,614.24,139.3Z"/><path class="cls-14" d="M628.29,137.34V139l-.19.07a3,3,0,0,0-.81-.11,1.87,1.87,0,0,0-1.31.57,6.28,6.28,0,0,0-1.18,1.84l0,1.52.1,4.37h-1.71l.11-4.22-.09-5.62,1.63-.15,0,2h.13a4.23,4.23,0,0,1,1.34-1.56,2.74,2.74,0,0,1,1.46-.46A3.78,3.78,0,0,1,628.29,137.34Z"/><path class="cls-14" d="M634.87,145.51l.2.13-.18,1.13a6.63,6.63,0,0,1-2.17.63,2.91,2.91,0,0,1-1.78-.92,3.06,3.06,0,0,1-.54-1.95l.06-1.54,0-4.5h-1.36l-.09-.13.11-1h1.32v-1.61l1.5-.65.17.15,0,2.11h3l.09.13-.11,1h-2.93l-.11,5.89a1.69,1.69,0,0,0,.31,1.21,1.39,1.39,0,0,0,1.06.35A3.41,3.41,0,0,0,634.87,145.51Z"/><path class="cls-14" d="M637.59,142.23v0a4.21,4.21,0,0,0,.82,2.8,2.91,2.91,0,0,0,2.35,1,4.79,4.79,0,0,0,1.52-.25,5.07,5.07,0,0,0,1.39-.71l.17.13-.26,1.48a6.94,6.94,0,0,1-3,.74,4.23,4.23,0,0,1-3.34-1.36,5.31,5.31,0,0,1-1.22-3.72,5.58,5.58,0,0,1,1.22-3.8,4.1,4.1,0,0,1,3.28-1.41,3.61,3.61,0,0,1,2.69,1,3.79,3.79,0,0,1,1,2.75A7.83,7.83,0,0,1,644,142l-.22.22Zm1.07-3.16a3.56,3.56,0,0,0-1,2l4.79-.08,0-.31A2.51,2.51,0,0,0,642,139a2,2,0,0,0-1.53-.6A2.52,2.52,0,0,0,638.66,139.07Z"/><path class="cls-14" d="M654.26,142.9l.07,2.24a1.22,1.22,0,0,0,.15.64.56.56,0,0,0,.48.18,2.27,2.27,0,0,0,.74-.13l.17.15-.17,1a2.86,2.86,0,0,1-1.22.44,1.65,1.65,0,0,1-1.05-.46,1.8,1.8,0,0,1-.47-1.06h-.15a12.88,12.88,0,0,1-1.17.9,6.7,6.7,0,0,1-1.2.59,4.14,4.14,0,0,1-3.3-1.31,5.5,5.5,0,0,1-1.15-3.75,5.37,5.37,0,0,1,1.28-3.81,4.65,4.65,0,0,1,3.54-1.35,8.28,8.28,0,0,1,1.91.21l0-5.19,1.72-.15Zm-5.84-3.59a4.11,4.11,0,0,0-.8,2.72,4.85,4.85,0,0,0,.73,2.87,2.32,2.32,0,0,0,2,1,2.46,2.46,0,0,0,1.19-.31,4.4,4.4,0,0,0,1.2-1l0-1.56-.07-4.12a4.87,4.87,0,0,0-2.11-.55A2.74,2.74,0,0,0,648.42,139.31Z"/><path class="cls-14" d="M666.34,145.51l.19.13-.17,1.13a6.7,6.7,0,0,1-2.17.63,2.89,2.89,0,0,1-1.78-.92,3,3,0,0,1-.55-1.95l.07-1.54,0-4.5h-1.37l-.09-.13.11-1h1.32v-1.61l1.5-.65.18.15,0,2.11h3l.08.13-.1,1h-2.94l-.11,5.89a1.69,1.69,0,0,0,.31,1.21,1.41,1.41,0,0,0,1.06.35A3.48,3.48,0,0,0,666.34,145.51Z"/><path class="cls-14" d="M675.12,138.46a5.53,5.53,0,0,1,1.12,3.7,5.86,5.86,0,0,1-1.17,3.9,4.17,4.17,0,0,1-3.35,1.38,4,4,0,0,1-3.16-1.31,5.61,5.61,0,0,1-1.12-3.71,5.81,5.81,0,0,1,1.19-3.9,4.19,4.19,0,0,1,3.35-1.37A3.89,3.89,0,0,1,675.12,138.46Zm-5.33.84a4.4,4.4,0,0,0-.72,2.73,5.64,5.64,0,0,0,.71,3.13,2.33,2.33,0,0,0,2.05,1,2.47,2.47,0,0,0,2.08-.91,4.37,4.37,0,0,0,.72-2.74,5.68,5.68,0,0,0-.7-3.12,2.33,2.33,0,0,0-2.06-1.07A2.45,2.45,0,0,0,669.79,139.3Z"/><path class="cls-14" d="M424.11,166.57a1.94,1.94,0,0,0-.41-1.39,1.61,1.61,0,0,0-1.28-.5,4.24,4.24,0,0,0-2.89,1.5l0,2.82.09,4.32h-1.76l.13-6.75a2,2,0,0,0-.42-1.39,1.59,1.59,0,0,0-1.28-.5,4.46,4.46,0,0,0-2.95,1.54V169l.09,4.36h-1.72l.11-4.21-.09-5.62,1.63-.16v1.46h.13a6.51,6.51,0,0,1,2.76-1.54,4.21,4.21,0,0,1,2,.42,2.32,2.32,0,0,1,1.1,1.23h.14a6.87,6.87,0,0,1,2.93-1.65,3.58,3.58,0,0,1,2.49.76,2.7,2.7,0,0,1,.83,2.17l0,2.82.08,4.32H424Z"/><path class="cls-14" d="M434.55,163.9a2.38,2.38,0,0,1,.81,1.91c0,.25,0,1.14-.13,2.67s-.13,2.43-.13,2.69a1.12,1.12,0,0,0,.15.67.65.65,0,0,0,.52.18,2.36,2.36,0,0,0,.74-.13l.18.15-.18,1a3,3,0,0,1-1.24.43,1.68,1.68,0,0,1-1.07-.47,1.62,1.62,0,0,1-.42-1.13h-.16a6.68,6.68,0,0,1-2.32,1.63,3.33,3.33,0,0,1-2.27-.73,2.55,2.55,0,0,1-.81-2,2.18,2.18,0,0,1,.51-1.52,2.84,2.84,0,0,1,1.51-.8l3.52-.83,0-1.41a1.77,1.77,0,0,0-.45-1.3,1.68,1.68,0,0,0-1.27-.46,3.52,3.52,0,0,0-1.48.35,7,7,0,0,0-1.58,1.08l-.17-.08-.22-1.24a6.13,6.13,0,0,1,3.71-1.35A3.35,3.35,0,0,1,434.55,163.9Zm-4,5.58a1.4,1.4,0,0,0-.63.36,1.08,1.08,0,0,0-.19.68,1.51,1.51,0,0,0,.4,1.12,1.46,1.46,0,0,0,1.08.4,3.34,3.34,0,0,0,2.43-1.54l.06-1.78Z"/><path class="cls-14" d="M445.13,166.57a1.94,1.94,0,0,0-.41-1.39,1.62,1.62,0,0,0-1.28-.5,4.44,4.44,0,0,0-2.95,1.54V169l.08,4.36h-1.71l.11-4.21-.09-5.62,1.63-.16v1.46h.13a6.51,6.51,0,0,1,2.76-1.54,3.61,3.61,0,0,1,2.48.76,2.67,2.67,0,0,1,.84,2.17l-.05,2.82.09,4.32H445Z"/><path class="cls-14" d="M455.57,163.9a2.38,2.38,0,0,1,.81,1.91c0,.25,0,1.14-.13,2.67s-.13,2.43-.13,2.69a1.12,1.12,0,0,0,.15.67.65.65,0,0,0,.52.18,2.36,2.36,0,0,0,.74-.13l.18.15-.18,1a3,3,0,0,1-1.24.43,1.68,1.68,0,0,1-1.07-.47,1.62,1.62,0,0,1-.42-1.13h-.16a6.68,6.68,0,0,1-2.32,1.63,3.31,3.31,0,0,1-2.27-.73,2.55,2.55,0,0,1-.81-2,2.18,2.18,0,0,1,.51-1.52,2.84,2.84,0,0,1,1.51-.8l3.52-.83,0-1.41a1.77,1.77,0,0,0-.45-1.3,1.68,1.68,0,0,0-1.27-.46,3.44,3.44,0,0,0-1.47.35,6.79,6.79,0,0,0-1.59,1.08l-.18-.08-.21-1.24a6.13,6.13,0,0,1,3.71-1.35A3.35,3.35,0,0,1,455.57,163.9Zm-4,5.58a1.38,1.38,0,0,0-.64.36,1,1,0,0,0-.19.68,1.51,1.51,0,0,0,.4,1.12,1.46,1.46,0,0,0,1.08.4,3.34,3.34,0,0,0,2.43-1.54l.06-1.78Z"/><path class="cls-14" d="M466.89,164.68l0,.09a3.36,3.36,0,0,1,.47,1.84,3.2,3.2,0,0,1-1.05,2.52,4.15,4.15,0,0,1-2.85.94,4.89,4.89,0,0,1-1.35-.18,2.63,2.63,0,0,0-.5.46.59.59,0,0,0-.13.39c0,.3.19.52.57.64a13,13,0,0,0,1.84.38,19.47,19.47,0,0,1,2.07.39,3.62,3.62,0,0,1,1.38.71,1.65,1.65,0,0,1,.59,1.35,2.63,2.63,0,0,1-.62,1.68,4.19,4.19,0,0,1-1.69,1.19,6.27,6.27,0,0,1-2.36.43,4.12,4.12,0,0,1-2.7-.79,2.52,2.52,0,0,1-1-2.05,4.87,4.87,0,0,1,1.91-1.89v-.11a3,3,0,0,1-1.2-.64,1.45,1.45,0,0,1-.43-1.1,4.29,4.29,0,0,1,1.33-1.32v-.09a2.87,2.87,0,0,1-1.05-1.14,3.54,3.54,0,0,1-.36-1.64,3.23,3.23,0,0,1,1.05-2.55,4.13,4.13,0,0,1,2.81-.92,4.48,4.48,0,0,1,2,.39c1-.19,2-.43,3.15-.74l.17.13v1.17C468.44,164.35,467.77,164.51,466.89,164.68Zm-1.25,8.86a11.07,11.07,0,0,0-2.2-.5l-.7-.11a6.11,6.11,0,0,0-1.25,1,1.39,1.39,0,0,0-.42,1,1.24,1.24,0,0,0,.62,1,3.14,3.14,0,0,0,1.73.41,4,4,0,0,0,2.1-.51,1.46,1.46,0,0,0,.85-1.25A1,1,0,0,0,465.64,173.54Zm-.45-5.25a2.32,2.32,0,0,0,.59-1.7,2.14,2.14,0,0,0-.56-1.6,2.2,2.2,0,0,0-1.63-.57,2.33,2.33,0,0,0-1.69.59,2.18,2.18,0,0,0-.61,1.67,2.25,2.25,0,0,0,.57,1.63,2.2,2.2,0,0,0,1.64.58A2.28,2.28,0,0,0,465.19,168.29Z"/><path class="cls-14" d="M471.45,168.29v0a4.21,4.21,0,0,0,.83,2.8,2.9,2.9,0,0,0,2.34,1,5,5,0,0,0,1.52-.25,4.93,4.93,0,0,0,1.39-.71l.18.13-.26,1.48a7,7,0,0,1-3,.74,4.29,4.29,0,0,1-3.35-1.36,5.37,5.37,0,0,1-1.21-3.72,5.61,5.61,0,0,1,1.21-3.8,4.11,4.11,0,0,1,3.28-1.42,3.56,3.56,0,0,1,2.69,1,3.79,3.79,0,0,1,1,2.75,6.57,6.57,0,0,1-.09,1.11l-.22.21Zm1.08-3.16a3.57,3.57,0,0,0-1,2l4.8-.08,0-.31a2.49,2.49,0,0,0-.53-1.7,1.92,1.92,0,0,0-1.53-.6A2.5,2.5,0,0,0,472.53,165.13Z"/><path class="cls-14" d="M493.12,166.57a1.94,1.94,0,0,0-.41-1.39,1.62,1.62,0,0,0-1.28-.5,4.24,4.24,0,0,0-2.89,1.5l0,2.82.08,4.32h-1.75l.12-6.75a1.94,1.94,0,0,0-.41-1.39,1.61,1.61,0,0,0-1.28-.5,4.44,4.44,0,0,0-2.95,1.54V169l.09,4.36h-1.72l.11-4.21-.09-5.62,1.63-.16v1.46h.13a6.51,6.51,0,0,1,2.76-1.54,4.24,4.24,0,0,1,2,.42,2.32,2.32,0,0,1,1.1,1.23h.13a7,7,0,0,1,2.94-1.65,3.58,3.58,0,0,1,2.49.76,2.7,2.7,0,0,1,.83,2.17l0,2.82.09,4.32H493Z"/><path class="cls-14" d="M498.83,168.29v0a4.21,4.21,0,0,0,.83,2.8,2.9,2.9,0,0,0,2.34,1,5.1,5.1,0,0,0,1.53-.25,5,5,0,0,0,1.38-.71l.18.13-.26,1.48a7,7,0,0,1-3,.74,4.29,4.29,0,0,1-3.35-1.36,5.37,5.37,0,0,1-1.21-3.72,5.61,5.61,0,0,1,1.21-3.8,4.12,4.12,0,0,1,3.28-1.42,3.55,3.55,0,0,1,2.69,1,3.79,3.79,0,0,1,1,2.75,6.57,6.57,0,0,1-.09,1.11l-.21.21Zm1.08-3.16a3.57,3.57,0,0,0-1,2l4.8-.08.05-.31a2.44,2.44,0,0,0-.54-1.7,1.92,1.92,0,0,0-1.53-.6A2.5,2.5,0,0,0,499.91,165.13Z"/><path class="cls-14" d="M514.34,166.57a2,2,0,0,0-.41-1.39,1.63,1.63,0,0,0-1.29-.5,4.46,4.46,0,0,0-2.95,1.54V169l.09,4.36h-1.72l.11-4.21-.09-5.62,1.63-.16v1.46h.13a6.51,6.51,0,0,1,2.76-1.54,3.62,3.62,0,0,1,2.49.76,2.66,2.66,0,0,1,.83,2.17l0,2.82.09,4.32h-1.74Z"/><path class="cls-14" d="M524,171.56l.19.13-.17,1.13a6.24,6.24,0,0,1-2.17.63,2.88,2.88,0,0,1-1.78-.91,3.06,3.06,0,0,1-.55-1.95l.07-1.54,0-4.5h-1.37l-.09-.13.11-1h1.33v-1.61l1.49-.65.18.15,0,2.11h3l.08.13-.11,1h-2.93l-.1,5.89a1.66,1.66,0,0,0,.3,1.21,1.41,1.41,0,0,0,1.06.35A3.5,3.5,0,0,0,524,171.56Z"/><circle class="cls-1" cx="434.78" cy="50.98" r="24.85"/><circle class="cls-2" cx="497.68" cy="50.98" r="24.85"/><circle class="cls-2" cx="560.58" cy="50.98" r="24.85"/></g></g></svg>