<svg xmlns="http://www.w3.org/2000/svg" xmlns:xlink="http://www.w3.org/1999/xlink" viewBox="0 0 435 448.53"><defs><style>.cls-1{fill:none;}.cls-2{fill:#4963ac;}.cls-3{clip-path:url(#clip-path);}.cls-4{fill:#8e6743;}.cls-5{fill:#603813;}.cls-6{fill:#5a84af;}.cls-7{fill:#283273;}.cls-8{fill:#b6916f;}</style><clipPath id="clip-path"><circle class="cls-1" cx="217.5" cy="217.5" r="217.5"/></clipPath></defs><g id="Layer_2" data-name="Layer 2"><g id="Layer_1-2" data-name="Layer 1"><circle class="cls-2" cx="217.5" cy="217.5" r="217.5"/><g class="cls-3"><path class="cls-2" d="M346.55,372.59S395,392.1,397.31,444.16H370.38Z"/><rect class="cls-4" x="161.31" y="223.21" width="105.74" height="159.07"/><path class="cls-5" d="M252.35,256.46s-11.71,37.75-25.78,46.29S194,298.63,194,298.63s39.43,26.6,43.64,33.57,10.68-3.43,10.68-3.43h4S263.27,343,265,347.35s-6.87,37.7-14.76,41.79-13.37,9.95-34.63,4.8-62.43-41.56-68.49-49.37-33-51.12-31.67-55.58-4.46-16.47,15.09-25.73,39.79-28.3,59.68-27.35S252.35,256.46,252.35,256.46Z"/><path class="cls-4" d="M291.63,161.89c0-45.36-31.76-82.13-70.94-82.13s-70.95,36.77-70.95,82.13v.1a161.18,161.18,0,0,0-2.63,29.24c0,54.94,26.85,99.47,60,99.47,25.3,0,46.93-26,55.74-62.74C280.3,213,291.63,189,291.63,161.89Z"/><path class="cls-6" d="M91.09,275.27s-36.79,18-32.67,58.65,13,110.24,13,110.24H361s-29.94-82.36-45.37-107.1-61-15.49-61-15.49.77,21.61-3.86,28.56-12.35,14.53-12.35,14.53,7.72-25.24,1.54-27.6-33.95-33.16-45.53-32.81S91.09,275.27,91.09,275.27Z"/><path class="cls-2" d="M309.79,421.93s4.59-4.66,19,7.17,28.51,14,28.51,14L351.42,421l-17.88-13.54s-15.56-.51-17.1,0Z"/><path class="cls-6" d="M97.43,418.47c26.93,1.2,67.95-46.48,59.51-20.24s.52,37,11.2,34,13,7.2,22.25,12.35,20.58-3.61,28.29-15.44,29.42,3.49,29.42,3.49L239.65,390s3.21-5.15,19.68,2.57,28.81,27.27,28.81,27.27-21.61-96.73-24.7-98.27c-.61-.31-1.21-.67-1.87-1-4.23.47-6.87,1-6.87,1s.77,21.61-3.86,28.56-12.35,14.53-12.35,14.53,7.72-25.24,1.54-27.6-33.95-33.16-45.53-32.81-103.41-29-103.41-29-36.79,18-32.67,58.65c.6,6,1.34,12.87,2.16,20.2h0C66.6,387.69,78.91,417.64,97.43,418.47Z"/><path class="cls-2" d="M237.65,335.61h0Z"/><path class="cls-2" d="M239.65,390l.14-.17c-.32-1.51-1.57-5.51-6.32-15.27-6.68-13.76-36.14-38.07-28.81-41.28s3.22-15.7,7.69-15.57c3,.09,13.11,7.92,19.62,13.19-11-9.63-28.78-26.91-37.47-26.65-3.31.1-13.21-2.24-25.65-5.62-1.12,3.52-1.21,8.45-.71,9.69.77,1.93,14.27,30.49,14.27,31.64s54.16,47.8,57.35,50.55Z"/><path class="cls-7" d="M230.17,114.66s2.92-11.49-14.06,7-54,30.87-61.74,56.34,5.77,73.31,5.77,73.31,12,65.27,40.54,90.52,60.19,75.26,54.79,89.3-21.09-23.15-33.7-11.58-13.38,29.59-27.27,14.8-22.63,9.13-26.36-34.86-62.69-114.65-60.22-141.83,22-37.52,20-64.38S126.35,49.18,224.48,59.19l7.07,3.07s42.44-4.63,60.19,50.17-9.74,153.23,0,182.9,55.57,69.46,64.83,86.44,26.54,82.1,3.24,63.43-36.43-38.74-47.23-26.39-25.47,27-33.19-11.57-23.88-28.93-20.06-57.89-4.7-18.55-4.7-18.55-10.74,5.43-7.65-20-2.14-37.39,9.35-62.3,18.86-62.84,13-87.42S230.6,174.17,230.17,114.66Z"/><path class="cls-2" d="M239.79,376.88c3.85,2.83,15.94,5.4,15.94,5.4s-7.72-4.11-5.92-12.09S259.09,333,257,329.07c-.4-.76-1.26,0-2.39,1.65-.27,6.77-1.16,15.46-3.79,19.41-4.63,6.94-12.35,14.53-12.35,14.53S236,374.05,239.79,376.88Z"/><path class="cls-6" d="M138.94,235.91s-18.57.77-31,16.46-31.75,35.76-31.5,46.82-3.7,66.11,33.78,71,56.52,3.86,61.66-18,7.46-28.55,7.46-38.84-3.08-20.84-3.6-23.41S138.94,235.91,138.94,235.91Z"/><path class="cls-4" d="M221.77,252.11s-28.81,10.81-38.59,34c-7.6,18-25.47,52.48-40.39,50.94s-51.7-20.07-43-60.2,49.12-40.65,60.32-62.26,0,3.09,0,3.09Z"/><path class="cls-5" d="M155.76,220.69c-.76.82-1.58,1.62-2.43,2.38-1.76,9.16-8.64,50.07,6.81,59.65,13.6,8.44,2,35.92-3.7,47.57,10.93-10.67,21.38-31.52,26.74-44.22,9.78-23.15,38.59-34,38.59-34L162.4,218.9Z"/><path class="cls-8" d="M170.6,157.1s-9.09-47.16-11.67-61.91-8.57-43.73,0-47.68,14.41.52,16.64,14.07,5,31,7.89,40S192,141.32,195,139.27s4.8-18.18,4.8-28.13S201,81.81,202,73.41s1-28.3,1.37-35.33-.86-13.72,8.75-14.4S224.28,32.42,225,46.83s.17,41.16,0,48.53,1.72,14.92.35,23.16-3.78,21.26,2.05,22.12,17.32-34,17.32-34,2.92-9.43,7-15.6,18.17-43.74,24.35-44.42,12.17,2.74,10.12,16.46-6.86,22.3-8.92,29.5-6.86,15.95-6.86,15.95-2.06,11-4.12,20.75-6.17,16.29-7.2,23.84-2.23,34.86-.51,40.15,7.88,17.47,19.2,17.82,44.94-1.21,52.83,4.28,11,13.55,3.6,17.32-34.47,5.66-38.59,6.69-16.64,2.4-19.38,2.75a40.12,40.12,0,0,0-12.69,3.6c-6.18,2.74-21.44,8.92-29.67,9.6s-18.18,2.06-27.1,0-46.28-1.71-52.3-34.13-6-41.67-6-41.67-12.35-22.47-19-32.93-23.16-34-17.15-40,11.66-5.49,17,4.12,10.64,18.52,15.44,24.35,13.89,18.35,13.89,18.35,5,7.89,8.92,6.52S170.6,157.1,170.6,157.1Z"/><path class="cls-5" d="M205.68,58.59a30.36,30.36,0,0,0,4.21.66,34.38,34.38,0,0,0,3.92.1c1.31-.07,2.62-.17,4-.33.69-.06,1.37-.2,2.1-.24a17.48,17.48,0,0,1,2.25-.19,12.61,12.61,0,0,1-1.7,1.57,13.59,13.59,0,0,1-2,1.14,12.27,12.27,0,0,1-4.53,1.07,11.33,11.33,0,0,1-4.64-.83A7.45,7.45,0,0,1,205.68,58.59Z"/><path class="cls-5" d="M261.86,77.86a30.52,30.52,0,0,0,4,1.49,32.47,32.47,0,0,0,3.82.89c1.29.2,2.6.36,4,.48.69.08,1.38.08,2.11.19a18.67,18.67,0,0,1,2.24.27,11.77,11.77,0,0,1-2,1.19,12.65,12.65,0,0,1-2.18.72,12.31,12.31,0,0,1-4.65.13,11.13,11.13,0,0,1-4.38-1.75A7.41,7.41,0,0,1,261.86,77.86Z"/><path class="cls-5" d="M251.85,105a29,29,0,0,0,4,1.49,32.68,32.68,0,0,0,3.83.9c1.29.19,2.6.36,4,.47.69.09,1.38.09,2.1.19a18.2,18.2,0,0,1,2.24.27,11.73,11.73,0,0,1-2,1.2,13.88,13.88,0,0,1-2.18.71,12.36,12.36,0,0,1-4.66.14,11.19,11.19,0,0,1-4.37-1.76A7.36,7.36,0,0,1,251.85,105Z"/><path class="cls-5" d="M203.6,94.88a32.47,32.47,0,0,0,4.19.76,34.43,34.43,0,0,0,3.92.2c1.3,0,2.62-.11,4-.24.69,0,1.37-.16,2.11-.19a17.82,17.82,0,0,1,2.25-.13,12.63,12.63,0,0,1-1.74,1.53,13.63,13.63,0,0,1-2,1.09,12.52,12.52,0,0,1-4.55,1,11.31,11.31,0,0,1-4.62-1A7.49,7.49,0,0,1,203.6,94.88Z"/><path class="cls-5" d="M160.78,85.71a32.28,32.28,0,0,0,4.25-.13,35.25,35.25,0,0,0,3.88-.63c1.27-.31,2.54-.65,3.85-1.06.67-.19,1.31-.45,2-.62a16.44,16.44,0,0,1,2.18-.61,12.62,12.62,0,0,1-1.38,1.86A13.12,13.12,0,0,1,173.83,86a12.3,12.3,0,0,1-4.26,1.89,11.33,11.33,0,0,1-4.71,0A7.53,7.53,0,0,1,160.78,85.71Z"/><path class="cls-5" d="M126,136.27a34.5,34.5,0,0,0,3.36-1.79c1-.61,1.94-1.26,2.86-1.94s1.81-1.44,2.74-2.23c.48-.38.92-.82,1.44-1.21a15.62,15.62,0,0,1,1.62-1.24,10.12,10.12,0,0,1-.38,2.06,11,11,0,0,1-.84,1.89A10.48,10.48,0,0,1,134,135a9.58,9.58,0,0,1-3.87,1.75A6.37,6.37,0,0,1,126,136.27Z"/><path class="cls-5" d="M136.68,151.34a30.52,30.52,0,0,0,3.36-1.79,34.21,34.21,0,0,0,2.87-1.93c.9-.71,1.81-1.44,2.74-2.23.48-.38.91-.82,1.44-1.21a15.46,15.46,0,0,1,1.61-1.24,9.58,9.58,0,0,1-.37,2.06,11.35,11.35,0,0,1-.84,1.89,10.87,10.87,0,0,1-2.76,3.14,9.92,9.92,0,0,1-3.87,1.75A6.47,6.47,0,0,1,136.68,151.34Z"/><path class="cls-5" d="M165.44,111.8a31.52,31.52,0,0,0,4.25,0,35.34,35.34,0,0,0,3.89-.53c1.28-.28,2.56-.59,3.88-1,.67-.17,1.32-.42,2-.57a16.68,16.68,0,0,1,2.19-.55,12.59,12.59,0,0,1-1.43,1.82,13.19,13.19,0,0,1-1.79,1.45,12.29,12.29,0,0,1-4.3,1.78,11,11,0,0,1-4.71-.08A7.35,7.35,0,0,1,165.44,111.8Z"/><path class="cls-5" d="M189.49,145.16a31.46,31.46,0,0,0-4.08,1.21,32.27,32.27,0,0,0-3.59,1.59c-1.15.62-2.3,1.28-3.46,2-.6.35-1.15.77-1.8,1.12a17.72,17.72,0,0,1-1.94,1.14,11.49,11.49,0,0,1,.86-2.15,13,13,0,0,1,1.31-1.89,12.4,12.4,0,0,1,3.63-2.91A11.32,11.32,0,0,1,185,144,7.4,7.4,0,0,1,189.49,145.16Z"/><path class="cls-5" d="M162.58,165.42c-1,1-1.8,1.82-2.58,2.7s-1.48,1.74-2.17,2.64-1.34,1.83-2,2.8c-.35.48-.65,1-1,1.49s-.68,1-1.12,1.58a8.59,8.59,0,0,1,.18-1.56,11.51,11.51,0,0,1,.55-1.66,15.34,15.34,0,0,1,1.94-3.35,16.53,16.53,0,0,1,2.9-2.95A8.29,8.29,0,0,1,162.58,165.42Z"/><path class="cls-5" d="M219.51,140.5a37.79,37.79,0,0,0-4.69-.65,39.86,39.86,0,0,0-4.36-.09c-1.45.07-2.9.18-4.42.34-.76.06-1.51.2-2.32.24a19.16,19.16,0,0,1-2.48.2,12.67,12.67,0,0,1,1.83-1.58,15.43,15.43,0,0,1,2.17-1.15,14.56,14.56,0,0,1,5-1.08,13.86,13.86,0,0,1,5.18.82A8.57,8.57,0,0,1,219.51,140.5Z"/><path class="cls-5" d="M253.48,148.68a40.65,40.65,0,0,0-4.24-2.11,41.09,41.09,0,0,0-4.1-1.47c-1.4-.4-2.81-.76-4.3-1.08-.74-.19-1.49-.29-2.27-.51a22.6,22.6,0,0,1-2.43-.6,12.13,12.13,0,0,1,2.24-.92,13.9,13.9,0,0,1,7.5.16,13.92,13.92,0,0,1,4.65,2.44A8.55,8.55,0,0,1,253.48,148.68Z"/><path class="cls-5" d="M302.66,213.87a36.5,36.5,0,0,0-1,4.64,42.94,42.94,0,0,0-.4,4.34c0,1.45,0,2.91,0,4.42,0,.77.09,1.53.08,2.34a20.52,20.52,0,0,1,0,2.49,12.42,12.42,0,0,1-1.44-1.93,13.83,13.83,0,0,1-1.73-7.3,13.63,13.63,0,0,1,1.18-5.11A8.49,8.49,0,0,1,302.66,213.87Z"/><path class="cls-5" d="M271.6,216.56a28.18,28.18,0,0,0-.7,3.34,30.6,30.6,0,0,0-.29,3.13c0,1.05,0,2.1,0,3.19,0,.55.07,1.1.06,1.69a15.33,15.33,0,0,1,0,1.8,9.59,9.59,0,0,1-1-1.4,11.23,11.23,0,0,1-.72-1.62,10.8,10.8,0,0,1-.53-3.65,10,10,0,0,1,.86-3.68A6.05,6.05,0,0,1,271.6,216.56Z"/><path class="cls-5" d="M155.26,197a16.55,16.55,0,0,0,5.59,2.34,21.78,21.78,0,0,0,6,.53,27.21,27.21,0,0,0,5.89-.87c1-.22,1.91-.58,2.86-.85s1.88-.7,2.81-1.08c3.72-1.57,7.39-3.33,11-5.22s7.25-3.78,10.87-5.71,7.29-3.79,11-5.56c1.89-.85,3.78-1.71,5.77-2.43s3.95-1.31,5.94-1.89l5.9-1.71c1.95-.57,3.88-1.19,5.75-1.94a24.9,24.9,0,0,0,5.31-2.79,13.45,13.45,0,0,0,4-4.46,12.81,12.81,0,0,1-3.52,5.11,24.47,24.47,0,0,1-5.23,3.49,98,98,0,0,1-11.54,4.55c-1.92.69-3.87,1.35-5.71,2.11s-3.66,1.64-5.48,2.54c-3.64,1.81-7.26,3.73-10.88,5.65-7.29,3.76-14.57,7.66-22.44,10.46a32.21,32.21,0,0,1-12.42,2.08,21.72,21.72,0,0,1-6.18-1.21A15.34,15.34,0,0,1,155.26,197Z"/><path class="cls-5" d="M246.59,180.78a95.3,95.3,0,0,0-19.52,8.9,59.08,59.08,0,0,0-8.49,6.27,39.73,39.73,0,0,0-6.86,7.81,29.37,29.37,0,0,0-2.51,4.53l-1.06,2.39c-.34.8-.56,1.65-.87,2.47l-.43,1.23c-.14.42-.22.85-.34,1.27-.2.84-.45,1.68-.62,2.54l-.43,2.59c-.16.86-.19,1.74-.29,2.61a46.71,46.71,0,0,0,.36,10.56,45.61,45.61,0,0,0,2.73,10.37,35.52,35.52,0,0,1-4.18-10.07,41.29,41.29,0,0,1-1.27-11,39.17,39.17,0,0,1,1.74-11c.28-.89.53-1.79.88-2.65l1.09-2.58a33,33,0,0,1,2.68-5,45.52,45.52,0,0,1,16.71-14.45A65.16,65.16,0,0,1,236,183.33,59.94,59.94,0,0,1,246.59,180.78Z"/></g></g></g></svg>