<svg id="Layer_1" data-name="Layer 1" xmlns="http://www.w3.org/2000/svg" xmlns:xlink="http://www.w3.org/1999/xlink" viewBox="0 0 389.37 350.28"><defs><style>.cls-1{fill:#e6e7e8;}.cls-2,.cls-3,.cls-4{stroke:#fff;stroke-miterlimit:10;}.cls-2{fill:url(#linear-gradient);}.cls-3{fill:url(#linear-gradient-2);}.cls-4{fill:url(#linear-gradient-3);}.cls-5{fill:#a6a8ab;}.cls-10,.cls-11,.cls-12,.cls-14,.cls-15,.cls-16,.cls-17,.cls-6,.cls-7,.cls-8,.cls-9{isolation:isolate;}.cls-7,.cls-8{font-size:26.73px;fill:#fff;}.cls-16,.cls-17,.cls-7,.cls-8{font-family:BebasNeue, Bebas Neue;}.cls-8{letter-spacing:-0.01em;}.cls-10,.cls-11,.cls-12,.cls-14,.cls-15,.cls-9{font-size:18.13px;fill:#231f20;font-family:AlegreyaSans-Regular, Alegreya Sans;}.cls-10{letter-spacing:-0.02em;}.cls-11{letter-spacing:-0.01em;}.cls-12,.cls-13{letter-spacing:-0.01em;}.cls-14{letter-spacing:-0.03em;}.cls-15{letter-spacing:-0.02em;}.cls-16,.cls-17{font-size:34.15px;}.cls-16{fill:#e73d11;}.cls-17{fill:#ffb000;}</style><linearGradient id="linear-gradient" x1="100.1" y1="246.09" x2="314.57" y2="246.09" gradientTransform="matrix(1, 0, 0, -1, 0, 352)" gradientUnits="userSpaceOnUse"><stop offset="0.37" stop-color="#ffb000"/><stop offset="0.45" stop-color="#fda402"/><stop offset="0.6" stop-color="#f68406"/><stop offset="0.79" stop-color="#eb510e"/><stop offset="0.86" stop-color="#e73d11"/></linearGradient><linearGradient id="linear-gradient-2" x1="100.1" y1="195.3" x2="184.76" y2="195.3" xlink:href="#linear-gradient"/><linearGradient id="linear-gradient-3" x1="100.1" y1="140.69" x2="303.28" y2="140.69" xlink:href="#linear-gradient"/></defs><g id="Layer_2" data-name="Layer 2"><g id="Layer_1-2" data-name="Layer 1-2"><path class="cls-1" d="M0,38.2H389.37V341.6a8.68,8.68,0,0,1-8.68,8.68H8.69A8.68,8.68,0,0,1,0,341.6V38.2Z"/><rect class="cls-2" x="100.1" y="86.25" width="214.47" height="39.32"/><rect class="cls-3" x="100.1" y="137.04" width="84.66" height="39.32"/><rect class="cls-4" x="100.1" y="191.65" width="203.18" height="39.32"/><rect class="cls-5" width="389.37" height="46.95" rx="9.23"/><g class="cls-6"><text class="cls-7" transform="translate(58.28 31.02)">PH</text><text class="cls-8" transform="translate(79.77 31.02)">Y</text><text class="cls-7" transform="translate(90.16 31.02)">SICAL sexual harassment</text></g><g class="cls-6"><text class="cls-9" transform="translate(17.16 272.46)">38% </text><text class="cls-10" transform="translate(51.16 272.46)">o</text><text class="cls-9" transform="translate(59.7 272.46)">f </text><text class="cls-11" transform="translate(68.19 272.46)">w</text><text class="cls-12" transform="translate(80.16 272.46)">o</text><text class="cls-9" transform="translate(88.88 272.46)">men </text><text class="cls-12" transform="translate(124.1 272.46)">f</text><text class="cls-9" transform="translate(129.41 272.46)">a</text><text class="cls-9" transform="translate(137.77 272.46)">ced sexual h</text><text class="cls-10" transform="translate(222.99 272.46)">a<tspan class="cls-13" x="8.01" y="0">r</tspan></text><text class="cls-9" transform="translate(236.86 272.46)">assment at </text><text class="cls-11" transform="translate(316.82 272.46)">w</text><text class="cls-12" transform="translate(328.79 272.46)">o</text><text class="cls-9" transform="translate(337.51 272.46)">r</text><text class="cls-9" transform="translate(343.39 272.46)">k, </text><text class="cls-9" transform="translate(17.16 294.22)">a</text><text class="cls-12" transform="translate(25.54 294.22)">g</text><text class="cls-9" transform="translate(34.13 294.22)">ainst 15% </text><text class="cls-10" transform="translate(103.5 294.22)">o</text><text class="cls-9" transform="translate(112.04 294.22)">f men </text><text class="cls-12" transform="translate(155.75 294.22)">a</text><text class="cls-9" transform="translate(163.94 294.22)">nd 36% </text><text class="cls-10" transform="translate(219.62 294.22)">o</text><text class="cls-9" transform="translate(228.16 294.22)">f </text><text class="cls-9" transform="translate(17.16 315.98)">gende</text><text class="cls-14" transform="translate(61.46 315.98)">r</text><text class="cls-9" transform="translate(66.7 315.98)">-n</text><text class="cls-12" transform="translate(81.63 315.98)">o</text><text class="cls-9" transform="translate(90.35 315.98)">nc</text><text class="cls-10" transform="translate(106.69 315.98)">o<tspan class="cls-13" x="8.54" y="0">n</tspan></text><text class="cls-15" transform="translate(124.59 315.98)">f</text><text class="cls-12" transform="translate(129.76 315.98)">o</text><text class="cls-9" transform="translate(138.48 315.98)">rming ind</text><text class="cls-9" transform="translate(207.56 315.98)">i</text><text class="cls-9" transform="translate(211.93 315.98)">vidual</text><text class="cls-10" transform="translate(255.49 315.98)">s</text><text class="cls-9" transform="translate(261.91 315.98)">.</text></g><text class="cls-16" transform="translate(319.98 119.61)">38%</text><text class="cls-16" transform="translate(188.69 171.39)">15%</text><text class="cls-16" transform="translate(314.57 223.77)">36%</text><text class="cls-17" transform="translate(8.11 119.61)">women</text><text class="cls-17" transform="translate(40.79 171.39)">men</text><text class="cls-17" transform="translate(45.12 228.04)">gnc</text></g></g></svg>