<svg id="Layer_1" data-name="Layer 1" xmlns="http://www.w3.org/2000/svg" xmlns:xlink="http://www.w3.org/1999/xlink" viewBox="0 0 389.37 350.28"><defs><style>.cls-1{fill:#e6e7e8;}.cls-2{fill:#a6a8ab;}.cls-10,.cls-11,.cls-16,.cls-17,.cls-3,.cls-4,.cls-5,.cls-6,.cls-7,.cls-8{isolation:isolate;}.cls-3{font-size:26.73px;}.cls-13,.cls-3{fill:#fff;}.cls-16,.cls-17,.cls-3{font-family:BebasNeue, Bebas Neue;}.cls-10,.cls-11,.cls-5,.cls-6,.cls-7,.cls-8{font-size:18.13px;fill:#231f20;font-family:AlegreyaSans-Regular, Alegreya Sans;}.cls-5{letter-spacing:-0.02em;}.cls-6,.cls-9{letter-spacing:-0.01em;}.cls-8{letter-spacing:-0.01em;}.cls-10{letter-spacing:-0.03em;}.cls-11{letter-spacing:-0.02em;}.cls-12{fill:url(#linear-gradient);}.cls-14{fill:url(#linear-gradient-2);}.cls-15{fill:url(#linear-gradient-3);}.cls-16,.cls-17{font-size:34.15px;}.cls-16{fill:#4963ac;}.cls-17{fill:#2eb5c3;}</style><linearGradient id="linear-gradient" x1="98.04" y1="245.24" x2="310.73" y2="245.24" gradientTransform="matrix(1, 0, 0, -1, 0, 352)" gradientUnits="userSpaceOnUse"><stop offset="0" stop-color="#2eb5c3"/><stop offset="1" stop-color="#283273"/></linearGradient><linearGradient id="linear-gradient-2" x1="98.04" y1="192.39" x2="189.77" y2="192.39" xlink:href="#linear-gradient"/><linearGradient id="linear-gradient-3" x1="98.04" y1="139.53" x2="288.05" y2="139.53" xlink:href="#linear-gradient"/></defs><g id="Layer_2" data-name="Layer 2"><g id="Layer_1-2" data-name="Layer 1-2"><path class="cls-1" d="M0,38.2H389.37V341.6a8.68,8.68,0,0,1-8.68,8.68H8.68A8.68,8.68,0,0,1,0,341.6V38.2Z"/><rect class="cls-2" width="389.37" height="46.95" rx="9.23"/><text class="cls-3" transform="translate(65.83 31.02)">verbal sexual harassment</text><g class="cls-4"><text class="cls-5" transform="translate(17.15 272.46)">S</text><text class="cls-6" transform="translate(25.35 272.46)">o</text><text class="cls-7" transform="translate(34.07 272.46)">me 56% </text><text class="cls-5" transform="translate(93.97 272.46)">o</text><text class="cls-7" transform="translate(102.51 272.46)">f </text><text class="cls-8" transform="translate(111 272.46)">w</text><text class="cls-6" transform="translate(122.96 272.46)">o</text><text class="cls-7" transform="translate(131.69 272.46)">men </text><text class="cls-6" transform="translate(166.9 272.46)">f</text><text class="cls-7" transform="translate(172.22 272.46)">a</text><text class="cls-7" transform="translate(180.58 272.46)">ced </text><text class="cls-8" transform="translate(208.31 272.46)">v</text><text class="cls-7" transform="translate(215.72 272.46)">e</text><text class="cls-7" transform="translate(224.08 272.46)">r</text><text class="cls-7" transform="translate(229.96 272.46)">bal sexual </text><text class="cls-7" transform="translate(17.15 294.22)">h</text><text class="cls-5" transform="translate(26.58 294.22)">a<tspan class="cls-9" x="8.01" y="0">r</tspan></text><text class="cls-7" transform="translate(40.45 294.22)">assment at </text><text class="cls-8" transform="translate(120.41 294.22)">w</text><text class="cls-6" transform="translate(132.38 294.22)">o</text><text class="cls-7" transform="translate(141.1 294.22)">r</text><text class="cls-7" transform="translate(146.97 294.22)">k, a</text><text class="cls-6" transform="translate(170.77 294.22)">g</text><text class="cls-7" transform="translate(179.36 294.22)">ainst 24% </text><text class="cls-5" transform="translate(251.88 294.22)">o</text><text class="cls-7" transform="translate(260.42 294.22)">f men </text><text class="cls-6" transform="translate(304.13 294.22)">a</text><text class="cls-7" transform="translate(312.32 294.22)">nd 50% </text><text class="cls-5" transform="translate(17.15 315.98)">o</text><text class="cls-7" transform="translate(25.69 315.98)">f gende</text><text class="cls-10" transform="translate(78.48 315.98)">r</text><text class="cls-7" transform="translate(83.72 315.98)">-n</text><text class="cls-6" transform="translate(98.65 315.98)">o</text><text class="cls-7" transform="translate(107.37 315.98)">nc</text><text class="cls-5" transform="translate(123.71 315.98)">o<tspan class="cls-9" x="8.54" y="0">n</tspan></text><text class="cls-11" transform="translate(141.61 315.98)">f</text><text class="cls-6" transform="translate(146.78 315.98)">o</text><text class="cls-7" transform="translate(155.5 315.98)">rming ind</text><text class="cls-7" transform="translate(224.57 315.98)">i</text><text class="cls-7" transform="translate(228.94 315.98)">vidual</text><text class="cls-5" transform="translate(272.5 315.98)">s</text><text class="cls-7" transform="translate(278.92 315.98)">.</text></g><rect class="cls-12" x="98.04" y="87.24" width="212.69" height="39.05"/><path class="cls-13" d="M310.23,87.74v38.05H98.54V87.74H310.23m1-1H97.54v40.05H311.23Z"/><rect class="cls-14" x="98.04" y="140.09" width="91.73" height="39.05"/><path class="cls-13" d="M189.26,140.59v38H98.54v-38h90.72m1-1H97.54v40h92.72Z"/><rect class="cls-15" x="98.04" y="192.94" width="190.01" height="39.05"/><path class="cls-13" d="M287.55,193.44v38.05h-189V193.44h189m1-1h-191v40.05h191Z"/><text class="cls-16" transform="translate(319.98 119.61)">56%</text><text class="cls-16" transform="translate(200.57 171.39)">24%</text><text class="cls-16" transform="translate(289.5 223.77)">50%</text><text class="cls-17" transform="translate(8.1 119.61)">women</text><text class="cls-17" transform="translate(40.78 171.39)">men</text><text class="cls-17" transform="translate(45.12 228.04)">gnc</text></g></g></svg>