<?xml version="1.0" encoding="utf-8"?>
<!-- Generator: Adobe Illustrator 25.3.1, SVG Export Plug-In . SVG Version: 6.00 Build 0)  -->
<svg version="1.1" id="Layer_1" xmlns="http://www.w3.org/2000/svg" xmlns:xlink="http://www.w3.org/1999/xlink" x="0px" y="0px"
	 viewBox="0 0 500 563.7" style="enable-background:new 0 0 500 563.7;" xml:space="preserve">
<style type="text/css">
	.st0{fill:none;stroke:#FFFFFF;stroke-width:12;stroke-miterlimit:10;}
</style>
<g id="Layer_2_1_">
	<g id="Layer_1-2">
		<path class="st0" d="M469.9,130.2L271.3,15.6c-13.2-7.6-29.4-7.6-42.6,0L30.1,130.2c-13.2,7.6-21.3,21.7-21.3,36.9v229.3
			c0,15.3,8.1,29.4,21.3,37L228.7,548c13.2,7.6,29.4,7.6,42.6,0l198.6-114.7c13.2-7.6,21.3-21.7,21.3-37V167.1
			C491.2,151.9,483.1,137.9,469.9,130.2z M221.6,437L110.4,325.8l111.4-111.3l38.8,40.2l-71.3,71.1l71.3,71.4L221.6,437z
			 M278.5,352.4l-39.2-39.7l71.2-71.4l-71.2-71.2l39.2-40.1l111.1,111.3L278.5,352.4z"/>
	</g>
</g>
</svg>
