<?xml version="1.0" encoding="utf-8"?>
<!-- Generator: Adobe Illustrator 25.4.1, SVG Export Plug-In . SVG Version: 6.00 Build 0)  -->
<svg version="1.1" id="Layer_1" xmlns="http://www.w3.org/2000/svg" xmlns:xlink="http://www.w3.org/1999/xlink" x="0px" y="0px"
	 viewBox="0 0 849 849" style="enable-background:new 0 0 849 849;" xml:space="preserve">
<style type="text/css">
	.st0{fill:#4963AC;}
	.st1{clip-path:url(#SVGID_00000069366500337334206550000003353600462111059620_);}
	.st2{fill:#8E6743;}
	.st3{fill:#603813;}
	.st4{fill:#5A84AF;}
	.st5{fill:#283273;}
	.st6{fill:#B6916F;}
</style>
<circle class="st0" cx="424.5" cy="424.5" r="424.5"/>
<g>
	<defs>
		<circle id="SVGID_1_" cx="424.5" cy="424.5" r="424.5"/>
	</defs>
	<clipPath id="SVGID_00000106859358218551193630000005463411572709622932_">
		<use xlink:href="#SVGID_1_"  style="overflow:visible;"/>
	</clipPath>
	
		<g id="Layer_2_00000149378010819942552740000013767180515876178076_" style="clip-path:url(#SVGID_00000106859358218551193630000005463411572709622932_);">
		<g id="Layer_1-2">
			<path class="st0" d="M636,667.7c0,0,88.2,35.5,92.4,130.3h-49L636,667.7z"/>
			<rect x="298.8" y="395.9" class="st2" width="192.4" height="289.5"/>
			<path class="st3" d="M464.5,456.4c0,0-21.3,68.7-46.9,84.2c-25.6,15.5-59.3-7.5-59.3-7.5s71.8,48.4,79.4,61.1s19.4-6.2,19.4-6.2
				h7.3c0,0,19.9,25.8,23,33.8s-12.5,68.6-26.9,76s-24.3,18.1-63,8.7S284,630.9,273,616.7s-60.1-93.1-57.6-101.2
				c2.5-8.1-8.1-30,27.5-46.8s72.4-51.5,108.6-49.8S464.5,456.4,464.5,456.4z"/>
			<path class="st2" d="M536,284.3c0-82.6-57.8-149.5-129.1-149.5s-129.1,66.9-129.1,149.5v0.2c-3.2,17.6-4.8,35.4-4.8,53.2
				c0,100,48.9,181,109.1,181c46,0,85.4-47.3,101.5-114.2C515.4,377.3,536,333.6,536,284.3z"/>
			<path class="st4" d="M171,490.6c0,0-66.9,32.8-59.4,106.7c7.5,74,23.8,275.3,23.8,275.3H710c0,0-102.1-224.6-130.2-269.6
				s-111-28.2-111-28.2s1.4,39.3-7,52s-22.5,26.5-22.5,26.5s14-45.9,2.8-50.2s-61.8-60.3-82.9-59.7C338.2,544,171,490.6,171,490.6z"
				/>
			<path class="st0" d="M569,757.5c0,0,8.4-8.5,34.6,13s51.9,25.6,51.9,25.6l-10.7-40.3l-32.5-24.6c0,0-28.3-0.9-31.1,0L569,757.5z"
				/>
			<path class="st0" d="M182.6,751.2c49,2.2,123.7-84.6,108.3-36.8c-15.4,47.8,0.9,67.4,20.4,61.8s23.6,13.1,40.5,22.5
				c16.9,9.4,37.4-6.5,51.5-28.1s53.5,6.3,53.5,6.3l-15.4-77.5c0,0,5.8-9.4,35.8,4.7s52.4,49.6,52.4,49.6s-39.3-176-44.9-178.8
				c-1.1-0.6-2.2-1.2-3.4-1.8c-7.7,0.9-12.5,1.8-12.5,1.8s1.4,39.3-7,52s-22.5,26.5-22.5,26.5s14-45.9,2.8-50.2
				s-61.8-60.3-82.9-59.7C338.2,544,171,490.6,171,490.6s-66.9,32.8-59.4,106.7c1.1,10.9,2.4,23.4,3.9,36.8l0,0
				C126.5,695.2,148.9,749.7,182.6,751.2z"/>
			<path class="st0" d="M437.8,600.4L437.8,600.4L437.8,600.4z"/>
			<path class="st0" d="M441.4,699.4c0.1-0.1,0.2-0.2,0.2-0.3c-0.6-2.7-2.9-10-11.5-27.8c-12.2-25-65.8-69.3-52.4-75.1
				s5.9-28.6,14-28.3c5.4,0.2,23.9,14.4,35.7,24c-19.9-17.5-52.4-49-68.2-48.5c-6,0.2-24.1-4.1-46.7-10.2c-2,6.4-2.2,15.4-1.3,17.6
				c1.4,3.5,26,55.5,26,57.6s98.6,87,104.4,92L441.4,699.4z"/>
			<path class="st5" d="M424.2,198.3c0,0,5.3-20.9-25.6,12.8s-98.3,56.2-112.4,102.6s10.5,133.4,10.5,133.4s21.8,118.8,73.8,164.7
				s109.6,137,99.7,162.5s-38.4-42.1-61.3-21.1s-24.3,53.8-49.6,26.9s-41.2,16.6-48-63.4S197.2,508.1,201.7,458.6
				s40-68.3,36.3-117.2S235.2,79.1,413.8,97.4l12.9,5.6c0,0,77.2-8.4,109.6,91.3c32.3,99.7-17.7,278.9,0,332.9
				s101.1,126.4,118,157.3s48.3,149.4,5.9,115.4s-66.3-70.5-86-48s-46.3,49.2-60.4-21.1c-14-70.2-43.5-52.7-36.5-105.3
				s-8.5-33.8-8.5-33.8s-19.5,9.9-13.9-36.5s-3.9-68,17-113.4s34.3-114.4,23.7-159.1S425,306.7,424.2,198.3z"/>
			<path class="st0" d="M441.7,675.5c7,5.2,29,9.8,29,9.8s-14-7.5-10.8-22s16.9-67.8,13.1-74.9c-0.7-1.4-2.3,0-4.4,3
				c-0.5,12.3-2.1,28.1-6.9,35.3c-8.4,12.7-22.5,26.5-22.5,26.5S434.7,670.4,441.7,675.5z"/>
			<path class="st0" d="M258.1,419c0,0-33.8,1.4-56.4,30s-57.8,65.1-57.3,85.2c0.5,20.1-6.7,120.3,61.5,129.2s102.9,7,112.2-32.8
				c9.4-39.8,13.6-52,13.6-70.7s-5.6-37.9-6.6-42.6S258.1,419,258.1,419z"/>
			<path class="st2" d="M408.9,448.5c0,0-52.4,19.7-70.2,61.8c-13.9,32.8-46.4,95.5-73.5,92.7S171,566.4,187,493.4
				s89.4-74,109.8-113.3s0,5.6,0,5.6L408.9,448.5z"/>
			<path class="st3" d="M288.8,391.3c-1.4,1.5-2.9,2.9-4.4,4.3c-3.2,16.7-15.7,91.1,12.4,108.6c24.8,15.4,3.7,65.4-6.7,86.6
				c19.9-19.4,38.9-57.4,48.7-80.5c17.8-42.1,70.2-61.8,70.2-61.8l-108-60.5C295.7,389.4,291.5,390.5,288.8,391.3z"/>
			<path class="st6" d="M315.7,275.6c0,0-16.5-85.8-21.2-112.7c-4.7-26.8-15.6-79.6,0-86.8c15.6-7.2,26.2,0.9,30.3,25.6
				s9.1,56.5,14.4,72.9s15.6,72.3,20.9,68.5c5.3-3.7,8.7-33.1,8.7-51.2s2.2-53.4,4.1-68.7s1.9-51.5,2.5-64.3s-1.6-25,15.9-26.2
				c17.5-1.2,22.2,15.9,23.4,42.1s0.3,74.9,0,88.3s3.1,27.1,0.6,42.1s-6.9,38.7,3.7,40.3s31.5-61.8,31.5-61.8s5.3-17.2,12.8-28.4
				c7.5-11.2,33.1-79.6,44.3-80.8c11.2-1.2,22.2,5,18.4,30s-12.5,40.6-16.2,53.7c-3.7,13.1-12.5,29-12.5,29s-3.7,20-7.5,37.8
				s-11.2,29.7-13.1,43.4c-1.9,13.7-4,63.4-0.9,73.1s14.4,31.8,35,32.4s81.8-2.2,96.1,7.8c14.3,10,20,24.7,6.6,31.5
				c-13.4,6.9-62.7,10.3-70.2,12.2s-30.3,4.4-35.3,5c-5,0.6-11.9,1.6-23.1,6.5s-39,16.2-54,17.5s-33.1,3.8-49.3,0
				s-84.2-3.1-95.2-62.1s-10.9-75.8-10.9-75.8s-22.5-40.9-34.7-59.9s-42.1-61.8-31.2-72.7c10.9-10.9,21.2-10,30.9,7.5
				s19.3,33.7,28.1,44.3s25.3,33.4,25.3,33.4s9,14.4,16.2,11.9C317.3,278.4,315.7,275.6,315.7,275.6z"/>
			<path class="st3" d="M379.6,96.3c2.5,0.6,5.1,1,7.6,1.2c2.4,0.2,4.8,0.3,7.1,0.2c2.4-0.1,4.8-0.3,7.2-0.6
				c1.2-0.1,2.5-0.3,3.8-0.4c1.4-0.2,2.7-0.3,4.1-0.3c-0.9,1.1-2,2-3.1,2.9c-1.1,0.8-2.4,1.5-3.6,2.1c-2.6,1.2-5.4,1.8-8.2,1.9
				c-2.9,0.1-5.8-0.4-8.4-1.5C383.4,100.6,381.1,98.7,379.6,96.3z"/>
			<path class="st3" d="M481.8,131.3c2.4,1.1,4.8,2,7.2,2.7c2.3,0.7,4.6,1.2,7,1.6c2.4,0.4,4.7,0.7,7.2,0.9c1.2,0.1,2.5,0.1,3.8,0.3
				c1.4,0.1,2.7,0.2,4.1,0.5c-1.1,0.8-2.3,1.6-3.6,2.2c-1.3,0.5-2.6,1-4,1.3c-2.8,0.6-5.7,0.7-8.5,0.2c-2.9-0.5-5.6-1.6-8-3.2
				C484.7,136.3,482.9,134,481.8,131.3z"/>
			<path class="st3" d="M463.6,180.8c2.4,1.1,4.8,2,7.3,2.7c2.3,0.7,4.6,1.2,7,1.6c2.4,0.4,4.7,0.6,7.2,0.9c1.2,0.1,2.5,0.1,3.8,0.4
				c1.4,0.1,2.7,0.2,4.1,0.5c-1.1,0.8-2.3,1.6-3.6,2.2c-1.3,0.6-2.6,1-4,1.3c-2.8,0.6-5.7,0.7-8.5,0.2c-2.9-0.5-5.6-1.6-8-3.2
				C466.5,185.8,464.6,183.5,463.6,180.8z"/>
			<path class="st3" d="M375.8,162.3c2.5,0.6,5.1,1.1,7.6,1.4c2.4,0.3,4.8,0.4,7.1,0.4c2.4-0.1,4.8-0.2,7.3-0.4
				c1.2-0.1,2.5-0.3,3.8-0.3c1.4-0.2,2.7-0.3,4.1-0.2c-1,1-2,2-3.2,2.8c-1.2,0.8-2.4,1.4-3.7,2c-2.6,1.1-5.4,1.7-8.3,1.8
				c-2.9,0-5.8-0.6-8.4-1.7C379.5,166.7,377.3,164.8,375.8,162.3z"/>
			<path class="st3" d="M297.9,145.7c2.6,0.1,5.2,0,7.8-0.2c2.4-0.2,4.7-0.6,7-1.1c2.3-0.6,4.6-1.2,7-1.9c1.2-0.3,2.4-0.8,3.7-1.1
				c1.3-0.4,2.6-0.8,4-1.1c-0.7,1.2-1.6,2.3-2.5,3.4c-1,1-2.1,1.9-3.2,2.7c-2.3,1.6-5,2.8-7.7,3.4c-2.8,0.6-5.7,0.7-8.6,0.1
				C302.4,149.2,299.8,147.8,297.9,145.7z"/>
			<path class="st3" d="M234.5,237.7c2.1-1,4.1-2.1,6.1-3.2c1.8-1.1,3.5-2.3,5.2-3.5s3.3-2.6,5-4.1c0.9-0.7,1.7-1.5,2.6-2.2
				c0.9-0.8,1.9-1.6,2.9-2.3c-0.1,1.3-0.3,2.5-0.7,3.8c-0.4,1.2-0.9,2.3-1.5,3.4c-1.3,2.2-3,4.2-5,5.7c-2.1,1.6-4.5,2.6-7,3.2
				C239.6,239.1,236.9,238.8,234.5,237.7z"/>
			<path class="st3" d="M254,265.1c2.1-1,4.1-2.1,6.1-3.3c1.8-1.1,3.5-2.3,5.2-3.5c1.7-1.2,3.3-2.6,5-4c0.9-0.7,1.7-1.5,2.6-2.2
				c0.9-0.8,1.9-1.6,2.9-2.3c-0.1,1.3-0.3,2.5-0.7,3.8c-0.4,1.2-0.9,2.3-1.5,3.4c-1.3,2.2-3,4.2-5,5.7c-2.1,1.6-4.5,2.6-7,3.2
				C259.1,266.5,256.4,266.2,254,265.1z"/>
			<path class="st3" d="M306.4,193.1c2.6,0.2,5.2,0.2,7.8,0c2.4-0.2,4.7-0.5,7.1-1c2.3-0.5,4.7-1.1,7.1-1.8c1.2-0.3,2.4-0.8,3.7-1
				c1.3-0.4,2.6-0.8,4-1c-0.8,1.2-1.6,2.3-2.6,3.3c-1,1-2.1,1.9-3.2,2.6c-2.4,1.6-5,2.7-7.8,3.2c-2.8,0.6-5.8,0.5-8.6-0.1
				C310.9,196.8,308.3,195.3,306.4,193.1z"/>
			<path class="st3" d="M350.1,253.8c-2.5,0.6-5,1.3-7.4,2.2c-2.2,0.8-4.4,1.8-6.5,2.9c-2.1,1.1-4.2,2.3-6.3,3.7
				c-1.1,0.6-2.1,1.4-3.3,2c-1.1,0.8-2.3,1.5-3.5,2.1c0.4-1.4,0.9-2.7,1.6-3.9c0.7-1.2,1.5-2.4,2.4-3.4c1.8-2.2,4.1-4,6.6-5.3
				c2.6-1.3,5.4-2.1,8.3-2.2C344.8,251.5,347.7,252.3,350.1,253.8z"/>
			<path class="st3" d="M301.1,290.7c-1.8,1.7-3.3,3.3-4.7,4.9c-1.4,1.6-2.7,3.2-4,4.8s-2.4,3.3-3.6,5.1c-0.6,0.9-1.2,1.8-1.9,2.7
				s-1.2,1.9-2,2.9c0-1,0.1-1.9,0.3-2.8c0.3-1,0.6-2,1-3c0.9-2.2,2.1-4.2,3.5-6.1c1.5-2,3.3-3.8,5.3-5.4
				C296.9,292.3,298.9,291.2,301.1,290.7z"/>
			<path class="st3" d="M404.8,245.3c-2.8-0.6-5.7-1-8.5-1.2c-2.6-0.2-5.3-0.2-7.9-0.2c-2.6,0.1-5.3,0.3-8,0.6
				c-1.4,0.1-2.8,0.4-4.2,0.4c-1.5,0.2-3,0.3-4.5,0.4c1-1.1,2.1-2,3.3-2.9c1.3-0.8,2.6-1.5,4-2.1c2.9-1.2,6-1.9,9.1-2
				c3.2-0.1,6.4,0.4,9.4,1.5C400.3,241,402.9,242.8,404.8,245.3z"/>
			<path class="st3" d="M466.6,260.2c-2.5-1.4-5.1-2.7-7.7-3.8c-2.4-1-4.9-1.9-7.5-2.7c-2.5-0.7-5.1-1.4-7.8-2
				c-1.4-0.3-2.7-0.5-4.1-0.9c-1.5-0.3-3-0.7-4.4-1.1c1.3-0.7,2.7-1.2,4.1-1.7c4.5-1.2,9.2-1.1,13.6,0.3c3.1,0.9,5.9,2.4,8.5,4.4
				C463.7,254.6,465.6,257.2,466.6,260.2z"/>
			<path class="st3" d="M556.1,378.9c-0.8,2.8-1.4,5.6-1.8,8.4c-0.4,2.6-0.6,5.3-0.7,7.9c0,2.6,0,5.3,0.1,8.1c0,1.4,0.2,2.8,0.1,4.2
				c0.1,1.5,0.1,3,0,4.5c-1-1.1-1.9-2.3-2.6-3.5c-0.7-1.3-1.3-2.7-1.8-4.1c-1-3-1.4-6.1-1.3-9.2c0.1-3.2,0.8-6.4,2.2-9.3
				C551.4,383,553.4,380.6,556.1,378.9z"/>
			<path class="st3" d="M499.6,383.8c-0.6,2-1,4-1.3,6.1c-0.3,1.9-0.5,3.8-0.5,5.7c0,1.9,0,3.8,0,5.8c0,1,0.1,2,0.1,3.1
				c0.1,1.1,0.1,2.2,0,3.3c-0.7-0.8-1.4-1.6-1.9-2.5c-0.5-1-1-2-1.3-3c-0.7-2.1-1.1-4.4-1-6.6c0.1-2.3,0.6-4.6,1.5-6.7
				C496.2,386.7,497.7,385,499.6,383.8z"/>
			<path class="st3" d="M287.8,348.1c3.1,2,6.5,3.5,10.2,4.2c3.6,0.8,7.2,1.2,10.9,1c3.6-0.1,7.2-0.7,10.7-1.6
				c1.8-0.4,3.5-1,5.2-1.5c1.7-0.6,3.4-1.3,5.1-2c6.8-2.9,13.4-6.1,20-9.5s13.2-6.9,19.8-10.4s13.3-6.9,20.1-10.1
				c3.4-1.6,6.9-3.1,10.5-4.4s7.2-2.4,10.8-3.4l10.7-3.1c3.6-1,7.1-2.2,10.5-3.5c3.4-1.3,6.7-3,9.7-5.1c3-2.1,5.6-4.9,7.4-8.1
				c-1.3,3.6-3.6,6.8-6.4,9.3c-2.9,2.5-6.1,4.7-9.5,6.4c-6.8,3.4-14,5.8-21,8.3c-3.5,1.3-7,2.5-10.4,3.9s-6.7,3-10,4.6
				c-6.6,3.3-13.2,6.8-19.8,10.3c-13.3,6.8-26.5,13.9-40.9,19c-7.2,2.7-14.9,4-22.6,3.8c-3.8-0.2-7.6-0.9-11.2-2.2
				C294,352.6,290.7,350.7,287.8,348.1z"/>
			<path class="st3" d="M454,318.7c-12.4,4-24.3,9.5-35.5,16.2c-5.5,3.3-10.7,7.2-15.5,11.4c-4.8,4.2-9,9-12.5,14.2
				c-1.8,2.6-3.3,5.3-4.5,8.2l-1.9,4.4c-0.6,1.5-1,3-1.6,4.5l-0.8,2.2c-0.2,0.8-0.4,1.5-0.6,2.3c-0.4,1.5-0.8,3.1-1.1,4.6l-0.8,4.7
				c-0.3,1.6-0.3,3.2-0.5,4.8c-0.5,6.4-0.3,12.9,0.7,19.2c0.9,6.5,2.6,12.8,5,18.9c-3.5-5.7-6-11.9-7.6-18.4
				c-1.7-6.5-2.4-13.3-2.3-20c0.1-6.8,1.2-13.5,3.2-20c0.5-1.6,1-3.3,1.6-4.8l2-4.7c1.4-3.1,3-6.2,4.9-9
				c7.7-11.4,18.6-20.1,30.4-26.3c5.9-3.1,12-5.7,18.4-7.8C441,321.1,447.5,319.6,454,318.7z"/>
		</g>
	</g>
</g>
</svg>
