<svg xmlns="http://www.w3.org/2000/svg" viewBox="0 0 617.34 773.27"><defs><style>.cls-1{fill:#4963ac;}.cls-2{fill:#8e6743;}.cls-3{fill:#603813;}.cls-4{fill:#5a84af;}.cls-5{fill:#283273;}.cls-6{fill:#b6916f;}</style></defs><g id="Layer_2" data-name="Layer 2"><g id="Layer_1-2" data-name="Layer 1"><path class="cls-1" d="M525,635.06s88.17,35.51,92.38,130.26h-49Z"/><rect class="cls-2" x="187.83" y="363.2" width="192.44" height="289.5"/><path class="cls-3" d="M353.52,423.71s-21.31,68.7-46.91,84.24-59.3-7.49-59.3-7.49,71.77,48.41,79.43,61.1,19.44-6.25,19.44-6.25h7.34s19.89,25.81,23,33.82-12.51,68.6-26.86,76-24.33,18.1-63,8.74S173,598.28,162,584.07,101.87,491,104.36,482.91s-8.11-30,27.47-46.82,72.41-51.5,108.62-49.78S353.52,423.71,353.52,423.71Z"/><path class="cls-2" d="M425,251.6c0-82.55-57.8-149.47-129.11-149.47S166.79,169.05,166.79,251.6v.19A293.33,293.33,0,0,0,162,305c0,100,48.86,181,109.13,181,46.05,0,85.43-47.3,101.46-114.19C404.39,344.61,425,300.9,425,251.6Z"/><path class="cls-4" d="M60,457.94S-6.91,490.71.58,564.68,24.34,765.32,24.34,765.32h527s-54.49-149.89-82.58-194.93-111-28.18-111-28.18,1.41,39.32-7,52-22.47,26.46-22.47,26.46,14-45.94,2.8-50.24-61.79-60.33-82.86-59.71S60,457.94,60,457.94Z"/><path class="cls-1" d="M458.05,724.85s8.37-8.48,34.58,13,51.89,25.57,51.89,25.57l-10.69-40.26-32.54-24.63s-28.32-.94-31.13,0Z"/><path class="cls-1" d="M71.59,718.55c49,2.19,123.66-84.58,108.3-36.83s.94,67.42,20.38,61.8S223.9,756.63,240.76,766s37.45-6.55,51.5-28.09,53.52,6.35,53.52,6.35l-15.36-77.51s5.84-9.36,35.81,4.68,52.43,49.63,52.43,49.63-39.32-176-44.94-178.84c-1.12-.56-2.2-1.23-3.41-1.84-7.69.86-12.51,1.84-12.51,1.84s1.41,39.32-7,52-22.47,26.46-22.47,26.46,14-45.94,2.8-50.24-61.79-60.33-82.86-59.71S60,457.94,60,457.94-6.91,490.71.58,564.68C1.69,575.62,3,588.11,4.52,601.44h0C15.48,662.54,37.88,717.05,71.59,718.55Z"/><path class="cls-1" d="M326.77,567.75h0l0,0Z"/><path class="cls-1" d="M330.42,666.74a3.12,3.12,0,0,1,.25-.31c-.59-2.74-2.86-10-11.49-27.78-12.18-25-65.78-69.29-52.44-75.14s5.85-28.56,14-28.32c5.39.15,23.86,14.41,35.7,24-19.94-17.53-52.37-49-68.18-48.51-6,.18-24.05-4.07-46.68-10.22-2,6.4-2.21,15.37-1.3,17.64,1.41,3.51,26,55.48,26,57.58s98.56,87,104.37,92Z"/><path class="cls-5" d="M313.17,165.64s5.3-20.91-25.6,12.8S189.26,234.62,175.21,281s10.5,133.43,10.5,133.43,21.81,118.78,73.77,164.73,109.56,137,99.73,162.52-38.4-42.14-61.34-21.07-24.34,53.84-49.62,26.92-41.19,16.62-48-63.44S86.18,475.41,90.67,425.94s40-68.27,36.31-117.16S124.22,46.48,302.81,64.71l12.85,5.58s77.25-8.43,109.56,91.29-17.74,278.87,0,332.87,101.12,126.41,118,157.31,48.3,149.43,5.89,115.44-66.29-70.5-86-48-46.35,49.16-60.39-21.07-43.48-52.65-36.52-105.34S357.68,559,357.68,559s-19.54,9.89-13.92-36.46-3.91-68,17-113.37,34.34-114.37,23.73-159.1S314,274,313.17,165.64Z"/><path class="cls-1" d="M330.67,642.86c7,5.15,29,9.84,29,9.84s-14-7.49-10.76-22S365.8,562.94,362,555.85c-.73-1.38-2.3,0-4.35,3-.5,12.3-2.11,28.12-6.9,35.3-8.43,12.65-22.47,26.46-22.47,26.46S323.68,637.71,330.67,642.86Z"/><path class="cls-1" d="M147.12,386.31s-33.78,1.4-56.45,30-57.78,65.08-57.31,85.21S26.62,621.8,94.83,630.69s102.86,7,112.22-32.77,13.58-52,13.58-70.69-5.62-37.93-6.56-42.61S147.12,386.31,147.12,386.31Z"/><path class="cls-2" d="M297.87,415.8s-52.43,19.66-70.22,61.8c-13.85,32.79-46.35,95.51-73.5,92.7S60,533.78,76,460.75s89.39-74,109.77-113.3,0,5.62,0,5.62Z"/><path class="cls-3" d="M177.75,358.61c-1.4,1.5-2.88,2.94-4.44,4.34-3.19,16.66-15.71,91.12,12.4,108.56,24.75,15.35,3.7,65.36-6.73,86.57,19.89-19.43,38.91-57.37,48.67-80.48,17.79-42.14,70.22-61.8,70.22-61.8l-108-60.45C184.7,356.74,180.53,357.87,177.75,358.61Z"/><path class="cls-6" d="M204.74,242.89s-16.54-85.83-21.22-112.67-15.61-79.59,0-86.77,26.22.93,30.27,25.59,9.05,56.48,14.36,72.87,15.61,72.26,20.91,68.52,8.74-33.08,8.74-51.19,2.19-53.37,4.06-68.66,1.87-51.5,2.5-64.3-1.57-25,15.91-26.22S302.43,16,303.68,42.2s.31,74.91,0,88.33,3.14,27.15.63,42.13-6.87,38.71,3.74,40.27,31.53-61.8,31.53-61.8,5.3-17.17,12.79-28.4,33.09-79.59,44.32-80.84,22.16,5,18.42,30-12.49,40.58-16.23,53.68-12.49,29-12.49,29-3.74,20-7.49,37.77S367.67,222,365.79,235.71s-4.05,63.44-.93,73.07,14.35,31.8,34.95,32.43,81.78-2.19,96.13,7.8,20,24.66,6.56,31.52-62.74,10.3-70.23,12.17-30.27,4.37-35.27,5-11.86,1.56-23.09,6.55-39,16.23-54,17.48-33.08,3.75-49.31,0-84.24-3.12-95.18-62.11-10.94-75.84-10.94-75.84S142,242.89,129.83,223.85s-42.13-61.8-31.21-72.72,21.23-10,30.9,7.49,19.35,33.71,28.09,44.32,25.28,33.39,25.28,33.39,9.05,14.36,16.23,11.87S204.74,242.89,204.74,242.89Z"/><path class="cls-3" d="M268.6,63.6a54.93,54.93,0,0,0,7.65,1.2,61.21,61.21,0,0,0,7.15.19c2.37-.12,4.76-.31,7.25-.61,1.25-.1,2.49-.35,3.82-.43a34.44,34.44,0,0,1,4.09-.35,21,21,0,0,1-3.1,2.86,22.88,22.88,0,0,1-3.63,2.08,22.46,22.46,0,0,1-8.24,1.95A20.56,20.56,0,0,1,275.14,69,13.48,13.48,0,0,1,268.6,63.6Z"/><path class="cls-3" d="M370.84,98.67a55.63,55.63,0,0,0,7.25,2.72,62,62,0,0,0,7,1.62c2.35.36,4.73.65,7.23.87,1.25.15,2.51.15,3.83.35a32.43,32.43,0,0,1,4.08.48,22.94,22.94,0,0,1-3.61,2.18,25,25,0,0,1-4,1.3,22.52,22.52,0,0,1-8.47.25,20.53,20.53,0,0,1-8-3.19A13.5,13.5,0,0,1,370.84,98.67Z"/><path class="cls-3" d="M352.61,148.15a56.15,56.15,0,0,0,7.26,2.71,63.74,63.74,0,0,0,7,1.63c2.35.35,4.73.65,7.23.86,1.24.15,2.51.15,3.83.35a32.07,32.07,0,0,1,4.07.48,22.07,22.07,0,0,1-3.61,2.18,23.64,23.64,0,0,1-4,1.3,22.52,22.52,0,0,1-8.47.25,20.53,20.53,0,0,1-8-3.19A13.54,13.54,0,0,1,352.61,148.15Z"/><path class="cls-3" d="M264.8,129.64a56.48,56.48,0,0,0,7.62,1.39,61.52,61.52,0,0,0,7.14.36c2.38-.07,4.77-.2,7.27-.43,1.25-.07,2.5-.3,3.83-.34a33.2,33.2,0,0,1,4.1-.25,21.48,21.48,0,0,1-3.17,2.78,23.33,23.33,0,0,1-3.68,2,22.45,22.45,0,0,1-8.29,1.75,20.42,20.42,0,0,1-8.4-1.73A13.47,13.47,0,0,1,264.8,129.64Z"/><path class="cls-3" d="M186.87,113a55.34,55.34,0,0,0,7.75-.23,60.23,60.23,0,0,0,7-1.14c2.31-.56,4.63-1.19,7-1.94,1.21-.33,2.38-.81,3.67-1.13a34.38,34.38,0,0,1,4-1.1,22,22,0,0,1-2.51,3.39,24.42,24.42,0,0,1-3.19,2.71,22.52,22.52,0,0,1-7.74,3.44,20.34,20.34,0,0,1-8.58.06A13.48,13.48,0,0,1,186.87,113Z"/><path class="cls-3" d="M123.5,205a60.29,60.29,0,0,0,6.12-3.25c1.84-1.11,3.53-2.29,5.21-3.53s3.29-2.62,5-4.06c.88-.69,1.67-1.49,2.63-2.2a29,29,0,0,1,2.94-2.26,18.78,18.78,0,0,1-.68,3.75,20.72,20.72,0,0,1-1.53,3.44,19.48,19.48,0,0,1-5,5.72,17.64,17.64,0,0,1-7,3.18A11.7,11.7,0,0,1,123.5,205Z"/><path class="cls-3" d="M143,232.41a60.26,60.26,0,0,0,6.12-3.26c1.84-1.1,3.53-2.29,5.21-3.53s3.3-2.61,5-4.05c.88-.69,1.67-1.49,2.64-2.2a26.52,26.52,0,0,1,2.93-2.26,18.91,18.91,0,0,1-.68,3.75,21.1,21.1,0,0,1-1.53,3.44,19.6,19.6,0,0,1-5,5.72,17.78,17.78,0,0,1-7,3.18A11.76,11.76,0,0,1,143,232.41Z"/><path class="cls-3" d="M195.35,160.45a55.22,55.22,0,0,0,7.75,0,60.9,60.9,0,0,0,7.08-1c2.32-.5,4.65-1.08,7.06-1.77,1.22-.3,2.4-.75,3.7-1a33,33,0,0,1,4-1,21.44,21.44,0,0,1-2.59,3.32,25,25,0,0,1-3.25,2.64,22.59,22.59,0,0,1-7.82,3.24,20.34,20.34,0,0,1-8.58-.14A13.56,13.56,0,0,1,195.35,160.45Z"/><path class="cls-3" d="M239.12,221.15a56,56,0,0,0-7.43,2.21,61.84,61.84,0,0,0-6.53,2.89c-2.09,1.13-4.17,2.33-6.29,3.67-1.09.63-2.1,1.39-3.27,2a33.69,33.69,0,0,1-3.54,2.07,21.44,21.44,0,0,1,1.57-3.91,23.76,23.76,0,0,1,2.39-3.44,22.59,22.59,0,0,1,6.6-5.3,20.5,20.5,0,0,1,8.28-2.25A13.6,13.6,0,0,1,239.12,221.15Z"/><path class="cls-3" d="M190.15,258c-1.79,1.72-3.28,3.3-4.7,4.9s-2.69,3.19-3.95,4.82-2.43,3.32-3.63,5.09c-.63.88-1.18,1.79-1.87,2.71s-1.24,1.88-2.05,2.87a15.15,15.15,0,0,1,.34-2.84,22.48,22.48,0,0,1,1-3,28.32,28.32,0,0,1,3.54-6.1,30.1,30.1,0,0,1,5.28-5.36A15.07,15.07,0,0,1,190.15,258Z"/><path class="cls-3" d="M293.76,212.67a68,68,0,0,0-8.54-1.18,78.3,78.3,0,0,0-7.94-.17c-2.63.13-5.27.33-8,.63-1.39.1-2.76.36-4.23.44a39.62,39.62,0,0,1-4.53.36,22.3,22.3,0,0,1,3.33-2.87,26.23,26.23,0,0,1,4-2.1,26.91,26.91,0,0,1,9.08-2,25.16,25.16,0,0,1,9.42,1.5A15.53,15.53,0,0,1,293.76,212.67Z"/><path class="cls-3" d="M355.58,227.57a68.21,68.21,0,0,0-7.72-3.84A76.67,76.67,0,0,0,340.4,221c-2.54-.72-5.11-1.37-7.81-2-1.35-.34-2.73-.53-4.15-.93a40,40,0,0,1-4.41-1.1,22.66,22.66,0,0,1,4.08-1.66,25.16,25.16,0,0,1,13.65.3,25.19,25.19,0,0,1,8.46,4.42A15.53,15.53,0,0,1,355.58,227.57Z"/><path class="cls-3" d="M445.08,346.21a68.66,68.66,0,0,0-1.78,8.43,76.27,76.27,0,0,0-.72,7.9c-.05,2.64,0,5.29.07,8.06,0,1.39.17,2.77.14,4.24a40,40,0,0,1,0,4.54,22.31,22.31,0,0,1-2.64-3.52,27.3,27.3,0,0,1-1.81-4.09,26.54,26.54,0,0,1-1.33-9.2,25.22,25.22,0,0,1,2.15-9.29A15.46,15.46,0,0,1,445.08,346.21Z"/><path class="cls-3" d="M388.57,351.09a49.55,49.55,0,0,0-1.28,6.08,55.86,55.86,0,0,0-.53,5.71c0,1.89,0,3.81.05,5.8,0,1,.13,2,.11,3.07a29.44,29.44,0,0,1,0,3.27,16.32,16.32,0,0,1-1.9-2.54,20,20,0,0,1-1.31-3,19.27,19.27,0,0,1-1-6.63,18.22,18.22,0,0,1,1.55-6.71A11.17,11.17,0,0,1,388.57,351.09Z"/><path class="cls-3" d="M176.84,315.48A29.82,29.82,0,0,0,187,319.73a39.33,39.33,0,0,0,10.85,1,48.63,48.63,0,0,0,10.73-1.59c1.76-.39,3.46-1.05,5.2-1.54,1.71-.65,3.42-1.27,5.12-2,6.76-2.86,13.44-6.07,20-9.51s13.2-6.87,19.79-10.38S272,288.81,278.8,285.6c3.44-1.56,6.88-3.12,10.51-4.43s7.19-2.38,10.8-3.43l10.73-3.11c3.56-1,7.08-2.17,10.47-3.54A44.6,44.6,0,0,0,331,266a24.57,24.57,0,0,0,7.38-8.11,23.49,23.49,0,0,1-6.41,9.29,44.15,44.15,0,0,1-9.52,6.35c-6.82,3.44-14,5.81-21,8.28-3.49,1.26-7,2.48-10.38,3.85s-6.68,3-10,4.63c-6.63,3.28-13.21,6.78-19.8,10.28-13.27,6.84-26.52,13.94-40.85,19a58.25,58.25,0,0,1-22.59,3.78,39.46,39.46,0,0,1-11.25-2.2A27.64,27.64,0,0,1,176.84,315.48Z"/><path class="cls-3" d="M343,286a172.19,172.19,0,0,0-35.51,16.18,107.11,107.11,0,0,0-15.46,11.41,72.07,72.07,0,0,0-12.48,14.23A53.7,53.7,0,0,0,275,336l-1.92,4.36c-.62,1.46-1,3-1.58,4.48l-.79,2.25c-.24.76-.41,1.54-.61,2.3-.37,1.55-.83,3.08-1.14,4.63l-.78,4.71c-.29,1.57-.34,3.17-.53,4.76a84.84,84.84,0,0,0,.66,19.22,82.7,82.7,0,0,0,5,18.88,65.21,65.21,0,0,1-7.61-18.35,75.54,75.54,0,0,1-2.3-20,70.94,70.94,0,0,1,3.17-20c.51-1.62,1-3.26,1.6-4.83l2-4.69a57.83,57.83,0,0,1,4.88-9c7.67-11.43,18.62-20.06,30.39-26.31a120.36,120.36,0,0,1,18.36-7.84A109.12,109.12,0,0,1,343,286Z"/></g></g></svg>