<?xml version="1.0" encoding="utf-8"?>
<!-- Generator: Adobe Illustrator 24.0.1, SVG Export Plug-In . SVG Version: 6.00 Build 0)  -->
<svg version="1.1" id="Calque_1" xmlns="http://www.w3.org/2000/svg" xmlns:xlink="http://www.w3.org/1999/xlink" x="0px" y="0px"
	 viewBox="0 0 8.8 8.8" style="enable-background:new 0 0 8.8 8.8;" xml:space="preserve">
<style type="text/css">
	.st0{fill:#FFFFFF;}
</style>
<g id="ar">
	<path class="st0" d="M4,4h3.6V3.2H4c-0.1,0-0.2,0-0.3,0V2c0,0,0-0.5,0.3-0.8C4.2,1,4.4,0.9,4.6,0.9h2.9V0H4.6
		C4.1,0,3.7,0.2,3.4,0.5C2.8,1.1,2.8,1.9,2.8,2v1.5C1.8,3.9,1.2,4.9,1.2,6c0,1.6,1.3,2.8,2.8,2.8h3.7V7.9H4C2.9,7.9,2,7,2,6
		C2.1,4.9,2.9,4,4,4z"/>
</g>
</svg>
