<?xml version="1.0" encoding="utf-8"?>
<!-- Generator: Adobe Illustrator 25.2.0, SVG Export Plug-In . SVG Version: 6.00 Build 0)  -->
<svg version="1.1" id="Calque_1" xmlns="http://www.w3.org/2000/svg" xmlns:xlink="http://www.w3.org/1999/xlink" x="0px" y="0px"
	 viewBox="0 0 15.1 28.9" style="enable-background:new 0 0 15.1 28.9;" xml:space="preserve">
<style type="text/css">
	.st0{fill:#E64E30;}
</style>
<g>
	<polygon class="st0" points="1.1,21.1 2.1,20.1 6.4,24.9 6.4,4 7.9,4 7.9,25.2 12.9,20.8 13.9,22 7.1,27.9 	"/>
	<path class="st0" d="M7.5,4.4V26l5.4-4.7l0.5,0.6l-6.3,5.5l-5.5-6.3l0.5-0.5l4.7,5.3V4.4H7.5 M8.2,3.7H7.5H6.8H6.1v0.8v19.5
		l-3.4-3.8l-0.5-0.6l-0.6,0.6l-0.5,0.5l-0.5,0.5L1,21.6l5.5,6.3L7,28.5L7.6,28l6.3-5.5l0.6-0.5L14,21.4l-0.5-0.6L13,20.2l-0.6,0.5
		l-4.2,3.6v-20V3.7L8.2,3.7z"/>
</g>
</svg>
