<svg xmlns="http://www.w3.org/2000/svg" xmlns:xlink="http://www.w3.org/1999/xlink" viewBox="0 0 456.92 90"><defs><style>.cls-1{fill:#fff;}.cls-2{fill:url(#linear-gradient);}</style><linearGradient id="linear-gradient" x1="13.18" y1="45" x2="76.82" y2="45" gradientUnits="userSpaceOnUse"><stop offset="0" stop-color="#3fa1fc"/><stop offset="0.1" stop-color="#368cfd"/><stop offset="0.24" stop-color="#2d78fe"/><stop offset="0.37" stop-color="#286bff"/><stop offset="0.5" stop-color="#2667ff"/><stop offset="1" stop-color="#2ed9c3"/></linearGradient></defs><title>logo-white_1</title><g id="Calque_2" data-name="Calque 2"><g id="Layer_1" data-name="Layer 1"><path class="cls-1" d="M137.83,59.47l-7.4-18.73h0L123.1,59.47h-5.74l-9.27-29.73h5l7.45,23.83h0l9.54-24.51h.55l9.74,24.51h0l7.25-23.83h5l-9.19,29.73Z"/><path class="cls-1" d="M152.8,49.65c0-6.33,4.32-10.49,11.92-10.49s11.92,4.16,11.92,10.49-4.28,10.5-11.92,10.5C157.28,60.15,152.8,56,152.8,49.65Zm19.29,0c0-4.12-2.54-6.73-7.37-6.73s-7.32,2.58-7.32,6.73,2.53,6.73,7.32,6.73S172.09,53.81,172.09,49.65Z"/><path class="cls-1" d="M214.14,59.47V48.7c0-3.8-2.22-5.58-5.66-5.58-4,0-6.42,2.57-6.42,7.05v9.3h-4.39V48.7c0-3.8-2.18-5.58-5.67-5.58-4,0-6.37,2.57-6.37,7.05v9.3h-4.4V39.83h4.36v3.25h0c1.35-2.53,4.08-3.92,7.64-3.92,3.72,0,6.61,1.46,8,4.51h0c1.5-3,4.51-4.51,8.43-4.51,5.67,0,8.79,3.29,8.79,9.11v11.2Z"/><path class="cls-1" d="M241.78,53.57l3.68,2.1c-2,3-5.86,4.48-10.61,4.48-7.76,0-12.19-4.24-12.19-10.5s4.67-10.49,11.56-10.49,11.52,4,11.6,11.6H227.13c.52,3.8,3.41,5.66,7.72,5.66C238.06,56.42,240.36,55.51,241.78,53.57Zm-14.41-6.29h13.7c-.6-2.58-3-4.56-6.81-4.56S228.16,44.51,227.37,47.28Z"/><path class="cls-1" d="M267.68,59.47V48.7c0-3.8-2.34-5.58-6-5.58-4.28,0-6.73,2.57-6.73,7.05v9.3h-4.4V39.83h4.36V43h0c1.42-2.49,4.28-3.88,8-3.88,5.26,0,9.14,2.69,9.14,9.11v11.2Z"/><path class="cls-1" d="M290.93,31.91a2.61,2.61,0,1,1,5.22,0,2.61,2.61,0,1,1-5.22,0Zm.43,7.92h4.4V59.47h-4.4Z"/><path class="cls-1" d="M319.4,59.47V48.7c0-3.8-2.34-5.58-6-5.58-4.28,0-6.73,2.57-6.73,7.05v9.3h-4.4V39.83h4.36V43h0c1.42-2.49,4.27-3.88,8-3.88,5.27,0,9.15,2.69,9.15,9.11v11.2Z"/><path class="cls-1" d="M373.8,29.74V59.47h-4.63L348.38,37V59.47h-4.63V29.74h4.63l20.83,22.68V29.74Z"/><path class="cls-1" d="M398.2,53.57l3.68,2.1c-2,3-5.86,4.48-10.61,4.48-7.76,0-12.2-4.24-12.2-10.5s4.68-10.49,11.57-10.49,11.52,4,11.6,11.6H383.55c.51,3.8,3.4,5.66,7.72,5.66C394.48,56.42,396.77,55.51,398.2,53.57Zm-14.41-6.29h13.7c-.6-2.58-3.05-4.56-6.81-4.56S384.58,44.51,383.79,47.28Z"/><path class="cls-1" d="M429.64,59.47h-4.95L420.1,48.86H420l-4.48,10.61h-5l-6.45-19.64h4.67l4.63,14.42h0l6.5-15.09h.43l6.5,15h0l4.59-14.34h4.67Z"/><path class="cls-1" d="M437.09,55.79l3.44-2c1.54,2,4.12,2.65,7.17,2.65,3.24,0,4.83-.71,4.83-2.21,0-4.12-13.9-1.19-13.94-9.35,0-3.44,2.85-5.74,8.35-5.74,3.81,0,7.61,1.35,9.43,4.24l-3.45,1.94c-1.5-1.9-4-2.5-6.33-2.5s-3.6.64-3.6,1.86c0,3.88,13.93,1,13.93,9.31,0,3.92-3.2,6.14-9.38,6.14C442.67,60.15,439,58.72,437.09,55.79Z"/><path class="cls-2" d="M15.18,67.69h6.08V46.52H15.18ZM32.66,46.53c-5.78,0-8.92,3-8.92,9.16v12h6.08V62.77h7.5V57.29h-7.5v-1.6c0-1.82.85-2.9,2.84-2.9h4.81V46.53ZM45.88,52h1.3C49,52,50,53,50,54.3s-1,2.42-2.81,2.42h-1.3ZM39.8,46.53V67.69h6.08V62.16H47.7l2.78,5.53h6.37l-3.7-7a7.27,7.27,0,0,0,3-6.34c0-5-3.45-7.77-8.62-7.77ZM64.51,52h4.35v5.26H64.51Zm-6-5.44V67.69h6v-5h4.35v5h6V46.53Zm-27-23.62V37.12c0,1-.36,1.51-1.3,1.51s-1.3-.51-1.3-1.51V22.91H23.56V37.12c0,1-.36,1.51-1.3,1.51S21,38.12,21,37.12V22.91H15.18v15c0,4.66,2.36,6.74,6,6.74,3,0,4.66-1.66,5.08-3.51h0c.42,1.85,2.06,3.51,5.08,3.51,3.6,0,6-2.08,6-6.74v-15Zm14.22,5.44h4.35v5.26H45.73Zm-6-5.44V44.08h6v-5h4.35v5h6V22.91Zm18.75,8.25V44.08H64.6V31.16c0-1.51.51-2.6,2.05-2.6s2.06,1.09,2.06,2.6V44.08h6.08V31.16c0-5.86-3-8.86-8.14-8.86s-8.13,3-8.13,8.86M6.21,45A38.79,38.79,0,1,1,45,83.79,38.79,38.79,0,0,1,6.21,45M0,45A45,45,0,1,0,45,0,45,45,0,0,0,0,45"/></g></g></svg>