<?xml version="1.0" encoding="utf-8"?>
<!-- Generator: Adobe Illustrator 24.0.1, SVG Export Plug-In . SVG Version: 6.00 Build 0)  -->
<svg version="1.1" id="Calque_1" xmlns="http://www.w3.org/2000/svg" xmlns:xlink="http://www.w3.org/1999/xlink" x="0px" y="0px"
	 viewBox="0 0 23 23" style="enable-background:new 0 0 23 23;" xml:space="preserve">
<circle style="fill:#F1F2F3;" cx="11.5" cy="11.5" r="11.5"/>
<g>
	<g>
		<path style="fill:#282828;" d="M18.8,7c-0.5,0.2-1.1,0.4-1.7,0.5c0.6-0.4,1.1-1,1.3-1.7c-0.6,0.3-1.2,0.6-1.9,0.7
			c-0.6-0.6-1.3-1-2.2-1c-1.7,0-3,1.4-3,3c0,0.2,0,0.5,0.1,0.7C8.9,9.1,6.7,7.9,5.2,6.1c-0.3,0.4-0.4,1-0.4,1.5c0,1,0.5,2,1.3,2.5
			c-0.5,0-1-0.1-1.4-0.4c0,0,0,0,0,0c0,1.5,1,2.7,2.4,3c-0.2,0.1-0.5,0.1-0.8,0.1c-0.2,0-0.4,0-0.6-0.1c0.4,1.2,1.5,2.1,2.8,2.1
			c-1,0.8-2.3,1.3-3.7,1.3c-0.2,0-0.5,0-0.7,0c1.3,0.9,2.9,1.3,4.6,1.3c5.5,0,8.6-4.6,8.6-8.6c0-0.1,0-0.3,0-0.4
			C17.9,8.1,18.4,7.6,18.8,7z"/>
	</g>
</g>
</svg>
